<svg width="0" height="0" class="hidden">
	<symbol xmlns="http://www.w3.org/2000/svg" id="user" viewBox="0 0 18 22" fill="none">
		<circle cx="9" cy="5" r="4" stroke="currentColor" stroke-width="2" stroke-linecap="round"/>
		<path d="M17 21C17 16.5817 13.4183 13 9 13C4.58172 13 1 16.5817 1 21" stroke="currentColor" stroke-width="2" stroke-linecap="round"/>
	</symbol>
	<symbol xmlns="http://www.w3.org/2000/svg" id="cart" viewBox="0 0 21 24" fill="none">
		<path d="M15.8852 6.17676H4.8072C4.27651 6.17676 3.76401 6.37125 3.36561 6.72384C2.96721 7.07643 2.71023 7.56294 2.64276 8.09232L1.01746 19.7678C0.978348 20.0768 1.00513 20.3907 1.09601 20.6886C1.18689 20.9865 1.3398 21.2614 1.54455 21.4953C1.74931 21.7291 2.00122 21.9164 2.28354 22.0447C2.56585 22.173 2.8721 22.2393 3.1819 22.2394H17.5105C17.8203 22.2393 18.1266 22.173 18.4089 22.0447C18.6912 21.9164 18.9431 21.7291 19.1479 21.4953C19.3526 21.2614 19.5055 20.9865 19.5964 20.6886C19.6873 20.3907 19.7141 20.0768 19.675 19.7678L18.0497 8.09232C17.9822 7.56294 17.7252 7.07643 17.3268 6.72384C16.9284 6.37125 16.4159 6.17676 15.8852 6.17676Z" stroke="currentColor" stroke-width="2" stroke-miterlimit="10"/>
		<path d="M14.8964 9.36872V5.38522C14.8972 4.80962 14.7852 4.23951 14.5667 3.70751C14.3482 3.17551 14.0276 2.69204 13.6231 2.28476C13.2187 1.87748 12.7384 1.55437 12.2097 1.33392C11.681 1.11347 11.1143 0.999999 10.542 1C9.96964 0.999999 9.40292 1.11347 8.87422 1.33392C8.34553 1.55437 7.86524 1.87748 7.46081 2.28476C7.05638 2.69204 6.73576 3.17551 6.51727 3.70751C6.29879 4.23951 6.18673 4.80962 6.1875 5.38522V9.37465" stroke="currentColor" stroke-width="2" stroke-miterlimit="10" stroke-linecap="round"/>
	</symbol>
	<symbol xmlns="http://www.w3.org/2000/svg" id="trash" viewBox="0 0 17 23" fill="none">
		<path d="M3.49219 8.25635H12.8017V15.3965C12.8017 17.9672 10.7177 20.0512 8.14695 20.0512V20.0512C5.5762 20.0512 3.49219 17.9672 3.49219 15.3965V8.25635Z" stroke="currentColor" stroke-width="1.5"/>
		<path d="M5.23828 5.89746L11.0567 5.89746" stroke="currentColor" stroke-width="1.5" stroke-linecap="round"/>
		<path d="M1.16406 8.25635L15.1283 8.25635" stroke="currentColor" stroke-width="1.5" stroke-linecap="round"/>
	</symbol>
	<symbol xmlns="http://www.w3.org/2000/svg" id="cross" viewBox="0 0 58 57" fill="none">
		<path d="M43.2852 42.426L15.0009 14.1418" stroke="currentColor" stroke-width="2" stroke-linecap="round"/>
		<path d="M15 42.426L43.2843 14.1418" stroke="currentColor" stroke-width="2" stroke-linecap="round"/>
	</symbol>
	<symbol xmlns="http://www.w3.org/2000/svg" id="marker" viewBox="0 0 18 23" fill="none">
		<path d="M8.50095 0C3.8135 0 0 3.8135 0 8.50095C0 11.2042 2.26713 15.2318 3.61852 17.3919C4.50766 18.813 5.46315 20.1655 6.30887 21.2002C7.66637 22.8609 8.15225 22.9999 8.50104 22.9999C8.85504 22.9999 9.31377 22.8608 10.667 21.1992C11.5147 20.1583 12.4706 18.8066 13.3588 17.3929C14.7195 15.2276 17.002 11.1928 17.002 8.50086C17.002 3.8135 13.1885 0 8.50095 0Z" fill="currentColor"/>
		<path d="M8.49935 4.25928C6.38568 4.25928 4.66602 5.97891 4.66602 8.09261C4.66602 10.2063 6.38568 11.9259 8.49935 11.9259C10.613 11.9259 12.3327 10.2063 12.3327 8.09261C12.3327 5.97891 10.613 4.25928 8.49935 4.25928Z" fill="#F9F0E8"/>
	</symbol>
	<symbol xmlns="http://www.w3.org/2000/svg" id="mail" viewBox="0 0 20 16" fill="none">
		<rect x="0.75" y="0.75" width="18.5" height="14.1522" rx="2.25" fill="currentColor" stroke="currentColor" stroke-width="1.5"/>
		<path d="M2.60742 2.60889L8.628 8.27531C9.3981 9.00011 10.5994 9.00011 11.3695 8.27531L17.39 2.60889" stroke="#F9F0E8" stroke-width="1.5" stroke-linecap="round" stroke-linejoin="round"/>
		<path d="M2.61073 13.0439L7.82812 8.69604" stroke="#F9F0E8" stroke-width="1.5" stroke-linecap="round" stroke-linejoin="round"/>
		<path d="M17.3893 13.0439L12.1719 8.69604" stroke="#F9F0E8" stroke-width="1.5" stroke-linecap="round" stroke-linejoin="round"/>
	</symbol>
	<symbol xmlns="http://www.w3.org/2000/svg" id="phone" viewBox="0 0 19 18" fill="none">
		<path d="M11.8391 17.6926C12.4338 17.8973 13.0419 18 13.6552 18C13.9102 18 14.1662 17.9822 14.4222 17.9466C15.2392 17.8331 16.0323 17.5333 16.7158 17.0796C17.4023 16.6239 17.9733 16.0163 18.3671 15.3226C18.787 14.5829 18.9999 13.7755 18.9999 12.9228C18.9999 12.6576 18.8044 12.4284 18.5306 12.3728L14.1816 11.4899C13.9847 11.45 13.7797 11.5073 13.6373 11.6421L12.045 13.1507C9.05831 11.7276 6.62077 9.41836 5.11857 6.58889L6.71098 5.08033C6.85336 4.9454 6.91388 4.75128 6.87169 4.56471L5.93976 0.444603C5.8811 0.185301 5.63915 0 5.35921 0C4.45912 0 3.60687 0.201718 2.82604 0.599495C2.09383 0.972523 1.45253 1.51348 0.971504 2.16388C0.492591 2.81144 0.176135 3.5628 0.0563135 4.33677C-0.0715973 5.16305 0.0186491 5.98637 0.324455 6.78396C1.27609 9.26582 2.82608 11.5696 4.8069 13.4461C6.78771 15.3226 9.21939 16.791 11.8391 17.6926Z" fill="currentColor"/>
	</symbol>
	<symbol xmlns="http://www.w3.org/2000/svg" id="fb" viewBox="0 0 10 20" fill="none">
		<path d="M8.17432 3.32083H10V0.140833C9.685 0.0975 8.60175 0 7.34023 0C4.70794 0 2.90476 1.65583 2.90476 4.69917V7.5H0V11.055H2.90476V20H6.46612V11.0558H9.25342L9.69583 7.50083H6.46529V5.05167C6.46612 4.02417 6.74277 3.32083 8.17432 3.32083Z" fill="currentColor"/>
	</symbol>
	<symbol xmlns="http://www.w3.org/2000/svg" id="inst" viewBox="0 0 19 19" fill="none">
		<path d="M13.7573 0H5.24274C3.85285 0.00185839 2.52042 0.554813 1.53761 1.53761C0.554813 2.52042 0.00185839 3.85285 0 5.24274L0 13.7559C0.00148743 15.1459 0.554323 16.4785 1.5372 17.4614C2.52009 18.4443 3.85273 18.9971 5.24274 18.9986H13.7559C15.1457 18.9967 16.4782 18.4438 17.461 17.461C18.4438 16.4782 18.9967 15.1457 18.9986 13.7559V5.24274C18.9967 3.85309 18.444 2.52087 17.4615 1.53811C16.479 0.555349 15.1469 0.00222993 13.7573 0V0ZM17.3142 13.7573C17.3131 14.7003 16.938 15.6044 16.2712 16.2712C15.6044 16.938 14.7003 17.3131 13.7573 17.3142H5.24274C4.29971 17.3131 3.39563 16.938 2.72881 16.2712C2.06199 15.6044 1.68688 14.7003 1.68577 13.7573V5.24274C1.68688 4.29971 2.06199 3.39563 2.72881 2.72881C3.39563 2.06199 4.29971 1.68688 5.24274 1.68577H13.7559C14.6989 1.68688 15.603 2.06199 16.2698 2.72881C16.9366 3.39563 17.3117 4.29971 17.3128 5.24274L17.3142 13.7573Z" fill="currentColor"/>
		<path d="M9.49927 4.60498C8.53098 4.60498 7.58444 4.89211 6.77933 5.43006C5.97423 5.96801 5.34673 6.73263 4.97618 7.62721C4.60564 8.52179 4.50868 9.50616 4.69759 10.4558C4.88649 11.4055 5.35277 12.2779 6.03745 12.9625C6.72213 13.6472 7.59447 14.1135 8.54415 14.3024C9.49384 14.4913 10.4782 14.3944 11.3728 14.0238C12.2674 13.6533 13.032 13.0258 13.5699 12.2207C14.1079 11.4156 14.395 10.469 14.395 9.50073C14.3935 8.20275 13.8772 6.95836 12.9594 6.04055C12.0416 5.12275 10.7972 4.60647 9.49927 4.60498ZM9.49927 12.7107C8.86445 12.7104 8.24397 12.5219 7.71628 12.169C7.18859 11.8162 6.77737 11.3147 6.53463 10.7282C6.29189 10.1416 6.22852 9.49622 6.35254 8.87363C6.47656 8.25105 6.78239 7.67922 7.23137 7.23043C7.68035 6.78165 8.25231 6.47607 8.87495 6.35232C9.49759 6.22858 10.1429 6.29223 10.7294 6.53523C11.3159 6.77822 11.8171 7.18966 12.1698 7.71751C12.5224 8.24535 12.7107 8.86591 12.7107 9.50073C12.7092 10.3517 12.3703 11.1674 11.7682 11.7689C11.1662 12.3704 10.3503 12.7086 9.49927 12.7093V12.7107Z" fill="currentColor"/>
		<path d="M14.6008 3.1748C14.3147 3.17496 14.0376 3.27431 13.8166 3.45592C13.5956 3.63752 13.4444 3.89014 13.3888 4.17073C13.3332 4.45132 13.3766 4.7425 13.5117 4.99466C13.6467 5.24682 13.865 5.44434 14.1294 5.55358C14.3938 5.66281 14.6878 5.67698 14.9615 5.59369C15.2351 5.51039 15.4714 5.33478 15.6301 5.09678C15.7887 4.85878 15.86 4.57312 15.8316 4.28848C15.8033 4.00385 15.6771 3.73786 15.4746 3.53584C15.2424 3.30486 14.9283 3.17508 14.6008 3.1748Z" fill="#65473A"/>
	</symbol>
	<symbol xmlns="http://www.w3.org/2000/svg" id="user_solid" viewBox="0 0 16 20" fill="none">
		<circle cx="8" cy="5" r="5" fill="currentColor"/>
		<path d="M8 12C3.58172 12 0 15.5817 0 20H16C16 15.5817 12.4183 12 8 12Z" fill="currentColor"/>
	</symbol>
	<symbol xmlns="http://www.w3.org/2000/svg" id="history" viewBox="0 0 20 18" fill="none">
		<path d="M5.08079 0H5.08039C4.44164 0 3.92383 0.517809 3.92383 1.15656V2.97163C3.92383 3.61038 4.44164 4.12819 5.08039 4.12819H5.08079C5.71954 4.12819 6.23735 3.61038 6.23735 2.97163V1.15656C6.23735 0.517809 5.71954 0 5.08079 0Z" fill="currentColor"/>
		<path d="M14.0613 0H14.0609C13.4221 0 12.9043 0.517809 12.9043 1.15656V2.97163C12.9043 3.61038 13.4221 4.12819 14.0609 4.12819H14.0613C14.7 4.12819 15.2178 3.61038 15.2178 2.97163V1.15656C15.2178 0.517809 14.7 0 14.0613 0Z" fill="currentColor"/>
		<path d="M19.1382 4.77092C19.1382 3.3854 18.1284 2.38405 16.7473 2.37999C16.184 2.37999 16.5609 2.37999 15.9976 2.37999V3.02838C15.9972 3.54155 15.7931 4.03357 15.4301 4.39632C15.0671 4.75907 14.575 4.96289 14.0618 4.963C13.8075 4.96305 13.5556 4.913 13.3206 4.81569C13.0856 4.71838 12.8721 4.57573 12.6923 4.39589C12.5124 4.21604 12.3698 4.00253 12.2725 3.76754C12.1751 3.53255 12.1251 3.28069 12.1251 3.02635V2.36743H7.01911V3.02635C7.01911 3.53998 6.81507 4.03258 6.45188 4.39577C6.08868 4.75896 5.59609 4.963 5.08246 4.963C4.82793 4.96332 4.57584 4.91346 4.34059 4.81628C4.10535 4.7191 3.89156 4.5765 3.71147 4.39663C3.53138 4.21676 3.38851 4.00316 3.29103 3.76804C3.19355 3.53291 3.14338 3.28088 3.14338 3.02635V2.37797C2.67938 2.37797 2.84107 2.37797 2.38437 2.37797C1.00452 2.38324 0.00316885 3.37648 0.00195312 4.75268C0.00195312 5.71959 0.00195312 6.13901 0.00195312 7.10592H19.1399C19.1395 6.14509 19.1395 5.73174 19.1382 4.77092Z" fill="currentColor"/>
		<path d="M0.00243145 15.6322C0.00243145 16.9946 1.00946 17.9976 2.37188 17.9984C7.17317 18.0006 11.9746 18.0006 16.7762 17.9984C18.1333 17.9984 19.1363 17.004 19.1379 15.6501C19.1407 13.5088 19.1412 10.2604 19.1407 8.11865H0C0 10.2527 0 13.4966 0.00243145 15.6322Z" fill="currentColor"/>
	</symbol>
	<symbol xmlns="http://www.w3.org/2000/svg" id="ticket" viewBox="0 0 20 20" fill="none">
		<path d="M19.9992 3.16877C19.919 3.87515 19.8322 4.6439 19.744 5.41172C19.6417 6.30289 19.5306 7.19407 19.4386 8.08946C19.4107 8.45772 19.2504 8.80341 18.9874 9.06272C15.4853 12.558 11.9863 16.0567 8.49016 19.5589C7.90148 20.1475 7.20116 20.1466 6.61389 19.5589L0.442389 13.3887C-0.146289 12.8 -0.147696 12.1002 0.439575 11.5125C3.85594 8.09665 7.26918 4.67814 10.6793 1.25697C11.1348 0.797314 11.6216 0.573114 12.2544 0.513077C13.724 0.375179 15.1894 0.187564 16.6552 0.0140193C17.1304 -0.0432034 17.5281 0.0712421 17.8682 0.422083C18.4461 1.01589 19.0371 1.59468 19.6239 2.18192C19.8805 2.43614 20.0118 2.74195 19.9992 3.16877ZM16.059 5.4469C16.3602 5.44959 16.6554 5.36281 16.9072 5.19757C17.159 5.03232 17.3561 4.79604 17.4735 4.51868C17.5909 4.24131 17.6233 3.93534 17.5666 3.63954C17.5099 3.34375 17.3667 3.07144 17.155 2.85713C16.9434 2.64282 16.6729 2.49615 16.3778 2.43571C16.0828 2.37527 15.7764 2.40379 15.4976 2.51764C15.2187 2.6315 14.9799 2.82556 14.8115 3.07525C14.6431 3.32493 14.5526 3.619 14.5514 3.92018C14.5502 4.32231 14.7081 4.7086 14.9908 4.99466C15.2734 5.28072 15.6578 5.44331 16.0599 5.4469H16.059Z" fill="currentColor"/>
	</symbol>
	<symbol xmlns="http://www.w3.org/2000/svg" id="back" viewBox="0 0 22 18" fill="none">
		<path d="M12.0314 16.306C16.098 16.6259 19.6541 13.5885 19.9739 9.52181C20.2938 5.45512 17.2564 1.89911 13.1897 1.57923C9.12305 1.25935 5.56704 4.29674 5.24716 8.36342" stroke="currentColor" stroke-width="3" stroke-linecap="round"/>
		<path d="M2.38281 6.4751L4.39933 10.7024L8.4157 8.78643" stroke="currentColor" stroke-width="3" stroke-linecap="round" stroke-linejoin="round"/>
	</symbol>
	<symbol xmlns="http://www.w3.org/2000/svg" id="exit" viewBox="0 0 22 20" fill="none">
		<path d="M16.8125 12.8411L20.0948 9.59172L17.0076 6.47318" stroke="currentColor" stroke-width="3" stroke-linecap="round" stroke-linejoin="round"/>
		<path d="M9 9.67847H18.5" stroke="currentColor" stroke-width="3" stroke-linecap="round"/>
		<path d="M12 2H2V18H12" stroke="currentColor" stroke-width="3" stroke-linecap="round" stroke-linejoin="round"/>
	</symbol>
	<symbol xmlns="http://www.w3.org/2000/svg" id="btn_cart" viewBox="0 0 26 30" fill="none">
		<path d="M19.9854 7.60254H5.85591C5.17904 7.60254 4.52536 7.85061 4.01723 8.30032C3.50909 8.75002 3.18132 9.37055 3.09526 10.0457L1.02227 24.9372C0.972384 25.3314 1.00654 25.7318 1.12246 26.1117C1.23837 26.4916 1.4334 26.8424 1.69455 27.1406C1.95571 27.4388 2.27702 27.6777 2.63709 27.8413C2.99717 28.005 3.38777 28.0896 3.78291 28.0897H22.0584C22.4535 28.0896 22.8441 28.005 23.2042 27.8413C23.5643 27.6777 23.8856 27.4388 24.1468 27.1406C24.4079 26.8424 24.6029 26.4916 24.7189 26.1117C24.8348 25.7318 24.8689 25.3314 24.819 24.9372L22.746 10.0457C22.66 9.37055 22.3322 8.75002 21.8241 8.30032C21.3159 7.85061 20.6623 7.60254 19.9854 7.60254Z" stroke="currentColor" stroke-width="2" stroke-miterlimit="10"/>
		<path d="M18.7255 11.6739V6.59314C18.7265 5.859 18.5836 5.13185 18.3049 4.4533C18.0262 3.77476 17.6173 3.15812 17.1015 2.63865C16.5857 2.11918 15.9731 1.70707 15.2987 1.4259C14.6244 1.14472 13.9016 0.999999 13.1716 1C12.4416 0.999999 11.7188 1.14472 11.0445 1.4259C10.3701 1.70707 9.75755 2.11918 9.24172 2.63865C8.7259 3.15812 8.31695 3.77476 8.03829 4.4533C7.75962 5.13185 7.61669 5.859 7.61768 6.59314V11.6815" stroke="currentColor" stroke-width="2" stroke-miterlimit="10" stroke-linecap="round"/>
	</symbol>
	<symbol xmlns="http://www.w3.org/2000/svg" id="star" viewBox="0 0 16 15" fill="none">
		<path d="M8.24737 0.845491C8.18044 0.63948 7.98846 0.5 7.77184 0.5C7.55523 0.5 7.36325 0.63948 7.29632 0.845492L5.8882 5.17923H1.33144C1.11482 5.17923 0.922846 5.31871 0.855909 5.52472C0.788972 5.73073 0.862301 5.95642 1.03754 6.08374L4.72404 8.76214L3.31593 13.0959C3.24899 13.3019 3.32232 13.5276 3.49756 13.6549C3.67281 13.7822 3.9101 13.7822 4.08535 13.6549L7.77184 10.9765L11.4583 13.6549C11.6336 13.7822 11.8709 13.7822 12.0461 13.6549C12.2214 13.5276 12.2947 13.3019 12.2278 13.0959L10.8196 8.76214L14.5061 6.08374C14.6814 5.95642 14.7547 5.73073 14.6878 5.52472C14.6208 5.31871 14.4289 5.17923 14.2123 5.17923H9.65549L8.24737 0.845491Z" fill="currentColor" stroke="currentColor" stroke-linejoin="round"/>
	</symbol>
	<symbol xmlns="http://www.w3.org/2000/svg" id="pencil" viewBox="0 0 15 15" fill="none">
		<path d="M0.323755 14.993C0.280393 15.0031 0.235174 15.0021 0.192335 14.9899C0.149495 14.9777 0.110436 14.9549 0.0788177 14.9234C0.0471993 14.892 0.024056 14.853 0.0115557 14.8102C-0.000944576 14.7674 -0.00239263 14.722 0.00734718 14.6785C0.186304 13.8889 0.359331 13.1237 0.53128 12.3611C0.639085 11.8872 0.735032 11.4111 0.854695 10.9409C0.902261 10.7403 0.976598 10.5471 1.0757 10.3664C1.4383 9.72213 1.88555 9.12958 2.40547 8.60465C5.06682 5.93531 7.73104 3.26922 10.3981 0.606375C11.2094 -0.204261 12.3429 -0.199938 13.159 0.610158C13.5748 1.02196 13.9881 1.43629 14.3988 1.85313C15.1982 2.66377 15.2036 3.79325 14.4015 4.59794C11.7398 7.26692 9.0743 9.93301 6.40504 12.5962C6.17164 12.8281 5.88057 13.0021 5.6116 13.1972C4.71573 13.8457 4.36698 14.0575 2.9542 14.3861C2.16884 14.5855 1.11181 14.8076 0.323755 14.993ZM4.79767 12.6292C5.13456 12.3719 5.5081 12.1455 5.80996 11.8461C7.72727 9.94814 9.62787 8.03396 11.5371 6.12788C11.6126 6.05276 11.7182 6.00845 11.8098 5.94954L11.6896 5.93387L9.06351 3.27607C9.04349 3.29167 9.02441 3.30845 9.00638 3.32633C7.00947 5.32229 5.01364 7.3197 3.01888 9.31855C2.76231 9.57687 2.54831 9.87842 2.32839 10.1438L4.79767 12.6292ZM12.4594 5.19998C12.917 4.7417 13.3784 4.30179 13.8145 3.83811C14.1541 3.47602 14.133 2.93344 13.7805 2.56865C13.345 2.11722 12.9021 1.67407 12.4518 1.23921C12.2707 1.06259 12.028 0.963778 11.7754 0.963778C11.5227 0.963778 11.28 1.06259 11.0989 1.23921C10.7512 1.57698 10.4154 1.92717 10.0672 2.26602C9.97413 2.3462 9.87461 2.4185 9.76964 2.48219L12.4594 5.19998ZM1.17003 13.8073C1.23633 13.8073 3.81125 13.1923 3.87162 13.1631L1.79206 11.062C1.58831 11.9607 1.38186 12.8708 1.17003 13.8073Z" fill="currentColor" stroke="currentColor" stroke-width="0.25"/>
	</symbol>
	<symbol xmlns="http://www.w3.org/2000/svg" id="arrow-head" viewBox="0 0 13 18" fill="none">
		<path d="M2.25842 0.208715C1.82141 -0.128978 1.19338 -0.0484622 0.855688 0.388552C0.517995 0.825567 0.598511 1.45359 1.03553 1.79128L2.25842 0.208715ZM11.9999 9L12.6114 9.79129C12.8564 9.60192 12.9999 9.3097 12.9999 9C12.9999 8.6903 12.8564 8.39808 12.6114 8.20872L11.9999 9ZM1.03553 1.79128L11.3885 9.79129L12.6114 8.20872L2.25842 0.208715L1.03553 1.79128ZM11.3885 8.20872L1.03553 16.2087L2.25842 17.7913L12.6114 9.79129L11.3885 8.20872Z" fill="currentColor"/>
	</symbol>
	<symbol xmlns="http://www.w3.org/2000/svg" id="check" viewBox="0 0 11 8" fill="none">
		<path d="M1.5 4L4.90776 7L10 1" stroke="currentColor" stroke-width="2" stroke-linecap="round" stroke-linejoin="round"/>
	</symbol>
	<symbol xmlns="http://www.w3.org/2000/svg" id="trigger" viewBox="0 0 12 7" fill="none">
		<path d="M1 1L5.87687 5.59L10.7537 1" stroke="currentColor" stroke-width="2" stroke-linecap="round" stroke-linejoin="round"/>
	</symbol>
	<symbol xmlns="http://www.w3.org/2000/svg" id="gift" viewBox="0 0 27 30" fill="none">
		<path d="M27 15.2584H14.5764V8.92914H12.4384V15.2437H0V8.88378H7.8695C7.63064 8.6728 7.52073 8.57997 7.4087 8.48503C6.20175 7.45441 5.25056 6.2508 4.99374 4.63999C4.74537 3.08932 5.32243 1.83507 6.56848 0.914156C7.78177 0.0175074 9.10498 -0.0784867 10.4462 0.615625C11.5527 1.18737 12.3728 2.07558 13.0556 3.09987C13.1909 3.30346 13.3113 3.52182 13.4868 3.80664C13.6083 3.61043 13.7045 3.45853 13.8039 3.30557C14.401 2.33402 15.145 1.4975 16.1047 0.869851C17.5579 -0.0795416 19.1115 -0.0573892 20.4379 0.920485C21.0869 1.38481 21.5754 2.03886 21.8359 2.79228C22.0964 3.54569 22.1161 4.36126 21.8921 5.12629C21.5106 6.47443 20.6894 7.53248 19.6389 8.43229C19.5099 8.53778 19.3799 8.65065 19.1104 8.87428H26.9989L27 15.2584ZM12.078 7.97974C11.7609 6.33835 11.2325 4.95224 10.1756 3.81086C9.92201 3.54403 9.64031 3.3053 9.33538 3.09881C9.00141 2.86674 8.62305 2.79184 8.24786 3.03025C7.85259 3.28236 7.56617 3.63047 7.65812 4.11677C7.72637 4.49272 7.86284 4.85307 8.06079 5.18009C8.96865 6.62422 10.4007 7.34154 12.078 7.97553V7.97974ZM14.8998 7.97974C16.3224 7.46074 17.542 6.86896 18.4615 5.80142C18.7882 5.41308 19.0537 4.97734 19.2489 4.50919C19.493 3.93217 19.2922 3.42899 18.7986 3.07877C18.3283 2.74543 17.8982 2.90788 17.4881 3.19692C17.303 3.33028 17.1288 3.47808 16.9671 3.63891C16.0645 4.51657 15.5297 5.61048 15.1788 6.80461C15.0784 7.1485 15.0076 7.50294 14.9019 7.97236L14.8998 7.97974Z" fill="currentColor"/>
		<path d="M1.34375 29.2872V17.5H12.386V29.2872H1.34375Z" fill="currentColor"/>
		<path d="M25.6233 29.2897H14.5938V17.5088H25.6233V29.2897Z" fill="currentColor"/>
	</symbol>
	<symbol xmlns="http://www.w3.org/2000/svg" id="pig" viewBox="0 0 35 38" fill="none">
		<path d="M34.9572 20.9684C34.6398 17.498 33.0666 14.6801 30.5027 12.4116C29.2424 11.289 27.8135 10.375 26.2692 9.70355C25.5738 10.8248 24.5857 11.7315 23.413 12.3241C23.851 12.3989 24.2744 12.4923 24.7471 12.6022C25.0856 12.6556 25.3644 12.8355 25.4001 13.2391C25.4435 13.7252 25.0953 14.0393 24.6226 13.9149C21.753 13.1584 18.8747 13.2517 15.9954 13.8478C15.5777 13.9343 15.271 13.8964 15.1272 13.4588C14.9951 13.0504 15.2237 12.7043 15.706 12.5905C16.1565 12.4835 16.5992 12.396 17.067 12.3192C15.6229 11.585 14.4689 10.3782 13.7942 8.89648C13.0277 9.09333 12.2778 9.35084 11.5515 9.6666C11.4181 9.70662 11.2752 9.7008 11.1454 9.65007C8.49474 8.76327 5.8595 8.93149 3.23582 9.77258C3.07377 9.82412 2.8307 9.98651 2.82973 10.0993C2.82973 10.2656 2.97924 10.4688 3.11911 10.5952C4.11167 11.4878 5.13991 12.3455 6.11415 13.2556C6.73534 13.839 6.70737 13.8769 6.25401 14.577C5.33476 15.9996 4.44155 17.4416 3.47407 18.8302C2.84806 19.7393 2.07253 20.4948 0.965187 20.8488C0.307339 21.0588 0.000600596 21.5936 0.0102465 22.32C0.0256798 23.761 0.0343611 25.204 0.000600596 26.6431C-0.0129036 27.2149 0.201234 27.6155 0.651696 27.9072C0.942593 28.1084 1.26148 28.265 1.59795 28.372C4.05186 29.0312 6.04759 30.4353 7.76069 32.2731C8.53236 33.1064 9.18635 34.0379 9.47959 35.161C9.6262 35.7211 9.6725 36.3074 9.76028 36.8831C9.88375 37.7076 10.1779 37.9877 10.9959 37.9945C12.2177 38.0042 13.4395 38.0023 14.6613 37.9887C15.3983 37.9818 15.7397 37.6201 15.7475 36.8704C15.7533 36.357 15.7475 35.8436 15.7475 35.2719C18.4285 35.8011 21.1924 35.7281 23.8423 35.058C23.8423 35.724 23.8317 36.3366 23.8423 36.9492C23.8529 37.5618 24.2194 37.977 24.8213 37.9848C26.139 38.0029 27.4572 38.0029 28.7761 37.9848C29.3337 37.978 29.6443 37.659 29.7407 37.0892C29.7783 36.8658 29.8043 36.6405 29.8188 36.4144C29.9529 33.9738 30.7477 31.7752 32.1184 29.7615C33.4544 27.7992 34.5704 25.7281 34.9157 23.3235L34.9852 22.2772C35.0082 21.8408 34.9989 21.4033 34.9572 20.9684ZM7.74912 20.7059C7.5091 20.7049 7.27473 20.6324 7.07546 20.4975C6.87619 20.3627 6.72091 20.1714 6.62916 19.9478C6.5374 19.7243 6.51326 19.4783 6.55977 19.241C6.60627 19.0036 6.72135 18.7854 6.89054 18.6138C7.05972 18.4421 7.27546 18.3248 7.51063 18.2764C7.7458 18.228 7.98991 18.2508 8.21227 18.3419C8.43463 18.433 8.62532 18.5883 8.76036 18.7883C8.89541 18.9883 8.96878 19.2241 8.97125 19.4661C8.9695 19.793 8.84042 20.1061 8.61182 20.338C8.38323 20.5699 8.07341 20.702 7.74912 20.7059Z" fill="currentColor"/>
		<path d="M20.2483 0C19.086 1.57811e-08 17.9497 0.347448 16.9832 0.99841C16.0167 1.64937 15.2634 2.57461 14.8186 3.65714C14.3737 4.73966 14.2573 5.93086 14.484 7.08009C14.7107 8.22933 15.2703 9.285 16.0922 10.1136C16.914 10.9422 17.9611 11.5066 19.1011 11.7353C20.2411 11.964 21.4228 11.8468 22.4968 11.3985C23.5707 10.9503 24.4887 10.191 25.1346 9.21686C25.7805 8.24269 26.1253 7.09733 26.1255 5.92559C26.1255 4.35419 25.5064 2.84714 24.4042 1.73591C23.302 0.624673 21.8071 0.000257859 20.2483 0ZM21.3624 8.62584C21.1573 8.75767 20.9317 8.85366 20.6949 8.90977V9.72851C20.695 9.75778 20.6894 9.7868 20.6784 9.81387C20.6673 9.84094 20.651 9.86554 20.6305 9.88625C20.61 9.90695 20.5856 9.92334 20.5587 9.93449C20.5319 9.94563 20.5031 9.95131 20.474 9.95118H19.8712C19.8126 9.95118 19.7564 9.92772 19.715 9.88596C19.6735 9.8442 19.6503 9.78756 19.6503 9.72851V8.96812C19.1333 8.92339 18.6143 8.75322 18.2825 8.51499C18.253 8.49435 18.2289 8.46689 18.2121 8.43492C18.1953 8.40295 18.1864 8.36739 18.186 8.33122C18.1864 8.30608 18.1907 8.28116 18.1986 8.25732L18.4253 7.61945C18.4365 7.58749 18.4548 7.55855 18.4788 7.53481C18.5028 7.51108 18.5319 7.49318 18.5638 7.48249C18.5957 7.4718 18.6296 7.46859 18.6629 7.47312C18.6963 7.47764 18.7281 7.48978 18.7561 7.5086C19.1295 7.75297 19.5649 7.88362 20.0101 7.8849C20.557 7.8849 20.9245 7.59319 20.9245 7.16535C20.9245 6.77641 20.6525 6.50026 19.984 6.22702C19.0956 5.876 18.2709 5.40537 18.2709 4.35522C18.2709 3.50148 18.8304 2.83833 19.712 2.62344V1.82902C19.712 1.7697 19.7354 1.71282 19.777 1.67088C19.8186 1.62894 19.875 1.60537 19.9339 1.60537H20.5252C20.584 1.60537 20.6404 1.62894 20.682 1.67088C20.7236 1.71282 20.747 1.7697 20.747 1.82902V2.55246C21.1456 2.58412 21.5321 2.70504 21.8785 2.9064C21.9237 2.9329 21.9582 2.97465 21.9758 3.02429C21.9935 3.07393 21.9932 3.12826 21.9749 3.17769L21.7367 3.81264C21.7256 3.84252 21.7084 3.86968 21.6861 3.89231C21.6638 3.91494 21.637 3.93253 21.6074 3.94391C21.5772 3.95502 21.545 3.9593 21.513 3.95644C21.481 3.95359 21.45 3.94366 21.4222 3.92738C21.0919 3.72894 20.7138 3.626 20.3293 3.62984C19.7506 3.62984 19.5393 3.94197 19.5393 4.23465C19.5393 4.54775 19.6908 4.75097 20.5859 5.12533C21.3383 5.43357 22.2026 5.93726 22.2026 7.09145C22.2043 7.35487 22.1481 7.61539 22.038 7.8543C21.9279 8.09321 21.7667 8.30457 21.5659 8.47318C21.5017 8.52881 21.4337 8.57982 21.3624 8.62584Z" fill="currentColor"/>
	</symbol>
	<symbol xmlns="http://www.w3.org/2000/svg" id="question" viewBox="0 0 35 35" fill="none">
		<path d="M17.5004 0C7.83551 0 0 7.83551 0 17.5004C0 27.1653 7.83551 35 17.5004 35C27.1653 35 35 27.1653 35 17.5004C35 7.83551 27.1653 0 17.5004 0ZM18.9386 27.1438C18.5326 27.5484 17.9827 27.7756 17.4095 27.7756C16.8363 27.7756 16.2865 27.5484 15.8804 27.1438C15.6719 26.9418 15.5062 26.6999 15.393 26.4326C15.2798 26.1652 15.2215 25.8779 15.2215 25.5876C15.2215 25.2973 15.2798 25.0099 15.393 24.7426C15.5062 24.4752 15.6719 24.2334 15.8804 24.0313C16.2868 23.6266 16.8369 23.3994 17.4104 23.3994C17.9839 23.3994 18.534 23.6266 18.9403 24.0313C19.1487 24.2335 19.3144 24.4755 19.4275 24.7429C19.5407 25.0103 19.599 25.2976 19.599 25.588C19.599 25.8783 19.5407 26.1657 19.4275 26.4331C19.3144 26.7005 19.1487 26.9425 18.9403 27.1447L18.9386 27.1438ZM23.1058 14.3991C22.4596 15.2367 21.7392 15.8899 20.9654 16.3414C20.2857 16.7384 19.6544 17.2129 19.0843 17.7555C18.587 18.2286 18.3458 18.693 18.3458 19.1773C18.3458 19.5582 18.5397 19.8943 18.9386 20.2053C19.0142 20.2638 19.0731 20.341 19.1095 20.4292C19.146 20.5175 19.1587 20.6138 19.1464 20.7085C19.1342 20.8032 19.0973 20.8931 19.0395 20.9691C18.9817 21.0452 18.9051 21.1048 18.8171 21.142L16.9989 21.9175C16.9307 21.9464 16.8575 21.9613 16.7835 21.9615C16.6537 21.9618 16.5281 21.9156 16.4293 21.8314C15.5288 21.0696 15.0721 20.1166 15.0721 18.9981C15.0665 18.3354 15.2277 17.682 15.5409 17.098C15.8232 16.5627 16.2103 16.0898 16.6792 15.7072C17.0825 15.3858 17.5237 15.0454 17.9916 14.6973C18.4595 14.3492 18.8895 14.0269 19.2842 13.7287C19.6245 13.4723 19.9164 13.1572 20.1459 12.7981C20.3549 12.4786 20.4646 12.1044 20.4613 11.7227C20.4672 11.4239 20.4055 11.1276 20.2807 10.856C20.156 10.5844 19.9714 10.3445 19.7409 10.1544C19.2394 9.72351 18.4828 9.49861 17.491 9.49861C15.7288 9.49861 14.3216 10.2268 13.1884 11.7261C13.1399 11.7899 13.078 11.8423 13.0071 11.8796C12.9362 11.917 12.858 11.9384 12.778 11.9423C12.6979 11.9462 12.618 11.9326 12.5438 11.9024C12.4696 11.8722 12.4028 11.8262 12.3483 11.7675L10.8575 10.1578C10.7693 10.0626 10.7177 9.93907 10.712 9.80935C10.7064 9.67962 10.7469 9.5521 10.8265 9.44949C12.4982 7.29005 14.8205 6.19568 17.7296 6.19568C19.6254 6.19568 21.1687 6.68427 22.3294 7.64938C23.5186 8.63949 24.1218 9.88982 24.1218 11.3651C24.1366 12.4628 23.7784 13.5331 23.1058 14.4009V14.3991Z" fill="currentColor"/>
	</symbol>
	<symbol xmlns="http://www.w3.org/2000/svg" id="basket" viewBox="0 0 39 39" fill="none">
		<path d="M13.6897 25.2349C13.8193 25.7898 13.875 26.2719 14.0594 26.6963C14.1333 26.8662 14.4924 26.9987 14.7238 27.0006C17.1368 27.0246 19.5507 27.0198 21.9637 27.0227C25.6201 27.0275 29.2755 27.0294 32.9319 27.04C33.3121 27.041 33.7029 27.0439 34.0697 27.1274C34.7313 27.2781 35.1394 27.8888 35.101 28.5725C35.0616 29.26 34.5882 29.7823 33.9007 29.8793C33.7125 29.9062 33.5195 29.9043 33.3284 29.9043C26.7099 29.8947 20.0903 29.8851 13.4717 29.8735C12.1496 29.8716 11.7847 29.5893 11.4726 28.3161C9.79038 21.4584 8.1014 14.6027 6.44892 7.73829C6.27993 7.03543 6.02356 6.75698 5.27077 6.80019C4.08013 6.86836 2.88182 6.81939 1.68734 6.80403C0.71371 6.7925 0.130875 6.26632 0.117432 5.41943C0.103029 4.55046 0.725232 3.95034 1.6931 3.94554C3.48482 3.9369 5.27749 3.93786 7.0692 3.95899C8.10813 3.97147 8.52773 4.31906 8.7889 5.33014C9.0155 6.20775 9.26323 7.08344 9.42262 7.97354C9.53497 8.60246 9.78366 8.80506 10.4491 8.8041C19.1705 8.78298 27.8928 8.84251 36.6142 8.77433C39.0253 8.75609 39.3162 9.80654 38.7535 11.6213C37.7789 14.764 36.9704 17.9585 36.0909 21.13C35.7654 22.3053 35.4553 22.5434 34.2675 22.6894C28.249 23.4287 22.2325 24.1806 16.215 24.9276C15.4113 25.0284 14.6067 25.1235 13.6897 25.2349Z" fill="currentColor"/>
		<path d="M27.7696 33.7503C27.7782 32.1669 29.0303 30.9216 30.5916 30.9436C32.1173 30.9657 33.3617 32.2236 33.3617 33.7455C33.3617 35.2914 32.0539 36.5886 30.5234 36.5608C28.9871 36.5329 27.7609 35.2818 27.7696 33.7503Z" fill="currentColor"/>
		<path d="M18.9136 33.7447C18.9164 35.2897 17.697 36.5379 16.1665 36.5581C14.6177 36.5782 13.3329 35.307 13.3281 33.7495C13.3233 32.2171 14.5485 30.9755 16.0896 30.9525C17.6672 30.9285 18.9107 32.1585 18.9136 33.7447Z" fill="currentColor"/>
	</symbol>
	<symbol xmlns="http://www.w3.org/2000/svg" id="cross1" viewBox="0 0 16 16" fill="none">
		<path d="M1 1L14.5 14.5" stroke="currentColor" stroke-width="2" stroke-linecap="round"/>
		<path d="M1 14.5L14.5 0.999999" stroke="currentColor" stroke-width="2" stroke-linecap="round"/>
	</symbol>
</svg>