<svg width="14" height="17" viewBox="0 0 14 17" fill="none" xmlns="http://www.w3.org/2000/svg">
<path d="M13.9938 6.79435C13.9938 4.58151 13.5262 2.90079 12.517 1.73921C11.5078 0.577631 9.47719 8.62028e-05 7.59422 8.62028e-05C5.70415 -0.00771473 3.84603 0.514076 2.20993 1.51208C2.15872 1.54402 2.11639 1.58963 2.08722 1.64432C2.05805 1.699 2.04307 1.76083 2.04378 1.82357L2.18531 4.26353C2.19789 4.33944 2.22936 4.41046 2.27652 4.46932C2.32367 4.52818 2.38481 4.57276 2.45368 4.59851C2.52255 4.62426 2.59666 4.63025 2.66845 4.61586C2.74023 4.60147 2.80709 4.56722 2.8622 4.51661C5.16975 3.01759 7.93882 2.73856 9.34797 3.49131C9.73564 3.72694 10.0551 4.06956 10.2719 4.48232C10.4888 4.89508 10.5948 5.36237 10.5787 5.83394V6.19084H6.73274C5.07745 6.19084 0.00698091 6.83977 0.00698091 11.7521V11.8041C-0.0324747 12.5516 0.0957291 13.2984 0.381191 13.9839C0.666652 14.6694 1.10133 15.2743 1.64996 15.7495C2.84835 16.6398 4.29697 17.0766 5.76049 16.989H13.5446C13.6654 16.989 13.7812 16.9384 13.8666 16.8483C13.952 16.7583 14 16.6361 14 16.5088V6.77488L13.9938 6.79435ZM10.5787 13.9909H5.98201C5.39224 13.9731 4.82234 13.7622 4.35134 13.3874C4.10906 13.208 3.91223 12.9687 3.77812 12.6903C3.64401 12.412 3.57672 12.1032 3.58215 11.7911C3.58215 10.915 4.14212 9.16293 6.94196 9.16293H10.5787V13.9909Z" fill="#A68264"/>
</svg>
