<svg width="31" height="34" viewBox="0 0 31 34" fill="none" xmlns="http://www.w3.org/2000/svg">
<path d="M0.750002 7C0.750002 6.86193 0.86193 6.75 1 6.75H20C20.1381 6.75 20.25 6.86193 20.25 7V19C20.25 21.3472 18.3472 23.25 16 23.25H5.00004C2.65283 23.25 0.750036 21.3472 0.75003 19L0.750002 7Z" stroke="#FCF8F2" stroke-width="1.5" stroke-linejoin="round"/>
<path d="M16 10V6C16 3.23858 13.7614 1 11 1H10C7.23858 1 5 3.23858 5 6V10" stroke="#FCF8F2" stroke-width="1.5" stroke-linecap="round" stroke-linejoin="round"/>
<circle cx="21" cy="24" r="10" fill="#6B4424"/>
<path d="M16.333 27V26.388L18.898 23.913C19.126 23.697 19.294 23.508 19.402 23.346C19.516 23.178 19.591 23.025 19.627 22.887C19.669 22.743 19.69 22.605 19.69 22.473C19.69 22.149 19.576 21.894 19.348 21.708C19.12 21.522 18.787 21.429 18.349 21.429C18.013 21.429 17.71 21.486 17.44 21.6C17.17 21.708 16.936 21.879 16.738 22.113L16.126 21.582C16.366 21.276 16.687 21.042 17.089 20.88C17.497 20.712 17.944 20.628 18.43 20.628C18.868 20.628 19.249 20.7 19.573 20.844C19.897 20.982 20.146 21.183 20.32 21.447C20.5 21.711 20.59 22.023 20.59 22.383C20.59 22.587 20.563 22.788 20.509 22.986C20.455 23.184 20.353 23.394 20.203 23.616C20.053 23.838 19.837 24.087 19.555 24.363L17.269 26.568L17.053 26.217H20.86V27H16.333ZM24.084 27.072C23.64 27.072 23.208 27.003 22.788 26.865C22.374 26.727 22.035 26.541 21.771 26.307L22.185 25.596C22.395 25.794 22.668 25.956 23.004 26.082C23.34 26.208 23.697 26.271 24.075 26.271C24.555 26.271 24.924 26.169 25.182 25.965C25.44 25.761 25.569 25.488 25.569 25.146C25.569 24.912 25.512 24.708 25.398 24.534C25.284 24.36 25.086 24.228 24.804 24.138C24.528 24.042 24.147 23.994 23.661 23.994H22.23L22.563 20.7H26.118V21.483H22.896L23.364 21.042L23.103 23.643L22.635 23.211H23.85C24.48 23.211 24.987 23.292 25.371 23.454C25.755 23.616 26.034 23.841 26.208 24.129C26.382 24.411 26.469 24.738 26.469 25.11C26.469 25.47 26.382 25.8 26.208 26.1C26.034 26.394 25.77 26.631 25.416 26.811C25.068 26.985 24.624 27.072 24.084 27.072Z" fill="#FCF8F2"/>
</svg>
