<svg width="134" height="114" viewBox="0 0 134 114" fill="none" xmlns="http://www.w3.org/2000/svg">
<g clip-path="url(#clip0_264_2910)">
<path d="M98.545 76.4883C98.545 77.0391 99.0947 77.3145 99.6443 77.3145C108.164 76.4883 116.41 75.3868 124.93 74.0099C127.129 74.5607 131.251 73.4592 132.076 76.4883C132.076 77.0391 131.801 77.8652 131.251 78.1406C127.678 80.0682 123.831 80.8943 120.258 82.2712C118.883 82.5466 117.784 83.0973 116.41 83.3727C114.809 84.134 113.156 84.7783 111.463 85.3003C100.194 88.6049 90.0248 92.7355 78.2065 95.2139H76.8323C74.3587 96.04 72.16 95.7646 69.6864 95.7646C61.1662 95.7646 52.6461 95.7646 44.1259 96.04C42.202 96.04 40.0033 95.7646 38.0794 96.5907C36.1555 97.4169 33.9567 98.243 32.0328 99.3445C32.0328 99.6199 30.9334 100.171 32.5825 100.997C34.5064 100.721 35.8806 99.3445 37.8045 98.7938C40.2781 97.9676 43.0266 97.9676 45.5001 97.6922H69.6864C71.3354 97.6922 72.9845 97.9676 74.6336 97.6922C82.3292 96.8661 89.2003 94.3877 96.3462 91.9094C97.1707 91.634 98.2701 91.634 99.0947 91.3586C110.088 87.7787 120.532 84.4742 131.251 80.3436C132.049 80.0611 132.74 79.5397 133.232 78.85C133.724 78.1603 133.992 77.3358 134 76.4883C133.725 75.1114 133.175 73.4592 131.526 72.9084C128.491 72.0329 125.299 71.8447 122.182 72.3577C116.135 73.4592 110.638 74.0099 104.866 74.8361C103.477 74.8839 102.097 75.0684 100.744 75.3868C99.9192 75.3868 98.8198 74.8361 98.545 76.4883Z" fill="#A68264"/>
<path d="M17.8654 84.7799C19.1132 87.0765 20.4215 89.3043 21.694 91.477C24.2033 95.7508 26.5725 99.7906 28.5074 104.254C28.5065 104.261 28.5065 104.267 28.5074 104.274C25.8304 106.265 23.2854 107.73 20.5672 109.277C19.0638 110.136 17.5109 111.026 15.9278 112.017C15.8819 112.05 15.8275 112.069 15.7711 112.072C15.4426 111.988 15.1567 111.785 14.9686 111.502C14.5921 110.803 14.2183 110.09 13.8692 109.398C12.6544 107.116 11.4204 104.756 9.70808 102.374C9.57529 102.135 9.47104 101.882 9.39751 101.619C9.22558 101.037 8.97498 100.481 8.65268 99.9669C8.37784 99.5207 8.10299 99.0774 7.84739 98.6423V95.7646C7.84739 93.5892 8.31462 91.8818 9.31505 90.4168C9.41675 90.3232 9.52668 90.2323 9.64212 90.1414C10.0314 89.843 10.3774 89.4918 10.67 89.0978C11.9338 88.1989 13.2591 87.39 14.636 86.6772C15.6997 86.0934 16.799 85.4876 17.8654 84.7854M42.2716 70.2731C40.6816 70.278 39.0952 70.4226 37.5305 70.7054C35.3318 71.2562 33.133 71.5316 30.9343 72.3577C25.9871 74.2853 21.8644 77.5898 17.4669 80.3436C17.0354 79.2614 16.2631 78.5178 15.2847 78.5178C14.9958 78.5209 14.7102 78.5798 14.4436 78.6913C9.77129 80.619 5.64864 83.3727 1.25114 86.4018C0.701454 86.6772 -0.397921 87.5033 0.151766 88.8802C2.07567 93.2862 4.54926 96.8661 7.02286 100.997C7.57254 101.823 7.57254 102.649 8.12223 103.475C10.321 106.504 11.6952 109.533 13.3443 112.563C13.9352 113.353 14.8092 114 15.7601 114C16.1693 113.997 16.5697 113.881 16.9172 113.664C21.3147 110.91 25.4374 108.983 29.8349 105.678C30.1097 105.403 30.6594 104.577 30.3846 103.751C27.0864 96.04 22.4141 89.431 18.5663 81.9958C22.9638 79.2421 27.0864 75.9376 32.0336 74.0099C35.1036 72.8597 38.3563 72.2766 41.6339 72.2888C42.288 72.2888 42.9358 72.3118 43.5771 72.3577C49.0739 72.6331 53.7463 75.6622 58.9683 77.3145C62.0108 78.3912 65.1715 79.2421 68.2965 79.2421C69.986 79.2525 71.6648 78.9731 73.2602 78.416C78.2074 76.4883 83.1545 75.6622 88.3766 75.1114C86.4527 75.9376 84.2539 76.4883 83.7042 78.6913C82.8797 81.1697 83.4294 83.9235 85.3533 86.1265C83.4294 87.5033 81.5055 88.0541 79.3067 88.3295C73.3103 89.3798 67.25 90.0238 61.1671 90.2571C60.6174 90.2571 59.7928 90.2571 59.2431 90.8079C59.1388 90.9163 59.0599 91.0468 59.0124 91.1897C58.9648 91.3327 58.9498 91.4845 58.9683 91.634C58.9683 92.1847 59.518 92.4601 60.0677 92.4601C66.6639 91.9094 72.7105 91.3586 79.3067 90.5325C85.0784 89.7064 89.2011 85.8511 94.1483 83.3727C94.9197 82.8753 95.5757 82.218 96.0722 81.4451C97.4464 78.9667 96.6219 75.3868 93.8734 74.0099C92.3947 73.3868 90.8053 73.0702 89.2011 73.0792C88.6498 73.0797 88.099 73.1146 87.552 73.1838C82.0552 74.0099 76.8331 74.5607 71.8859 77.0391C70.894 77.1851 69.8927 77.2578 68.8902 77.2566C62.5413 77.2566 56.426 74.4643 50.723 72.0823C48.0748 70.8577 45.1881 70.2379 42.2716 70.2676V70.2731ZM87.0023 85.025C85.3533 83.3727 85.3533 81.1697 85.3533 78.9667C87.552 77.5898 89.7508 76.7637 91.9495 75.3868C93.3238 75.6622 94.1483 77.0391 94.698 78.1406C94.9728 78.9667 94.698 80.0682 93.8734 80.8943C91.6747 82.5466 89.4759 83.6481 87.0023 85.025ZM5.92348 95.7646C5.09895 93.5616 3.72473 91.9094 2.62536 89.9817C2.35052 89.431 2.07567 88.8802 2.07567 88.3295C2.10452 88.1207 2.20109 87.9271 2.35052 87.7787C6.74801 85.3003 10.5958 82.5466 14.9933 80.3436C15.8179 81.1697 16.0927 82.2712 16.9172 83.0973C14.4436 84.7496 11.6952 85.8511 9.22161 87.7787C8.94676 88.3295 8.39708 88.6049 7.84739 89.1556C6.47317 91.0832 5.92348 93.2862 5.92348 95.7646Z" fill="#A68264"/>
<path d="M66.1145 66.024C65.29 66.8502 66.3894 67.6763 67.2139 67.6763C69.1419 67.722 71.0707 67.63 72.9856 67.4009C74.085 67.1256 75.4592 66.8502 76.5586 66.2994C78.7573 65.7487 80.6812 65.1979 82.6051 64.0964C84.2542 63.2703 85.6284 62.1688 87.2775 61.0673C93.5989 56.6613 97.7215 50.3276 99.9203 42.8925V41.791C101.844 36.0081 101.02 30.2252 99.6454 24.167C99.6454 23.6162 99.0958 23.0655 98.8209 22.5147C93.5989 6.54292 76.5586 -2.81985 60.068 0.760036C48.5245 3.23842 39.7295 11.2243 35.6069 21.6886C34.2327 24.9931 33.9578 28.2976 33.4081 31.6021C33.1333 36.2835 33.9578 40.9649 35.332 45.3709C35.6566 45.9909 35.9323 46.6354 36.1566 47.2985C36.1566 47.5739 36.4314 47.8493 36.7063 48.1246C36.7063 48.4 36.7063 48.9508 36.9811 49.2261C39.1798 53.0814 41.6534 56.3859 44.9516 59.415C45.0598 59.5196 45.19 59.5986 45.3327 59.6463C45.4754 59.6939 45.6269 59.709 45.7761 59.6904C46.3258 59.6904 46.6006 59.1397 46.6006 58.5889C45.7761 56.6613 43.8522 55.8352 42.478 54.1829C40.3175 51.4162 38.5594 48.3566 37.2559 45.0955C36.1566 42.0664 35.6069 39.0372 35.332 35.7327C35.0417 29.0453 36.7654 22.425 40.2792 16.7318C47.1503 5.7168 59.7931 0.209285 72.4359 2.41229C73.2605 2.68767 74.085 2.96304 75.1844 3.23842C85.0787 5.16605 92.7744 12.3258 96.6222 21.4132C98.5505 26.121 99.396 31.2035 99.0958 36.2835C98.2712 44.5448 94.6983 52.5306 87.8272 58.0382C87.5523 58.3135 87.5523 58.5889 87.2775 58.8643C84.8039 60.7919 82.0555 62.1688 79.307 63.5457C77.658 64.3718 76.0089 64.6472 74.085 65.1979C71.3366 65.7487 68.863 65.7487 66.1145 66.024Z" fill="#A68264"/>
<path d="M69.4457 52.2938L68.6212 52.09C68.2167 52.0236 67.8049 52.0153 67.3981 52.0653C66.6093 52.1148 65.7133 52.1727 64.8503 51.7403L64.4573 51.5421L64.3474 51.1125C64.1487 50.1951 64.0492 49.2589 64.0505 48.3202C63.5002 48.2455 62.9639 48.0896 62.4592 47.8575C62.2805 47.7832 62.1101 47.7143 61.9535 47.662L61.7391 47.5904L61.5769 47.4307C61.2257 47.1764 60.849 46.9595 60.4528 46.7836L60.3264 46.7065C58.2348 45.2112 56.4621 42.3252 57.5093 39.5247L57.7429 38.8996H62.3025L62.5774 39.431C63.4486 41.1797 64.078 42.2646 65.3643 42.4794C65.8288 42.4794 66.285 42.5125 66.7385 42.5428C67.5558 42.6348 68.3814 42.6228 69.1956 42.507C70.6138 42.0801 71.4246 40.6454 71.2212 38.9271C71.0969 38.4276 70.8248 37.9774 70.4406 37.6356C70.2235 37.4483 69.7948 37.1454 69.3413 37.2363L69.2478 37.2556H69.1379C63.6025 37.2556 59.3672 35.0801 57.8088 31.4396L57.7923 31.3983C56.9678 29.176 57.0613 26.7362 58.0837 24.346L58.1277 24.2578C59.5926 21.617 61.849 19.9868 64.4106 19.6838C64.4106 19.4553 64.3941 19.2267 64.3803 18.9899C64.2687 18.1098 64.3686 17.2157 64.6717 16.3821L64.9685 15.6386L65.7546 15.7955C66.222 15.8687 66.6969 15.8798 67.1673 15.8286C68.0457 15.7182 68.9377 15.8183 69.77 16.1205L70.3747 16.3628V19.5737C70.9229 19.65 71.4571 19.8058 71.9605 20.0363C72.1392 20.1107 72.3096 20.1795 72.4662 20.2318L72.6806 20.3034L72.84 20.4659C73.1935 20.7174 73.571 20.9333 73.9669 21.1103L74.0933 21.1874C76.1849 22.6827 77.9576 25.5686 76.9105 28.3692L76.6768 28.9943H72.1172L71.8423 28.4628C70.9711 26.7142 70.3417 25.6292 69.0554 25.4144C68.5909 25.4144 68.1347 25.3814 67.6812 25.3511C66.864 25.259 66.0384 25.2711 65.2241 25.3869C64.5072 25.6216 63.9009 26.1114 63.5201 26.7638C63.1398 27.3619 63.0077 28.0852 63.1518 28.7795C63.5998 29.6772 64.0313 30.5034 64.6799 30.6658H64.7102C66.4582 31.167 68.3986 30.6218 70.4819 31.2166L70.5231 31.2303C73.4942 32.2217 75.4703 33.9263 76.5944 36.4349L76.6164 36.4873C77.4409 38.7096 77.3475 41.1494 76.325 43.5396L76.2811 43.6278C74.8162 46.2686 72.5597 47.8988 69.9981 48.2017C69.9981 48.4303 70.0146 48.6589 70.0284 48.8957C70.14 49.7758 70.0401 50.6699 69.737 51.5035L69.4457 52.2938ZM66.1146 50.1376C66.5019 50.1792 66.8926 50.1792 67.2799 50.1376C67.5548 50.1211 67.8434 50.1018 68.132 50.1046C68.1647 49.7446 68.1647 49.3824 68.132 49.0224C68.0683 48.3796 68.0915 47.7313 68.2007 47.0947L68.3546 46.3209H69.1379C71.3586 46.3209 73.2935 45.0459 74.5935 42.741C75.1597 41.4027 75.6462 39.3705 74.8436 37.1977C73.9504 35.204 72.3948 33.8932 69.9542 33.0671C68.2144 32.5769 66.285 33.1139 64.2154 32.5164C62.6983 32.1281 62.0167 30.7512 61.4065 29.5395L61.3653 29.4569L61.3406 29.3716C60.6535 26.9593 62.2476 24.2165 64.7514 23.4978L64.8256 23.4813C65.8179 23.319 66.8276 23.2931 67.8269 23.4042C68.2831 23.4345 68.7119 23.462 69.1379 23.462H69.2753C71.4548 23.7732 72.48 25.4199 73.3045 27.0419H75.2642C75.4758 25.4585 74.3874 23.7677 73.0352 22.7736C72.5498 22.5543 72.0891 22.2838 71.6609 21.9667C71.5125 21.9116 71.3696 21.8538 71.2294 21.796C70.5836 21.5206 70.1631 21.3774 69.6436 21.5206L68.448 21.818V17.7424C68.0614 17.7039 67.672 17.7039 67.2854 17.7424C66.9776 17.7617 66.6451 17.7838 66.2878 17.7727C66.255 18.1337 66.255 18.4968 66.2878 18.8577C66.3528 19.5004 66.3296 20.149 66.219 20.7854L66.0651 21.5592H65.2901C63.0693 21.5592 61.1344 22.8341 59.8344 25.139C59.2682 26.4801 58.779 28.5124 59.5871 30.6906C61.412 34.9176 67.1865 35.3059 69.0554 35.3169C69.5313 35.2537 70.0153 35.2981 70.4719 35.4467C70.9285 35.5954 71.346 35.8446 71.6939 36.1761C72.4092 36.8005 72.9038 37.6399 73.1039 38.5691V38.6407C73.4419 41.3366 72.0265 43.6911 69.6656 44.3685L69.5914 44.385C68.5991 44.5473 67.5894 44.5732 66.5901 44.4621C66.1338 44.4319 65.7051 44.4043 65.2791 44.4043H65.1417C62.9622 44.0904 61.937 42.4436 61.1152 40.8244H59.1528C58.9412 42.4078 60.0296 44.0987 61.3818 45.0928C61.8672 45.312 62.3279 45.5825 62.756 45.8996C62.9044 45.9547 63.0474 46.0125 63.1875 46.0703C63.8334 46.3457 64.2567 46.4889 64.7734 46.3457L65.9689 46.0483V47.2985C65.9467 48.2472 65.9954 49.1962 66.1146 50.1376Z" fill="#A68264"/>
<path d="M67.0755 11.3179C68.6524 11.3155 70.2263 11.4556 71.7781 11.7365C73.9708 12.2293 76.0941 12.9924 78.0995 14.0084C79.9972 15.245 81.7972 16.6259 83.4837 18.139C87.7685 22.735 89.9975 28.3692 89.7639 34.0116V34.0805C89.7575 37.3078 89.0563 40.4957 87.708 43.4267C86.357 46.3989 84.3044 48.997 81.7274 50.9968L81.623 51.0767L81.5323 51.1675C81.301 51.398 81.1064 51.6627 80.9551 51.9524L80.8232 52.035C78.1352 53.7533 75.997 55.1192 73.2733 55.8407C72.2939 55.9122 71.3273 56.1055 70.3956 56.4162C69.3237 56.5181 68.3261 56.5677 67.3559 56.5677C65.779 56.5701 64.2051 56.43 62.6533 56.1491C60.4606 55.6563 58.3373 54.8932 56.3319 53.8772C54.309 52.6022 52.7452 51.2997 50.9257 49.7466C47.8777 46.6762 46.0225 43.0908 44.9149 38.1478C44.3487 34.119 44.5054 30.7347 45.3986 27.8074C47.2511 22.5753 49.4306 19.3066 52.6792 16.9163L52.7974 16.831L52.9211 16.7318C53.1438 16.4952 53.3292 16.2259 53.4708 15.9332L53.6027 15.8506C56.2907 14.1323 58.429 12.7664 61.1527 12.0449C62.132 11.9734 63.0986 11.78 64.0303 11.4694C65.1022 11.3675 66.0998 11.3179 67.07 11.3179M67.07 9.39031C65.9102 9.39031 64.7723 9.45915 63.6345 9.57206C62.7495 9.8871 61.8239 10.0726 60.8861 10.1228C57.5879 10.9489 55.1143 12.6012 52.0911 14.5288C51.8162 14.8042 51.8162 15.0796 51.5414 15.3549C47.4187 18.3841 45.22 22.5147 43.5709 27.1961C42.4715 30.776 42.4715 34.6312 43.0212 38.4865C44.1206 43.4433 46.0445 47.5739 49.6175 51.1538C51.5414 52.806 53.1904 54.1829 55.3892 55.5598C57.5672 56.6703 59.8755 57.503 62.2603 58.0382C63.9379 58.3442 65.6397 58.4972 67.3449 58.4953C68.5047 58.4953 69.6426 58.4264 70.7804 58.3135C71.6654 57.9985 72.5911 57.813 73.5289 57.7628C76.827 56.9367 79.3006 55.2844 82.3239 53.3568C82.5987 53.0814 82.5987 52.806 82.8735 52.5307C88.6453 48.1246 91.6685 40.9649 91.6685 34.0805C91.9434 27.4715 89.195 21.4132 84.7975 16.7318C82.8735 15.0796 81.2245 13.7027 79.0257 12.3258C76.8477 11.2152 74.5394 10.3826 72.1546 9.84743C70.4771 9.54136 68.7752 9.38835 67.07 9.39031Z" fill="#A68264"/>
</g>
<defs>
<clipPath id="clip0_264_2910">
<rect width="134" height="114" fill="white"/>
</clipPath>
</defs>
</svg>
