<svg width="116" height="116" viewBox="0 0 116 116" fill="none" xmlns="http://www.w3.org/2000/svg">
<path d="M29.5523 34.7641C30.2666 38.5731 29.5523 42.144 29.7904 45.953H24.0762C24.3142 42.382 23.8381 38.5731 23.8381 35.0021C25.7459 35.0417 27.6544 34.9622 29.5523 34.7641ZM29.5523 33.0977C27.1714 33.3357 24.7904 32.3835 22.6476 33.5738C22.4095 33.8118 22.1714 34.526 22.1714 35.0021C22.1714 39.0492 21.6952 42.8582 22.4095 46.9052C22.6476 47.1433 22.8857 47.6194 23.1238 47.6194C25.7428 47.6194 28.1238 48.0955 30.7428 47.3813C30.8664 47.373 30.9827 47.3201 31.0702 47.2326C31.1578 47.145 31.2107 47.0287 31.219 46.9052C31.9333 42.8582 31.4571 39.0492 31.4571 35.0021C31.4571 33.8118 30.7428 33.3357 29.5523 33.0977Z" fill="#987253"/>
<path d="M32.8857 81.4243C27.4095 81.4243 22.1714 81.4243 16.6952 81.6624C16.6096 81.7361 16.5409 81.8275 16.4938 81.9302C16.4467 82.0329 16.4224 82.1445 16.4224 82.2575C16.4224 82.3705 16.4467 82.4822 16.4938 82.5849C16.5409 82.6876 16.6096 82.7789 16.6952 82.8527C17.6476 83.5669 18.6 83.0907 19.5523 83.0907C24.3143 83.3288 28.8381 83.3288 33.6 82.8527C33.7294 82.7244 33.8131 82.5571 33.8381 82.3766C33.8381 81.9004 33.8381 81.6624 32.8857 81.4243Z" fill="#987253"/>
<path d="M32.8857 88.0899C29.0762 87.8518 25.2666 88.566 21.4571 88.0899C20.9809 88.0899 20.5047 88.0899 20.5047 89.0421C20.5297 89.2226 20.6134 89.3899 20.7428 89.5182C21.4571 89.7563 21.9333 89.9944 22.6476 89.9944C26.219 89.7563 29.7904 90.2324 33.6 89.5182C33.7294 89.3899 33.8131 89.2226 33.8381 89.0421C33.8381 88.566 33.8381 88.3279 32.8857 88.0899Z" fill="#987253"/>
<path d="M38.3619 98.8025C37.6483 100.828 36.5163 102.68 35.0395 104.238C33.5627 105.797 31.7742 107.027 29.7904 107.849C22.1714 110.944 12.4095 106.897 10.0285 98.8025H38.3619ZM108.6 98.0884C107.648 101.897 104.79 104.992 101.219 106.897C100.743 107.135 100.029 107.373 99.5523 107.611C96.4571 108.563 93.1238 108.801 90.0285 107.611C87.6476 106.659 85.5047 105.468 83.8381 103.326C83.5223 102.717 83.1214 102.155 82.6476 101.659C81.6952 100.469 81.4571 99.2787 80.9809 98.0884H108.6ZM38.6 17.6237C29.3143 17.6237 20.0285 17.3857 10.7428 17.8618C9.55235 17.8618 8.59997 19.0521 8.59997 20.2424C8.59997 22.623 8.12378 25.0036 8.83807 27.1462C9.07616 27.3842 9.79045 27.6223 10.0285 27.1462C10.9809 24.7656 9.79045 22.1469 10.5047 19.5282C12.1714 19.0521 13.8381 19.2902 15.5047 19.2902C15.5047 21.4327 15.0285 23.5753 15.2666 25.7178C14.0762 25.4797 12.4095 25.7178 12.4095 26.9081C11.219 36.4305 11.9333 45.7149 11.9333 54.9993C11.9333 56.1896 12.1714 57.856 13.3619 58.5702C22.1714 59.2844 31.219 58.5702 40.0285 58.8083C40.0285 60.7128 40.5047 62.6173 41.9333 63.8076C34.7904 63.8076 27.4095 63.8076 20.2666 64.2837C19.5 64.556 18.6981 64.7164 17.8857 64.7598C12.1714 66.1882 7.64759 69.521 4.07616 74.5203C2.1714 77.6151 0.980924 80.4718 0.266638 84.0428C-0.447647 89.2801 0.0285432 95.2316 4.79045 98.3264C5.74283 98.8025 6.9333 98.8025 8.12378 98.8025C8.83807 101.421 10.2666 103.564 12.1714 105.706C14.7904 108.325 17.8857 109.753 21.4571 110.468C24.8585 110.968 28.332 110.472 31.4571 109.039C33.5454 108.023 35.404 106.591 36.9189 104.83C38.4338 103.07 39.573 101.019 40.2666 98.8025C41.0806 98.5891 41.9324 98.564 42.7575 98.729C43.5827 98.894 44.3593 99.2448 45.0285 99.7548C46.219 101.183 47.8857 102.373 49.7904 102.612C55.7428 102.85 61.9333 102.373 67.8857 102.373C70.5047 102.373 72.4095 100.469 74.3143 98.8025C75.7428 97.8503 77.4095 98.0884 79.0762 98.0884C79.5523 99.0406 79.7904 100.231 80.2666 101.183C81.219 102.85 82.4095 104.278 83.6 105.706C87.1714 109.277 92.1714 110.706 97.1714 109.991C100.309 109.513 103.239 108.133 105.606 106.02C107.973 103.907 109.675 101.151 110.505 98.0884C112.648 98.3264 114.79 97.6122 115.743 95.7077C117.409 86.6614 110.743 77.6151 101.933 75.2345C98.3619 74.2823 95.0285 74.2823 91.4571 74.5203C91.2045 74.5203 90.9623 74.6206 90.7837 74.7992C90.6051 74.9778 90.5047 75.22 90.5047 75.4726C90.5047 75.7251 90.6051 75.9673 90.7837 76.1459C90.9623 76.3245 91.2045 76.4248 91.4571 76.4248C97.6476 75.7106 104.076 76.6629 108.838 80.948C112.648 84.5189 114.79 89.5182 114.314 94.7555C114.076 95.4697 113.362 96.1839 112.648 96.1839C108.124 96.4219 103.6 96.4219 99.0762 96.4219C90.9809 95.9458 82.8857 95.9458 74.7904 96.898C73.3619 96.898 72.4095 98.3264 71.4571 99.2787C70.5047 99.9928 69.3143 100.707 67.8857 100.707C61.9333 100.707 55.7428 101.183 49.7904 100.945C48.8381 100.945 48.1238 100.469 47.4095 99.7548C46.219 98.5645 45.0285 97.3742 43.6 97.3742C30.9809 96.4219 18.3619 97.6122 5.74283 96.898C5.26664 96.898 4.79045 96.4219 4.55235 96.1839C4.31426 95.4697 3.83807 94.9936 3.36188 94.5174C1.69521 91.8988 2.88569 88.5659 3.83807 85.9472C4.79045 83.8047 5.74283 81.9002 7.4095 80.2338C8.12378 79.5196 8.83807 79.0435 9.55235 78.0912C10.9809 76.6629 12.8857 75.7106 14.7904 74.7584C15.7428 74.2823 16.9333 74.0442 17.8857 73.8061C19.5524 73.0919 21.219 72.6158 22.8857 72.6158C25.2666 72.6158 27.6476 72.3778 30.2666 72.8539C34.5523 73.8061 38.3619 75.4726 41.6952 78.3293C41.789 78.4197 41.9018 78.488 42.0254 78.5292C42.149 78.5704 42.2802 78.5834 42.4095 78.5674C42.8857 78.5674 43.3619 78.0912 43.1238 77.6151C41.219 74.7584 37.6476 73.5681 34.7904 72.6158C26.219 69.283 16.6952 70.4733 9.31426 76.1867C5.74283 79.0435 2.88569 82.8524 1.69521 87.1376C1.69521 83.3286 2.88569 79.9957 4.79045 76.6629C8.12378 70.9494 13.8381 67.3785 20.2666 65.9501C32.8857 65.2359 45.5047 65.474 58.1238 64.9979C58.6 64.9979 59.0762 65.474 59.0762 65.7121C56.9333 70.7113 54.3143 75.4726 51.9333 80.2338C51.219 81.9002 50.7428 83.8047 51.4571 85.7092C52.4095 87.3756 53.3619 89.2801 55.2666 89.9943C55.9809 90.2323 56.9333 90.7085 57.6476 90.7085C63.1238 90.4704 68.6 90.9465 74.0762 89.9943C75.7428 89.7562 76.9333 88.804 77.6476 87.1376C80.7428 78.5674 83.8381 70.4733 86.219 61.665C87.1714 58.5702 86.9333 55.4754 85.9809 52.3806C84.7777 48.8004 83.823 45.1415 83.1238 41.4298L82.4095 40.0015C82.3157 39.9111 82.2029 39.8428 82.0793 39.8016C81.9557 39.7604 81.8245 39.7473 81.6952 39.7634C81.4765 39.8749 81.2936 40.0457 81.1673 40.2561C81.041 40.4666 80.9764 40.7083 80.9809 40.9537C82.4095 45.953 83.8381 50.7142 84.7904 55.9516C85.2666 58.3322 85.0285 60.7128 84.3143 63.0934C81.4571 70.7113 79.0762 78.3293 76.4571 85.9472C75.7428 87.6137 74.0762 88.804 72.4095 88.804C67.4095 88.804 62.6476 89.2801 57.6476 88.804C54.5523 88.804 51.9333 84.995 53.1238 81.9002C55.5047 76.4248 58.1238 71.4255 60.7428 66.1882C60.7428 64.7598 59.5523 63.3314 58.1238 63.3314C54.0762 63.5695 50.0285 63.5695 45.9809 63.8076C45.1367 63.7929 44.3129 63.5457 43.6 63.0934C40.5047 60.7128 41.9333 56.9038 41.6952 53.809C44.7904 50.9523 47.6476 47.8575 50.9809 45.0007C51.0713 44.907 51.1397 44.7942 51.1808 44.6706C51.222 44.547 51.2351 44.4158 51.219 44.2866C51.219 43.8104 50.7428 43.5724 50.2666 43.5724C49.7904 43.5724 49.3143 44.0485 48.8381 44.5246L41.6952 51.6665C41.4571 43.0963 40.2666 34.0499 43.3619 25.7178C44.3143 23.3372 47.1714 21.4327 50.0285 22.1469C58.3619 24.2894 65.7428 26.9081 73.8381 29.7648C76.6952 30.7171 79.7904 31.4313 82.4095 32.8596C81.6952 35.2402 79.0762 36.1925 77.1714 37.3828C75.2666 38.097 73.3619 38.097 71.4571 37.8589C65.5047 36.9067 59.7904 35.7164 53.8381 35.0022C53.3619 35.0022 53.1238 35.4783 52.8857 35.7164C52.8857 36.1925 53.3619 36.6686 53.6 36.6686C55.0285 36.6686 56.219 37.3828 57.6476 37.1447C57.8857 41.4298 57.1714 45.4769 57.4095 49.762C57.6476 50.7142 58.6 51.6665 59.5523 52.1426C63.6 53.5709 67.4095 54.9993 71.4571 56.1896C72.8857 56.6657 73.8381 57.856 74.3143 59.5225C74.5524 60.4747 74.0762 61.427 73.8381 62.1411C70.0285 69.9972 66.219 77.377 62.4095 85.2331C62.1714 85.4711 62.4095 85.9472 62.6476 86.1853C62.8857 86.4234 63.3619 86.6614 63.8381 85.9472C68.1238 77.8532 71.9333 69.9972 75.7428 61.9031C76.6952 59.2844 75.0285 56.1896 72.8857 54.9993C71.219 54.2851 69.3143 53.809 67.6476 53.0948C65.0285 52.1426 62.1714 51.6665 59.5523 50.2381C59.2544 49.9123 59.0851 49.4892 59.0762 49.0478C59.0762 45.2388 59.5523 41.4298 59.3143 37.6209C64.7904 38.097 69.7904 40.0015 75.2666 39.5253C79.0762 39.0492 82.8857 36.6686 84.0762 33.0977H96.4571C98.8381 34.0499 98.3619 37.1447 96.6952 38.5731C96.219 38.8112 95.9809 39.2873 95.5047 39.7634C94.3143 40.4776 93.1238 41.4298 91.6952 41.4298H88.3619C88.1238 41.4298 87.6476 41.6679 87.6476 41.906C88.3619 47.1433 90.5047 51.9045 91.9333 57.1419C92.8857 61.427 94.0762 65.2359 95.2666 69.521C95.5047 70.4733 96.219 71.9016 96.9333 70.9494C97.6476 69.9972 96.9333 68.8068 96.6952 67.8546C94.3143 59.5225 91.9333 51.4284 89.5523 43.0963C94.0762 43.5724 98.3619 40.7156 99.7904 36.4305C100.505 34.288 98.6 31.6693 96.4571 31.6693C92.1714 31.1932 87.6476 31.4313 83.3619 31.4313C83.1238 31.4313 83.1238 30.9551 82.8857 30.9551C80.5047 30.241 78.1238 29.2887 75.5047 28.5745C67.1714 25.7178 58.8381 22.8611 50.5047 20.2424C47.4095 20.2424 44.3143 19.7663 41.219 19.5282C40.9809 18.3379 39.7904 17.8618 38.6 17.6237ZM17.1714 57.1419C17.1714 44.5246 16.6952 31.9074 16.9333 19.2902C24.3143 19.5282 31.6952 18.814 39.3143 19.5282C39.5652 19.7905 39.7311 20.1224 39.7904 20.4805C39.7904 32.6216 39.7904 45.0007 40.0285 57.1419H17.1714ZM41.219 25.9559C41.219 24.2894 41.6952 22.8611 41.4571 21.1946C42.6476 21.6708 43.6 21.1946 44.7904 21.6708C43.1238 22.623 42.1714 24.2894 41.219 25.9559ZM14.7904 57.1419C13.6 57.1419 13.6 55.7135 13.6 54.9993C13.6 45.953 12.8857 36.9067 14.0762 27.6223C14.0762 27.3842 15.0285 27.3842 15.0285 27.3842C15.5047 37.3828 15.7428 47.1433 15.5047 57.1419H14.7904Z" fill="#987253"/>
<path d="M56.4571 19.0522C59.0762 19.2903 61.219 18.1 63.1238 16.4335C65.0285 14.529 66.219 11.9104 65.9809 9.05364C65.7428 4.29242 61.6952 0.245383 56.9333 0.00732169C50.9809 -0.230739 45.7428 5.0066 46.9333 11.1962C47.8857 15.7193 51.9333 19.2903 56.4571 19.0522ZM54.3143 1.91181C56.6952 0.959566 59.0762 1.91181 61.219 3.34018C62.5043 4.25813 63.4705 5.55465 63.9828 7.04853C64.4951 8.5424 64.5277 10.159 64.0762 11.6723C63.3619 13.8149 62.1714 15.7193 60.0285 16.6716C56.9333 18.1 53.1238 17.6238 50.7428 15.2432C49.6049 14.0151 48.8607 12.4745 48.6061 10.8198C48.3515 9.16516 48.5981 7.47215 49.3143 5.95885C50.2666 4.05436 52.4095 2.86405 54.3143 1.91181Z" fill="#987253"/>
<path d="M36.9333 25.2417C31.4571 25.2417 25.9809 25.2417 20.5047 25.4798C20.4191 25.5535 20.3504 25.6449 20.3034 25.7476C20.2563 25.8503 20.2319 25.9619 20.2319 26.0749C20.2319 26.1879 20.2563 26.2996 20.3034 26.4023C20.3504 26.505 20.4191 26.5963 20.5047 26.6701C20.9809 27.1462 21.6952 27.1462 22.1714 27.1462C27.1714 27.1462 32.1714 27.1462 37.4095 26.6701C37.5389 26.5418 37.6226 26.3745 37.6476 26.1939C37.6476 25.7178 37.6476 25.4798 36.9333 25.2417Z" fill="#987253"/>
<path d="M75.2666 21.4328C75.7428 21.9089 76.6952 22.6231 76.6952 21.9089C77.4095 20.0045 76.4571 18.1 75.9809 16.1955V15.0052C75.2666 15.0052 75.7428 13.5768 74.3143 14.7671C74.0762 17.1477 75.2666 19.0522 75.2666 21.4328Z" fill="#987253"/>
<path d="M94.0761 27.8605C94.2054 27.8766 94.3366 27.8636 94.4602 27.8224C94.5838 27.7812 94.6966 27.7129 94.7904 27.6225C96.219 25.718 98.3618 24.5277 99.0761 22.3851C99.0761 22.1471 98.838 21.4329 98.3618 21.671C96.219 22.6232 95.0285 24.7658 93.3618 26.9083C93.3618 27.1464 93.3618 27.6225 94.0761 27.8605Z" fill="#987253"/>
<path d="M68.8381 109.039C68.3619 108.801 68.1238 108.563 67.6476 108.801C67.4892 108.95 67.3812 109.145 67.3385 109.358C67.2959 109.572 67.3207 109.793 67.4095 109.992C68.3619 111.896 69.3143 113.562 70.0285 115.467C70.5047 116.419 71.4571 115.943 71.4571 115.229C71.4571 112.848 69.7904 111.182 68.8381 109.039Z" fill="#987253"/>
<path d="M49.5523 108.325C49.1109 108.334 48.6877 108.503 48.3619 108.801C47.6476 110.706 46.4571 112.372 45.7428 114.277C45.5047 114.753 45.7428 115.467 46.219 115.229C48.6 114.753 48.6 111.42 50.0285 109.516C50.2666 109.277 50.0285 108.801 49.5523 108.325Z" fill="#987253"/>
</svg>
