<svg width="118" height="118" viewBox="0 0 118 118" fill="none" xmlns="http://www.w3.org/2000/svg">
<path d="M30.5521 35.7647C31.2664 39.5737 30.5521 43.1446 30.7902 46.9536H25.0759C25.314 43.3826 24.8378 39.5737 24.8378 36.0028C26.7456 36.0423 28.6541 35.9628 30.5521 35.7647ZM30.5521 34.0983C28.1711 34.3363 25.7902 33.3841 23.6473 34.5744C23.4092 34.8125 23.1711 35.5266 23.1711 36.0028C23.1711 40.0498 22.6949 43.8588 23.4092 47.9058C23.6473 48.1439 23.8854 48.62 24.1235 48.62C26.7425 48.62 29.1235 49.0961 31.7425 48.3819C31.8661 48.3736 31.9824 48.3207 32.07 48.2332C32.1575 48.1456 32.2104 48.0293 32.2187 47.9058C32.933 43.8588 32.4568 40.0498 32.4568 36.0028C32.4568 34.8125 31.7425 34.3363 30.5521 34.0983Z" fill="#A68264" stroke="#A68264" stroke-width="0.1"/>
<path d="M33.8852 82.4247C28.409 82.4247 23.1709 82.4247 17.6947 82.6627C17.6091 82.7365 17.5404 82.8278 17.4933 82.9305C17.4462 83.0333 17.4219 83.1449 17.4219 83.2579C17.4219 83.3709 17.4462 83.4825 17.4933 83.5852C17.5404 83.688 17.6091 83.7793 17.6947 83.853C18.6471 84.5672 19.5995 84.0911 20.5519 84.0911C25.3138 84.3292 29.8376 84.3292 34.5995 83.853C34.7289 83.7247 34.8126 83.5574 34.8376 83.3769C34.8376 82.9008 34.8376 82.6627 33.8852 82.4247Z" fill="#A68264" stroke="#A68264" stroke-width="0.1"/>
<path d="M33.8849 89.0904C30.0753 88.8523 26.2658 89.5665 22.4563 89.0904C21.9801 89.0904 21.5039 89.0904 21.5039 90.0426C21.5289 90.2231 21.6126 90.3904 21.742 90.5187C22.4563 90.7568 22.9325 90.9949 23.6468 90.9949C27.2182 90.7568 30.7896 91.2329 34.5991 90.5187C34.7286 90.3904 34.8122 90.2231 34.8372 90.0426C34.8372 89.5665 34.8372 89.3284 33.8849 89.0904Z" fill="#A68264" stroke="#A68264" stroke-width="0.1"/>
<path d="M39.3615 99.803C38.6479 101.828 37.5159 103.68 36.0391 105.239C34.5623 106.797 32.7738 108.028 30.7901 108.849C23.171 111.944 13.4091 107.897 11.0282 99.803H39.3615ZM109.6 99.0888C108.647 102.898 105.79 105.993 102.219 107.897C101.742 108.135 101.028 108.373 100.552 108.611C97.4567 109.564 94.1234 109.802 91.0282 108.611C88.6472 107.659 86.5044 106.469 84.8377 104.326C84.5219 103.717 84.1211 103.156 83.6472 102.66C82.6948 101.469 82.4567 100.279 81.9806 99.0888H109.6ZM39.5996 18.6242C30.3139 18.6242 21.0282 18.3862 11.7425 18.8623C10.552 18.8623 9.5996 20.0526 9.5996 21.2429C9.5996 23.6235 9.12341 26.0041 9.8377 28.1467C10.0758 28.3847 10.7901 28.6228 11.0282 28.1467C11.9806 25.766 10.7901 23.1474 11.5044 20.5287C13.171 20.0526 14.8377 20.2906 16.5044 20.2906C16.5044 22.4332 16.0282 24.5757 16.2663 26.7183C15.0758 26.4802 13.4091 26.7183 13.4091 27.9086C12.2187 37.431 12.9329 46.7154 12.9329 55.9998C12.9329 57.1901 13.171 58.8565 14.3615 59.5707C23.171 60.2849 32.2187 59.5707 41.0282 59.8088C41.0282 61.7133 41.5044 63.6177 42.9329 64.8081C35.7901 64.8081 28.4091 64.8081 21.2663 65.2842C20.4996 65.5565 19.6977 65.7169 18.8853 65.7603C13.171 67.1887 8.64722 70.5215 5.0758 75.5208C3.17103 78.6156 1.98056 81.4723 1.26627 85.0432C0.551987 90.2806 1.02818 96.2321 5.79008 99.3269C6.74246 99.803 7.93294 99.803 9.12341 99.803C9.8377 102.422 11.2663 104.564 13.171 106.707C15.7901 109.325 18.8853 110.754 22.4567 111.468C25.8581 111.969 29.3317 111.473 32.4567 110.04C34.5451 109.023 36.4036 107.591 37.9185 105.831C39.4334 104.07 40.5726 102.019 41.2663 99.803C42.0802 99.5896 42.9321 99.5645 43.7572 99.7295C44.5823 99.8945 45.3589 100.245 46.0282 100.755C47.2187 102.184 48.8853 103.374 50.7901 103.612C56.7425 103.85 62.9329 103.374 68.8853 103.374C71.5044 103.374 73.4091 101.469 75.3139 99.803C76.7425 98.8508 78.4091 99.0888 80.0758 99.0888C80.552 100.041 80.7901 101.231 81.2663 102.184C82.2187 103.85 83.4091 105.278 84.5996 106.707C88.171 110.278 93.171 111.706 98.171 110.992C101.308 110.513 104.239 109.134 106.606 107.02C108.973 104.907 110.675 102.151 111.504 99.0888C113.647 99.3269 115.79 98.6127 116.742 96.7082C118.409 87.6619 111.742 78.6156 102.933 76.235C99.3615 75.2827 96.0282 75.2827 92.4567 75.5208C92.2042 75.5208 91.9619 75.6211 91.7833 75.7997C91.6047 75.9783 91.5044 76.2205 91.5044 76.473C91.5044 76.7256 91.6047 76.9678 91.7833 77.1464C91.9619 77.325 92.2042 77.4253 92.4567 77.4253C98.6472 76.7111 105.076 77.6633 109.838 81.9484C113.647 85.5194 115.79 90.5186 115.314 95.756C115.076 96.4702 114.362 97.1844 113.647 97.1844C109.123 97.4224 104.6 97.4224 100.076 97.4224C91.9806 96.9463 83.8853 96.9463 75.7901 97.8985C74.3615 97.8985 73.4091 99.3269 72.4567 100.279C71.5044 100.993 70.3139 101.708 68.8853 101.708C62.9329 101.708 56.7425 102.184 50.7901 101.946C49.8377 101.946 49.1234 101.469 48.4091 100.755C47.2187 99.565 46.0282 98.3747 44.5996 98.3747C31.9806 97.4224 19.3615 98.6127 6.74246 97.8985C6.26627 97.8985 5.79008 97.4224 5.55199 97.1844C5.31389 96.4702 4.8377 95.994 4.36151 95.5179C2.69484 92.8993 3.88532 89.5664 4.8377 86.9477C5.79008 84.8052 6.74246 82.9007 8.40913 81.2343C9.12341 80.5201 9.8377 80.044 10.552 79.0917C11.9806 77.6633 13.8853 76.7111 15.7901 75.7589C16.7425 75.2827 17.9329 75.0447 18.8853 74.8066C20.552 74.0924 22.2187 73.6163 23.8853 73.6163C26.2663 73.6163 28.6472 73.3783 31.2663 73.8544C35.552 74.8066 39.3615 76.473 42.6948 79.3298C42.7886 79.4202 42.9014 79.4885 43.025 79.5297C43.1486 79.5709 43.2799 79.5839 43.4091 79.5678C43.8853 79.5678 44.3615 79.0917 44.1234 78.6156C42.2187 75.7589 38.6472 74.5686 35.7901 73.6163C27.2187 70.2835 17.6948 71.4738 10.3139 77.1872C6.74246 80.044 3.88532 83.8529 2.69484 88.138C2.69484 84.3291 3.88532 80.9962 5.79008 77.6633C9.12341 71.9499 14.8377 68.379 21.2663 66.9506C33.8853 66.2364 46.5044 66.4745 59.1234 65.9984C59.5996 65.9984 60.0758 66.4745 60.0758 66.7125C57.9329 71.7118 55.3139 76.473 52.9329 81.2343C52.2187 82.9007 51.7425 84.8052 52.4567 86.7097C53.4091 88.3761 54.3615 90.2806 56.2663 90.9948C56.9806 91.2328 57.9329 91.709 58.6472 91.709C64.1234 91.4709 69.5996 91.947 75.0758 90.9948C76.7425 90.7567 77.9329 89.8045 78.6472 88.138C81.7425 79.5678 84.8377 71.4738 87.2187 62.6655C88.171 59.5707 87.9329 56.4759 86.9806 53.3811C85.7773 49.8009 84.8226 46.142 84.1234 42.4303L83.4091 41.002C83.3153 40.9115 83.2025 40.8432 83.0789 40.8021C82.9554 40.7609 82.8241 40.7478 82.6948 40.7639C82.4762 40.8754 82.2933 41.0461 82.167 41.2566C82.0407 41.4671 81.9761 41.7088 81.9806 41.9542C83.4091 46.9535 84.8377 51.7147 85.7901 56.952C86.2663 59.3326 86.0282 61.7133 85.3139 64.0939C82.4567 71.7118 80.0758 79.3298 77.4567 86.9477C76.7425 88.6142 75.0758 89.8045 73.4091 89.8045C68.4091 89.8045 63.6472 90.2806 58.6472 89.8045C55.552 89.8045 52.9329 85.9955 54.1234 82.9007C56.5044 77.4253 59.1234 72.426 61.7425 67.1887C61.7425 65.7603 60.552 64.3319 59.1234 64.3319C55.0758 64.57 51.0282 64.57 46.9806 64.8081C46.1363 64.7933 45.3125 64.5462 44.5996 64.0939C41.5044 61.7133 42.9329 57.9043 42.6948 54.8095C45.7901 51.9528 48.6472 48.858 51.9806 46.0012C52.071 45.9075 52.1393 45.7947 52.1805 45.6711C52.2217 45.5475 52.2347 45.4163 52.2187 45.287C52.2187 44.8109 51.7425 44.5729 51.2663 44.5729C50.7901 44.5729 50.3139 45.049 49.8377 45.5251L42.6948 52.6669C42.4567 44.0967 41.2663 35.0504 44.3615 26.7183C45.3139 24.3377 48.171 22.4332 51.0282 23.1474C59.3615 25.2899 66.7425 27.9086 74.8377 30.7653C77.6948 31.7176 80.7901 32.4318 83.4091 33.8601C82.6948 36.2407 80.0758 37.193 78.171 38.3833C76.2663 39.0975 74.3615 39.0975 72.4567 38.8594C66.5044 37.9072 60.7901 36.7169 54.8377 36.0027C54.3615 36.0027 54.1234 36.4788 53.8853 36.7169C53.8853 37.193 54.3615 37.6691 54.5996 37.6691C56.0282 37.6691 57.2187 38.3833 58.6472 38.1452C58.8853 42.4303 58.171 46.4774 58.4091 50.7625C58.6472 51.7147 59.5996 52.6669 60.552 53.1431C64.5996 54.5714 68.4091 55.9998 72.4567 57.1901C73.8853 57.6662 74.8377 58.8565 75.3139 60.523C75.552 61.4752 75.0758 62.4274 74.8377 63.1416C71.0282 70.9976 67.2187 78.3775 63.4091 86.2336C63.171 86.4716 63.4091 86.9477 63.6472 87.1858C63.8853 87.4239 64.3615 87.6619 64.8377 86.9477C69.1234 78.8537 72.9329 70.9976 76.7425 62.9036C77.6948 60.2849 76.0282 57.1901 73.8853 55.9998C72.2187 55.2856 70.3139 54.8095 68.6472 54.0953C66.0282 53.1431 63.171 52.6669 60.552 51.2386C60.254 50.9127 60.0848 50.4897 60.0758 50.0483C60.0758 46.2393 60.552 42.4303 60.3139 38.6213C65.7901 39.0975 70.7901 41.002 76.2663 40.5258C80.0758 40.0497 83.8853 37.6691 85.0758 34.0982H97.4567C99.8377 35.0504 99.3615 38.1452 97.6948 39.5736C97.2187 39.8116 96.9806 40.2878 96.5044 40.7639C95.3139 41.4781 94.1234 42.4303 92.6948 42.4303H89.3615C89.1234 42.4303 88.6472 42.6684 88.6472 42.9064C89.3615 48.1438 91.5044 52.905 92.9329 58.1423C93.8853 62.4274 95.0758 66.2364 96.2663 70.5215C96.5044 71.4738 97.2187 72.9021 97.9329 71.9499C98.6472 70.9976 97.9329 69.8073 97.6948 68.8551C95.3139 60.523 92.9329 52.4289 90.552 44.0967C95.0758 44.5729 99.3615 41.7161 100.79 37.431C101.504 35.2885 99.5996 32.6698 97.4567 32.6698C93.171 32.1937 88.6472 32.4318 84.3615 32.4318C84.1234 32.4318 84.1234 31.9556 83.8853 31.9556C81.5044 31.2414 79.1234 30.2892 76.5044 29.575C68.171 26.7183 59.8377 23.8616 51.5044 21.2429C48.4091 21.2429 45.3139 20.7668 42.2187 20.5287C41.9806 19.3384 40.7901 18.8623 39.5996 18.6242ZM18.171 58.1423C18.171 45.5251 17.6948 32.9079 17.9329 20.2906C25.3139 20.5287 32.6948 19.8145 40.3139 20.5287C40.5648 20.791 40.7307 21.1229 40.7901 21.4809C40.7901 33.6221 40.7901 46.0012 41.0282 58.1423H18.171ZM42.2187 26.9563C42.2187 25.2899 42.6948 23.8616 42.4567 22.1951C43.6472 22.6713 44.5996 22.1951 45.7901 22.6713C44.1234 23.6235 43.171 25.2899 42.2187 26.9563ZM15.7901 58.1423C14.5996 58.1423 14.5996 56.714 14.5996 55.9998C14.5996 46.9535 13.8853 37.9072 15.0758 28.6228C15.0758 28.3847 16.0282 28.3847 16.0282 28.3847C16.5044 38.3833 16.7425 48.1438 16.5044 58.1423H15.7901Z" fill="#A68264" stroke="#A68264" stroke-width="0.1"/>
<path d="M57.4577 20.0527C60.0767 20.2908 62.2196 19.1004 64.1243 17.434C66.0291 15.5295 67.2196 12.9109 66.9815 10.0541C66.7434 5.29291 62.6958 1.24587 57.9339 1.00781C51.9815 0.769749 46.7434 6.00709 47.9339 12.1967C48.8862 16.7198 52.9339 20.2908 57.4577 20.0527ZM55.3148 2.9123C57.6958 1.96005 60.0767 2.9123 62.2196 4.34066C63.5048 5.25862 64.4711 6.55514 64.9833 8.04902C65.4956 9.54289 65.5282 11.1595 65.0767 12.6728C64.3624 14.8154 63.172 16.7198 61.0291 17.6721C57.9339 19.1004 54.1243 18.6243 51.7434 16.2437C50.6054 15.0156 49.8612 13.475 49.6066 11.8203C49.352 10.1656 49.5987 8.47264 50.3148 6.95934C51.2672 5.05485 53.41 3.86454 55.3148 2.9123Z" fill="#A68264" stroke="#A68264" stroke-width="0.1"/>
<path d="M37.9338 26.2422C32.4576 26.2422 26.9815 26.2422 21.5053 26.4802C21.4197 26.554 21.351 26.6453 21.3039 26.7481C21.2568 26.8508 21.2324 26.9624 21.2324 27.0754C21.2324 27.1884 21.2568 27.3 21.3039 27.4027C21.351 27.5055 21.4197 27.5968 21.5053 27.6706C21.9815 28.1467 22.6957 28.1467 23.1719 28.1467C28.1719 28.1467 33.1719 28.1467 38.41 27.6706C38.5395 27.5423 38.6231 27.375 38.6481 27.1944C38.6481 26.7183 38.6481 26.4802 37.9338 26.2422Z" fill="#A68264" stroke="#A68264" stroke-width="0.1"/>
<path d="M76.2671 22.4333C76.7433 22.9094 77.6956 23.6236 77.6956 22.9094C78.4099 21.0049 77.4575 19.1005 76.9814 17.196V16.0057C76.2671 16.0057 76.7433 14.5773 75.3147 15.7676C75.0766 18.1482 76.2671 20.0527 76.2671 22.4333Z" fill="#A68264" stroke="#A68264" stroke-width="0.1"/>
<path d="M95.0756 28.8609C95.2049 28.877 95.3361 28.8639 95.4597 28.8228C95.5833 28.7816 95.6961 28.7133 95.7899 28.6229C97.2185 26.7184 99.3613 25.5281 100.076 23.3855C100.076 23.1474 99.8375 22.4333 99.3613 22.6713C97.2185 23.6236 96.028 25.7661 94.3613 27.9087C94.3613 28.1467 94.3613 28.6229 95.0756 28.8609Z" fill="#A68264" stroke="#A68264" stroke-width="0.1"/>
<path d="M69.8383 110.04C69.3621 109.802 69.124 109.564 68.6478 109.802C68.4894 109.951 68.3814 110.145 68.3387 110.359C68.296 110.572 68.3208 110.793 68.4097 110.992C69.3621 112.896 70.3144 114.563 71.0287 116.467C71.5049 117.42 72.4573 116.943 72.4573 116.229C72.4573 113.849 70.7906 112.182 69.8383 110.04Z" fill="#A68264" stroke="#A68264" stroke-width="0.1"/>
<path d="M50.5514 109.326C50.1099 109.335 49.6868 109.504 49.3609 109.802C48.6466 111.706 47.4561 113.373 46.7418 115.277C46.5037 115.753 46.7418 116.467 47.218 116.229C49.599 115.753 49.599 112.42 51.0276 110.516C51.2657 110.278 51.0276 109.802 50.5514 109.326Z" fill="#A68264" stroke="#A68264" stroke-width="0.1"/>
</svg>
