<svg width="10" height="17" viewBox="0 0 10 17" fill="none" xmlns="http://www.w3.org/2000/svg">
<path d="M2.79427 6.12397C2.79427 5.38276 2.7721 4.67644 2.7988 3.97219C2.84405 2.75553 3.2604 1.67631 4.31936 0.876554C5.04888 0.325527 5.91053 0.0576957 6.84143 0.0211544C7.74653 -0.0145564 8.65163 0.00537521 9.55673 0.00703618C9.86899 0.00703618 9.9948 0.127041 9.99661 0.41605C10.0011 1.22577 10.0011 2.0355 9.99661 2.84522C9.99661 3.15582 9.87532 3.2725 9.53229 3.27998C8.90641 3.29368 8.28054 3.2887 7.65466 3.30448C7.48235 3.30916 7.31204 3.33974 7.15052 3.395C6.91519 3.47805 6.75454 3.662 6.7482 3.88457C6.72829 4.60834 6.74051 5.33293 6.74051 6.08037H6.97357C7.76553 6.08037 8.5575 6.08037 9.34901 6.08037C9.77757 6.08037 9.90519 6.19872 9.9061 6.5878C9.90791 7.42493 9.90791 8.26233 9.9061 9.10001C9.9061 9.46958 9.79975 9.57048 9.39833 9.57214C8.51631 9.57588 7.63339 9.57214 6.72422 9.57214C6.71833 9.66724 6.70838 9.75319 6.70838 9.83915C6.70838 12.0056 6.70838 14.1718 6.70838 16.3377C6.70838 16.9344 6.63552 17 5.97977 17C5.11238 17 4.245 17 3.37761 17C2.90334 17 2.78929 16.897 2.78929 16.4602C2.78929 14.2663 2.78929 12.0725 2.78929 9.87859V9.61076C2.69471 9.60578 2.61551 9.5983 2.53586 9.5983C1.87967 9.5983 1.22347 9.5983 0.567724 9.5983C0.117437 9.5983 0.00429923 9.49449 0.00248903 9.08216C-0.000829675 8.26552 -0.000829675 7.44887 0.00248903 6.63223C0.00248903 6.22238 0.119699 6.12314 0.572702 6.12231C1.22136 6.12231 1.87001 6.12231 2.51867 6.12231L2.79427 6.12397Z" fill="#A68264"/>
</svg>
