<svg width="19" height="19" viewBox="0 0 19 19" fill="none" xmlns="http://www.w3.org/2000/svg">
<path d="M13.2307 0H5.04343C3.7065 0.00142982 2.42472 0.533063 1.47924 1.47829C0.533763 2.42351 0.00178801 3.70515 0 5.04207V13.2294C0.0014305 14.5662 0.533103 15.8478 1.47837 16.7931C2.42363 17.7383 3.70527 18.27 5.04207 18.2714H13.2294C14.566 18.2696 15.8475 17.7379 16.7927 16.7927C17.7379 15.8475 18.2696 14.5661 18.2714 13.2294V5.04207C18.2696 3.70538 17.7379 2.42395 16.7927 1.47876C15.8475 0.533578 14.566 0.00178726 13.2294 0H13.2307ZM16.6515 13.2307C16.6505 14.1376 16.2897 15.0071 15.6484 15.6484C15.0071 16.2897 14.1376 16.6505 13.2307 16.6515H5.04343C4.13626 16.6508 3.26643 16.2902 2.62484 15.6489C1.98325 15.0076 1.62232 14.1379 1.62124 13.2307V5.04342C1.62232 4.13649 1.98307 3.26702 2.62436 2.62572C3.26566 1.98442 4.13514 1.62367 5.04207 1.6226H13.2294C14.1363 1.62367 15.0058 1.98442 15.6471 2.62572C16.2884 3.26702 16.6491 4.13649 16.6502 5.04342L16.6515 13.2307Z" fill="#A68264"/>
<path d="M9.13573 4.43115C8.20451 4.43115 7.29419 4.70729 6.51991 5.22466C5.74562 5.74202 5.14214 6.47736 4.78577 7.3377C4.42941 8.19805 4.33617 9.14474 4.51784 10.0581C4.69951 10.9714 5.14795 11.8104 5.80642 12.4688C6.4649 13.1273 7.30385 13.5757 8.21718 13.7574C9.13051 13.9391 10.0772 13.8458 10.9376 13.4895C11.7979 13.1331 12.5332 12.5296 13.0506 11.7553C13.568 10.9811 13.8441 10.0707 13.8441 9.13952C13.8427 7.89122 13.3462 6.69446 12.4635 5.81178C11.5808 4.9291 10.384 4.43258 9.13573 4.43115ZM9.13573 12.2266C8.52516 12.2266 7.9283 12.0456 7.42062 11.7064C6.91295 11.3671 6.51726 10.885 6.28361 10.3209C6.04995 9.75681 5.98881 9.13609 6.10793 8.53725C6.22705 7.93841 6.52107 7.38834 6.95281 6.95659C7.38455 6.52485 7.93462 6.23083 8.53347 6.11172C9.13231 5.9926 9.75303 6.05373 10.3171 6.28739C10.8812 6.52105 11.3634 6.91673 11.7026 7.42441C12.0418 7.93208 12.2229 8.52894 12.2229 9.13952C12.2218 9.95794 11.8962 10.7425 11.3175 11.3213C10.7388 11.9 9.95416 12.2256 9.13573 12.2266Z" fill="#A68264"/>
<path d="M14.0426 3.05322C13.7675 3.05338 13.501 3.14892 13.2885 3.32358C13.0759 3.49823 12.9305 3.74118 12.8771 4.01103C12.8236 4.28088 12.8653 4.56092 12.9952 4.80342C13.1251 5.04593 13.335 5.2359 13.5893 5.34095C13.8435 5.446 14.1263 5.45963 14.3895 5.37952C14.6527 5.29941 14.8799 5.13052 15.0325 4.90163C15.1851 4.67274 15.2536 4.39802 15.2263 4.12428C15.1991 3.85054 15.0777 3.59473 14.883 3.40044C14.6597 3.1783 14.3576 3.05349 14.0426 3.05322Z" fill="#A68264"/>
</svg>
