<svg width="137" height="111" viewBox="0 0 137 111" fill="none" xmlns="http://www.w3.org/2000/svg">
<path d="M34.6283 30.2109C34.5541 30.7496 34.7628 31.293 35.334 31.448C35.5358 31.5031 35.7762 31.4767 35.9926 31.3899C36.5592 31.7883 37.5316 31.524 37.5981 30.6039C37.7249 28.8575 37.8508 27.1118 37.9776 25.3654C38.0936 23.7678 38.3231 22.0136 37.2943 20.6478C36.8421 20.047 36.2036 19.5827 35.4461 19.4804C34.4822 19.3502 33.7378 20.0052 33.4209 20.8741C32.8404 22.4617 33.8816 23.743 34.4428 25.1321C35.0875 26.7281 34.8556 28.5536 34.6283 30.2109ZM35.3418 21.5485C35.3626 21.5632 35.3827 21.578 35.4067 21.595C35.3302 21.733 35.2838 21.8989 35.29 22.0997C35.2676 21.8973 35.3108 21.7338 35.3418 21.5485Z" fill="#987253"/>
<path d="M69.2368 79.5194C68.6571 79.4124 68.0843 79.2675 67.5247 79.0822C67.2511 78.9915 66.9828 78.8892 66.7146 78.783C66.7077 78.7799 66.6999 78.7768 66.693 78.7737C66.6265 78.745 66.56 78.7156 66.4943 78.6853C66.3529 78.621 66.213 78.5536 66.0738 78.4846C65.6031 78.2505 64.963 78.3474 64.7002 78.8504C64.4614 79.3078 64.5619 79.9783 65.0651 80.2279C66.2184 80.8015 67.4412 81.2302 68.7089 81.4635C68.9787 81.5131 69.2392 81.503 69.4827 81.3596C69.6906 81.2364 69.8885 80.9961 69.9426 80.7558C70.0539 80.2612 69.7895 79.6217 69.2368 79.5194Z" fill="#987253"/>
<path d="M74.9738 77.1451C74.8347 76.9304 74.6283 76.7413 74.3717 76.6839C74.1027 76.6234 73.843 76.6544 73.5979 76.7878C73.4681 76.8583 73.356 76.9544 73.24 77.0459C73.1867 77.0877 73.1365 77.1327 73.0909 77.1823C72.9479 77.3373 72.8095 77.5149 72.7191 77.7079C72.6271 77.9032 72.5397 78.1047 72.508 78.3195C72.4864 78.4644 72.4601 78.614 72.4624 78.7621C72.464 78.9163 72.491 79.0714 72.5181 79.2225C72.5498 79.3535 72.6101 79.4675 72.699 79.5644C72.7701 79.6737 72.8644 79.7597 72.9819 79.8233C73.097 79.8969 73.2223 79.9357 73.356 79.9419C73.4897 79.9713 73.6234 79.9651 73.7564 79.9225C73.9991 79.8427 74.2333 79.6907 74.3555 79.4574C74.3887 79.3768 74.4227 79.2969 74.4559 79.2163C74.4853 79.1055 74.4899 78.9954 74.4822 78.8846C74.476 78.8303 74.4814 78.7768 74.483 78.7225C74.4884 78.7008 74.4946 78.6791 74.5008 78.6574C74.5124 78.6365 74.524 78.6164 74.5363 78.5962C74.5541 78.5776 74.5719 78.559 74.5904 78.5419C74.5997 78.5365 74.6082 78.5295 74.6183 78.5241C74.735 78.4605 74.8285 78.3737 74.8996 78.2637C74.9885 78.166 75.048 78.052 75.0782 77.9203C75.1199 77.7862 75.1253 77.6521 75.0952 77.5187C75.0875 77.3854 75.048 77.2606 74.9738 77.1451Z" fill="#987253"/>
<path d="M135.328 90.7654C126.955 92.1824 120.597 84.8137 115.814 79.083C113.028 75.7444 109.958 72.2438 106.306 69.8121C106.487 69.7788 106.666 69.6788 106.825 69.4943C110.623 65.0837 111.983 59.3739 112.377 53.6827C112.52 51.5975 112.557 49.4961 112.517 47.3993C112.953 47.4706 113.39 47.5334 113.824 47.6187C114.468 47.745 115.083 47.3334 115.094 46.6427C115.098 46.3559 115.102 46.0691 115.107 45.7816C115.115 45.2025 114.633 44.8219 114.099 44.777C113.54 44.7304 112.981 44.6878 112.423 44.6491C112.262 41.5856 111.802 38.4749 110.358 35.7309C108.93 33.0147 106.629 30.8249 104.349 28.8274C102.093 26.8515 99.6651 25.0392 97.0323 23.5989C92.4911 21.1146 87.4791 19.9681 82.4176 20.6022C87.6561 15.0567 91.7498 8.52604 94.4637 1.37911C94.851 0.359779 93.4604 -0.196782 92.7809 0.403963C89.8428 3.00228 85.8195 3.79914 82.0373 4.2154C77.578 4.70608 73.0855 4.71615 68.6061 4.80762C61.1971 4.95955 52.5876 5.5944 47.8338 12.1607C45.4855 15.404 44.9127 19.8534 46.7594 23.454C46.856 23.6416 46.9835 23.7664 47.125 23.8478C44.4698 26.3724 42.0164 29.1157 39.8026 32.0574C39.4354 32.5458 39.6325 33.0225 40.0206 33.2868C33.0723 33.4054 26.0567 32.69 19.1517 32.0008C23.5067 30.8342 28.1291 30.4908 32.5992 30.211C33.8847 30.1304 33.887 28.115 32.593 28.1956C25.4646 28.6413 18.01 29.2273 11.6631 32.8279C9.00096 34.3387 6.60628 36.3371 4.7805 38.8083C2.73443 41.5779 1.79217 44.7994 1.32143 48.1783C0.774158 52.1006 0.481199 56.0632 0.413177 60.0227C0.34902 63.7698 0.140316 67.9239 1.54018 71.4725C2.92381 74.9809 5.36797 78.135 7.51066 81.2046C9.47093 84.013 11.4165 86.8501 13.6388 89.4608C15.9918 92.2258 18.759 94.7636 22.0712 96.3139C25.8426 98.079 30.0291 98.4766 34.1413 98.2177C34.2959 98.2076 34.4312 98.1689 34.5487 98.11C35.6517 99.6471 36.9859 101.03 38.3965 102.245C44.3492 107.368 51.7358 109.912 59.5197 110.205C63.7572 110.365 68.1461 110.328 72.3496 109.728C76.189 109.181 79.7362 107.751 82.9618 105.603C83.7224 105.096 84.4622 104.558 85.1841 104C94.0015 104.665 102.684 106.874 110.743 110.523C111.726 110.968 112.83 109.788 111.956 108.937C110.247 107.272 110.215 104.705 110.501 102.48C110.807 100.091 111.471 97.7325 111.284 95.3171C111.444 95.5248 111.686 95.6775 112.006 95.7101C120.072 96.5379 128.969 97.2255 136.108 92.6048C137.107 91.9583 136.429 90.5786 135.328 90.7654ZM41.541 33.069C47.7217 24.8547 55.8975 18.2628 65.1725 13.8777C66.3412 13.325 65.317 11.5902 64.1529 12.1406C58.4569 14.8343 53.2045 18.3566 48.5365 22.5447C48.5218 22.5067 48.5117 22.4695 48.4916 22.4316C46.8916 19.3116 47.7171 15.4335 49.8698 12.7886C52.0419 10.1198 55.2691 8.56712 58.5527 7.77259C62.515 6.8145 66.6458 6.85713 70.697 6.78427C74.9437 6.70753 79.2051 6.62846 83.421 6.06337C86.1604 5.69595 88.879 5.05412 91.3022 3.79062C88.5172 10.005 84.5928 15.6706 79.7617 20.4743C79.5414 20.6929 79.4587 20.9409 79.4679 21.1789C72.9881 22.8804 67.3561 26.9957 62.4671 31.4489C62.4284 31.4838 62.3998 31.521 62.3689 31.5582C61.1847 30.5939 59.8907 29.749 58.4708 29.0669C55.7568 27.7623 52.8018 27.1003 49.8343 27.2414C48.9338 27.2042 48.0294 27.2507 47.1575 27.3693C46.0305 27.5228 45.9037 29.1405 46.7973 29.3653C47.0106 29.5328 47.2935 29.618 47.629 29.5428C48.4035 29.3707 49.1804 29.2731 49.9556 29.2351C50.867 29.2777 51.7667 29.4289 52.566 29.7614C52.8126 29.8637 53.373 30.1195 53.4742 30.3947C53.6227 30.7978 53.274 30.8226 52.8976 30.9908C52.1671 31.3156 51.3972 31.5706 50.6351 31.8078C47.6282 32.7434 44.5 33.1357 41.3632 33.255C41.4266 33.2008 41.4869 33.1411 41.541 33.069ZM23.7231 94.8535C20.894 93.6986 18.48 91.7343 16.396 89.529C14.2827 87.2919 12.4817 84.7889 10.7116 82.2759C8.62916 79.3194 6.50579 76.3669 4.66687 73.2484C3.76558 71.7198 3.07454 70.1486 2.76303 68.3913C2.45152 66.6325 2.43993 64.8194 2.41674 63.0373C2.36649 59.2607 2.53114 55.4811 2.90835 51.7239C3.2446 48.3806 3.60635 44.8769 5.21569 41.8693C6.56454 39.3493 8.60597 37.251 10.952 35.6441C13.189 34.1116 15.6184 33.0489 18.1499 32.2861C17.7433 32.8295 18.0038 33.9015 18.9252 33.9938C25.63 34.6619 32.4106 35.3239 39.1541 35.3154C42.3495 35.3115 45.5628 35.0821 48.6903 34.4015C50.2548 34.0612 51.7938 33.6008 53.2779 32.9969C54.442 32.5233 55.7545 31.859 55.5814 30.3738C55.5675 30.256 55.5335 30.1459 55.5025 30.0343C59.1332 31.2466 62.3944 33.7124 64.636 36.8029C68.872 42.646 70.0299 50.0573 69.7957 57.1244C69.6411 61.8017 68.9222 66.4301 68.2018 71.0462C68.0031 72.3159 69.9418 72.8554 70.1412 71.5756C71.4537 63.1745 72.7801 54.5261 70.867 46.1063C69.7447 41.1647 67.4288 36.413 63.8615 32.8899C63.8716 32.8814 63.8816 32.8768 63.8909 32.8682C68.0735 29.0591 72.7786 25.5314 78.1732 23.671C83.4975 21.8347 89.0668 22.0634 94.1939 24.4214C96.7084 25.5779 99.0591 27.098 101.22 28.8243C103.436 30.5932 105.697 32.5435 107.402 34.8247C109.5 37.6308 110.238 41.0485 110.464 44.532C108.182 44.425 105.901 44.4243 103.61 44.639C102.364 44.756 101.128 44.9374 99.897 45.1506C98.1253 45.3661 96.3621 45.6769 94.6168 46.1001C94.3153 46.173 94.1197 46.3412 94.0107 46.549C93.8082 46.611 93.6026 46.6614 93.4009 46.7265C92.1734 47.1195 92.7044 49.0643 93.9412 48.6682C95.9842 48.014 98.0689 47.5101 100.178 47.1388C103.62 46.7187 107.102 46.7148 110.55 47.1203C110.559 48.507 110.519 49.8829 110.483 51.2138C110.321 57.126 109.385 63.4435 105.398 68.0719C105.105 68.4122 105.09 68.8052 105.225 69.1339C102.895 67.7673 100.334 66.8495 97.4598 66.6921C93.0097 66.4472 87.9004 67.6626 84.3099 70.3827C84.0579 70.5741 83.9303 70.8245 83.8956 71.0818C78.5775 70.8043 73.1156 72.0989 67.8949 73.0166C63.9458 73.7112 59.7732 74.3166 55.9385 75.6436C55.7422 75.2592 55.3394 74.9615 54.8069 75.0413C50.6428 75.6661 46.5623 76.7761 42.6696 78.3908C39.6016 79.6636 36.4826 81.2759 34.3028 83.8611C32.038 86.5477 31.2303 89.9879 32.198 93.3916C32.4809 94.3861 32.8891 95.331 33.376 96.2356C30.1063 96.3798 26.7849 96.1031 23.7231 94.8535ZM53.9767 107.609C50.6351 106.974 47.4149 105.784 44.4629 104.089C41.5464 102.414 38.7714 100.264 36.679 97.6061C34.6777 95.0644 33.1558 91.725 34.0439 88.4469C34.8517 85.4656 37.3839 83.3805 39.9572 81.9123C43.0275 80.1597 46.4672 78.9846 49.8753 78.0955C50.3615 77.9683 50.8538 77.8683 51.3431 77.7567C49.8358 78.666 48.4344 79.7713 47.1946 81.1581C44.9916 83.6231 43.5098 86.7741 43.5894 90.1336C43.6744 93.7288 45.4152 97.093 47.8292 99.6804C50.4612 102.501 53.9311 104.388 57.4226 105.92C59.3265 106.755 61.2682 107.569 63.2547 108.224C60.1505 108.268 57.0315 108.191 53.9767 107.609ZM76.6814 106.605C76.0452 106.837 75.399 107.023 74.7505 107.19C74.5935 107.145 74.4181 107.136 74.2217 107.186C70.5029 108.147 66.7115 107.309 63.1635 106.063C59.8482 104.899 56.5136 103.505 53.5121 101.66C50.574 99.8541 47.9668 97.4185 46.5476 94.2164C45.2474 91.2824 45.3023 88.0012 46.8135 85.1625C50.0886 79.0132 57.1536 76.9622 63.5129 75.8064C67.1985 75.1367 70.8879 74.4685 74.5781 73.8213C78.2443 73.1786 82.0257 72.7229 85.7368 73.2569C89.0629 73.736 92.3457 75.0065 94.7126 77.4668C96.8924 79.7326 98.2374 82.9169 97.6422 86.0858C97.0439 89.2717 94.912 91.8955 92.7508 94.19C90.4071 96.6775 87.9444 99.1022 85.331 101.304C82.7454 103.481 79.8722 105.439 76.6814 106.605ZM87.3771 102.193C88.8055 100.951 90.1752 99.637 91.5179 98.3069C93.0438 96.7961 94.6206 95.2543 95.995 93.5676C100.767 96.9193 105.645 100.89 107.865 106.467C108.016 106.848 108.317 107.134 108.695 107.192C108.724 107.299 108.751 107.406 108.785 107.512C101.931 104.739 94.7335 102.956 87.3771 102.193ZM109.289 97.1705C109.153 99.0898 108.668 101.173 108.477 103.209C105.808 98.5588 101.564 95.0442 97.1954 91.9607C97.6337 91.3188 98.0426 90.6584 98.3951 89.9631C98.6849 89.391 98.9145 88.8035 99.1139 88.2105C99.1224 88.212 99.1294 88.2159 99.1379 88.2174C101.673 88.6903 104.329 89.1608 106.487 90.6716C108.707 92.2258 109.475 94.5311 109.289 97.1705ZM112 93.6939C111.543 93.6466 111.254 93.8737 111.124 94.1892C110.039 88.8259 104.396 87.1547 99.6659 86.2726C99.6458 86.2687 99.6272 86.2702 99.6071 86.2671C99.9333 84.22 99.7107 82.1216 98.8558 80.1178C98.0913 78.3257 96.9187 76.7498 95.4925 75.446C98.0975 75.0723 100.687 75.746 102.837 77.2684C104.584 78.5047 105.99 80.1891 107.315 81.8526C109.995 85.2145 112.514 88.7856 116.61 90.4933C117.803 90.9902 118.317 89.0391 117.138 88.5484C112.982 86.8167 110.542 82.5278 107.757 79.2311C106.359 77.5769 104.792 76.0142 102.907 74.9227C100.376 73.4577 97.4652 73.0345 94.6052 73.5484C94.1963 73.622 93.9775 73.8732 93.908 74.1724C93.2076 73.6902 92.4671 73.267 91.6957 72.9112C89.9866 72.1229 88.2382 71.6369 86.4673 71.3539C89.5816 69.4339 93.5091 68.5773 97.0965 68.6928C100.951 68.8161 104.458 70.6431 107.377 73.0732C113.375 78.0652 117.14 85.3253 123.703 89.6957C126.023 91.2398 128.615 92.3451 131.32 92.742C125.263 94.9938 118.337 94.345 112 93.6939Z" fill="#987253"/>
<path d="M90.2448 47.6947C90.2981 49.7155 91.8163 51.2798 93.3128 52.4425C93.741 52.7759 94.3184 52.8572 94.7335 52.4379C95.0798 52.0883 95.1602 51.348 94.7289 51.0124C94.1329 50.5488 93.5516 50.0574 93.0623 49.4783C92.8892 49.2729 92.6836 48.9714 92.512 48.6303C92.4169 48.442 92.4385 48.4892 92.3736 48.2877C92.3411 48.1869 92.3118 48.0838 92.2878 47.9807C92.2847 47.9676 92.2739 47.9063 92.2661 47.8614C92.2631 47.8125 92.2553 47.7319 92.2553 47.7319C92.2522 47.6591 92.2522 47.5862 92.2546 47.5125C92.2569 47.4389 92.2638 47.366 92.2692 47.2932C92.2522 47.5234 92.2816 47.2498 92.2901 47.2133C92.321 47.0692 92.3666 46.9312 92.4122 46.7909C92.4184 46.773 92.42 46.7645 92.4238 46.7529C92.4308 46.742 92.4378 46.732 92.4493 46.7118C92.4857 46.6498 92.5158 46.5847 92.5529 46.5227C92.5753 46.4855 92.5993 46.449 92.6233 46.4126C92.6163 46.4266 92.7029 46.3049 92.7222 46.2839C92.7593 46.2428 92.7987 46.2033 92.8382 46.1646C92.8629 46.1405 92.975 46.0615 92.9618 46.0677C92.9951 46.0467 93.0283 46.025 93.0615 46.0049C93.0832 45.9917 93.1025 45.9816 93.118 45.9731C93.1837 45.9514 93.2494 45.9343 93.3151 45.9118C93.3267 45.908 93.3305 45.9064 93.3383 45.9033C93.3506 45.9033 93.3615 45.9033 93.3816 45.9018C93.9226 45.8622 94.3849 45.4623 94.3833 44.891C94.3818 44.3747 93.9195 43.8468 93.3754 43.8864C91.4607 44.0267 90.1953 45.8421 90.2448 47.6947Z" fill="#987253"/>
<path d="M93.5856 58.0345C94.8796 58.0624 94.8726 56.047 93.5795 56.0191C88.2026 55.902 83.6931 52.0038 82.6542 46.742C82.403 45.4708 80.4674 46.0157 80.7179 47.2839C81.9314 53.4262 87.3693 57.8996 93.5856 58.0345Z" fill="#987253"/>
<path d="M97.1529 57.7864C97.2209 57.8384 97.2889 57.8911 97.3569 57.943C97.5138 58.0337 97.6831 58.0787 97.8648 58.0787C97.9537 58.0663 98.0426 58.0539 98.1315 58.0415C98.3015 57.9934 98.4492 57.9066 98.5744 57.781C98.7885 57.5663 99.0026 57.3516 99.2159 57.1376C99.3133 57.0462 99.3829 56.9376 99.4223 56.8128C99.4849 56.6927 99.5135 56.5632 99.5074 56.4245C99.512 56.2857 99.4826 56.1563 99.4192 56.0369C99.3783 55.9121 99.3087 55.8044 99.2105 55.7129C99.1425 55.6602 99.0745 55.6082 99.0065 55.5563C98.8496 55.4656 98.6803 55.4207 98.4986 55.4207C98.4097 55.4331 98.3208 55.4455 98.2319 55.4571C98.0619 55.5051 97.9143 55.592 97.789 55.7175C97.5749 55.9323 97.3608 56.147 97.1475 56.3609C97.0501 56.4524 96.9805 56.5609 96.9411 56.6857C96.8785 56.8059 96.8499 56.9353 96.856 57.0741C96.8514 57.2128 96.8808 57.3423 96.9442 57.4616C96.9844 57.588 97.0547 57.6957 97.1529 57.7864Z" fill="#987253"/>
<path d="M87.0331 36.0589C87.7048 35.6008 88.4113 35.2248 89.1472 34.8822C89.1549 34.8791 89.1495 34.8806 89.1549 34.8783C89.182 34.8667 89.209 34.8558 89.2361 34.8442C89.3342 34.8039 89.4324 34.7651 89.5313 34.7279C89.7169 34.6574 89.9039 34.5907 90.0925 34.5287C90.4821 34.4008 90.8779 34.2923 91.2783 34.2001C91.7915 34.0822 92.1394 33.459 91.9763 32.9583C91.8008 32.4195 91.2875 32.1319 90.738 32.2583C89.0583 32.6435 87.4381 33.3497 86.0127 34.321C85.5791 34.6171 85.348 35.224 85.6564 35.7008C85.9378 36.1356 86.5685 36.3759 87.0331 36.0589Z" fill="#987253"/>
<path d="M11.8007 65.055C11.0455 64.2884 10.2648 63.5132 9.76155 62.5489C9.24056 61.5505 9.19418 60.4211 9.19805 59.3173C9.20655 56.7802 9.33332 54.24 9.50337 51.7092C9.59072 50.4147 7.58021 50.4263 7.49363 51.7154C7.30812 54.4757 7.10019 57.2872 7.19603 60.0553C7.23855 61.2839 7.45112 62.4776 8.02853 63.5714C8.61368 64.6798 9.51265 65.5999 10.383 66.4844C11.2944 67.4092 12.7112 65.979 11.8007 65.055Z" fill="#987253"/>
<path d="M13.6357 69.2292C13.3505 68.8718 13.0653 68.5137 12.78 68.1563C12.6888 68.0587 12.5806 67.9889 12.4561 67.9494C12.3363 67.8866 12.2072 67.8579 12.0689 67.8641C11.9305 67.8595 11.8014 67.8889 11.6824 67.9525C11.5579 67.9936 11.4505 68.0633 11.3593 68.1618C11.1838 68.354 11.0547 68.6067 11.0671 68.8749C11.0795 68.964 11.0918 69.0532 11.1042 69.1423C11.1521 69.3129 11.2387 69.4609 11.3639 69.5865C11.6492 69.9438 11.9344 70.302 12.2196 70.6593C12.3108 70.757 12.419 70.8267 12.5435 70.8671C12.6633 70.9298 12.7924 70.9585 12.9308 70.9523C13.0691 70.957 13.1982 70.9275 13.318 70.864C13.4425 70.8229 13.5499 70.7531 13.6411 70.6547C13.8166 70.4624 13.9457 70.2097 13.9333 69.9415C13.9209 69.8524 13.9086 69.7632 13.8962 69.6741C13.8475 69.5028 13.7609 69.3547 13.6357 69.2292Z" fill="#987253"/>
</svg>
