<svg width="112" height="121" viewBox="0 0 112 121" fill="none" xmlns="http://www.w3.org/2000/svg">
<path d="M111.254 27.3013C108.766 28.0448 106.277 27.0534 104.038 27.797C103.789 28.0448 103.541 28.7884 104.038 28.7884C106.513 29.7799 109.277 29.7799 111.751 28.7884C111.886 28.6548 111.974 28.4806 112 28.2927C112 27.797 112 27.5491 111.254 27.3013Z" fill="#987253"/>
<path d="M94.8324 11.6865C95.0211 11.7125 95.1959 11.7996 95.33 11.9343C97.5693 10.695 98.5645 8.46435 100.057 6.48151C100.057 5.9858 100.555 5.24224 99.0621 4.99438C97.3205 6.72936 96.0764 8.7122 94.5836 10.4472C94.3348 10.695 94.5836 11.1907 94.8324 11.6865Z" fill="#987253"/>
<path d="M7.2527 68.6928C5.01345 68.9406 2.52539 68.1971 0.286137 68.9406C0.0373307 69.1885 -0.211475 69.9321 0.286137 69.9321C2.7742 70.9235 5.51106 70.6756 7.99912 70.1799C8.12085 69.9467 8.20482 69.6957 8.24793 69.4363C8.24793 68.9406 7.99912 68.6928 7.2527 68.6928Z" fill="#987253"/>
<path d="M17.2049 86.0425C16.9561 86.0425 16.7073 85.7947 16.4585 85.7947C14.7169 87.5297 13.4729 89.5125 11.98 91.4953C11.8872 91.7021 11.8613 91.9325 11.9058 92.1545C11.9504 92.3766 12.0633 92.5793 12.2288 92.7346C12.4776 92.9825 13.224 92.7346 13.4729 92.4867C13.7217 92.2389 13.7217 91.7432 13.9705 91.4953C15.4633 90.2561 16.2097 88.7689 17.4537 87.2818C17.7026 86.7861 17.4537 86.5382 17.2049 86.0425Z" fill="#987253"/>
<path d="M100.057 35.2325C99.8085 34.489 99.5597 33.9933 99.5597 33.2497C99.5597 28.5405 100.057 23.5834 97.8181 19.3699C94.8324 15.8999 90.3539 15.1563 86.1242 13.6692C81.8945 11.9342 79.6553 7.72071 76.9184 4.00289C75.4256 2.26791 73.4351 0.532934 71.1959 0.285079C66.7174 -0.210629 62.9853 2.02006 58.7556 3.01148C53.2818 4.00289 49.0521 0.780788 44.076 0.0372249C41.5879 -0.210629 39.0999 0.780788 37.3582 2.26791C35.8654 3.75504 34.6214 4.99431 33.6262 6.72929C30.8893 11.6864 25.6644 13.4214 20.6882 14.9085C17.9514 15.8999 15.2145 17.387 14.2193 20.3613C12.9753 23.8312 13.2241 27.5491 13.2241 31.019C13.2241 33.2497 12.4776 34.9847 11.2336 36.9675C8.99437 40.1896 6.50631 42.6682 5.26228 46.386C4.51586 49.3602 5.51108 52.0866 7.25272 54.5652C8.49675 56.0523 9.24317 57.5394 10.4872 58.7787C11.4824 60.018 11.7312 61.7529 12.7265 62.9922H13.4729C13.9705 62.7444 14.2193 62.4965 13.9705 61.7529C13.4729 60.2658 12.7265 59.0266 11.98 57.7873C9.74078 54.813 7.00392 52.0866 7.00392 48.3688C6.75511 44.4031 9.98959 41.6768 12.2288 38.7025C13.7217 36.4718 14.7169 34.2411 14.9657 31.7626C15.2145 28.7883 14.9657 25.8141 15.2145 22.8398C15.3225 21.6577 15.7495 20.5267 16.4503 19.5667C17.1512 18.6067 18.0997 17.8536 19.1954 17.387C23.1763 15.652 27.9036 15.1563 31.3869 12.4299C34.3726 9.70354 36.1142 6.23358 38.8511 3.25933C42.3344 0.285079 47.0617 2.51577 50.7938 3.75504C53.5306 4.4986 56.2675 5.24217 59.0044 4.74646C63.2341 3.75504 66.7174 2.02006 70.9471 2.02006C71.9423 2.02006 72.4399 3.01148 73.4351 3.01148C75.1768 4.99431 77.1672 6.72929 78.4112 9.20784C79.6553 10.9428 80.8993 12.4299 82.6409 13.6692C84.8802 15.1563 87.3682 15.8999 89.8563 16.6435C92.5932 17.6349 95.5788 18.3784 96.8229 21.1048C98.5645 25.5662 97.3205 30.2754 98.0669 34.9847C98.3157 36.4718 99.0621 37.7111 99.8085 38.9504C101.799 41.9246 104.038 44.4031 105.033 47.6253C106.526 51.8388 103.292 55.0609 100.804 58.283C99.0621 60.7615 97.5693 63.2401 97.3205 66.2143C97.3205 69.4364 97.3205 72.6585 96.8229 76.1285C96.3253 78.607 94.3348 80.0942 92.0956 81.0856C89.3587 82.077 86.8706 82.8206 84.1338 83.5641C81.1481 84.5555 79.4065 86.7862 77.416 89.2648C75.4256 91.9912 73.6839 94.7176 70.6982 95.9568C66.9662 97.1961 63.4829 94.9654 59.9996 93.7262C58.0091 93.2304 56.2675 92.7347 54.277 92.9826C50.2962 93.4783 47.0617 94.9654 43.0808 95.709C42.0856 95.9568 41.0903 95.4611 40.0951 95.2133C38.9745 94.8822 37.9504 94.2871 37.1094 93.4783C34.6214 90.5041 33.1285 87.2819 30.3917 84.5555C27.6548 82.3249 24.4203 81.5813 21.1859 80.5899C19.6566 80.0968 18.2252 79.3419 16.9562 78.3592C13.4729 75.3849 15.2145 71.1714 14.2193 67.2057C13.9705 66.71 13.2241 66.9579 12.9753 67.2057C12.2628 70.3306 12.4351 73.5911 13.4729 76.6242C14.4681 79.1028 16.4585 80.5899 18.9466 81.5813C22.1811 82.8206 25.4156 83.3163 28.1524 85.2991C23.9227 92.239 20.1906 99.4268 15.9609 106.615C15.7121 107.358 15.4633 107.854 15.7121 108.597C15.9883 109.128 16.426 109.557 16.9624 109.824C17.4987 110.091 18.1062 110.183 18.6978 110.085C22.6787 108.845 26.6596 107.606 30.6405 106.615C31.6357 110.828 32.6309 114.794 33.6262 119.007C34.1238 120.494 36.1142 121.238 37.607 120.247C40.3439 115.785 42.5832 111.324 45.0712 106.862C45.9948 105.429 46.8259 103.939 47.5593 102.401C48.3057 101.41 48.8033 100.418 49.5497 99.4268C49.7985 99.179 49.7985 98.4354 50.0473 98.1875C50.7938 97.1961 51.0426 95.9568 52.0378 95.2133C54.5259 93.974 57.2627 94.7176 59.7508 95.4611C64.4781 97.1961 70.2006 99.6747 74.4303 95.709C77.1672 93.2304 79.1576 90.0083 81.3969 87.2819C81.8945 88.0255 82.3921 88.7691 82.6409 89.5126L85.6266 94.7176C88.3635 99.179 90.8515 103.64 93.8372 108.102C93.8372 108.35 94.086 109.093 93.5884 109.093C89.1099 108.35 84.8802 105.871 80.4017 105.623C79.9183 105.634 79.454 105.813 79.0901 106.13C78.7262 106.448 78.4859 106.882 78.4112 107.358C77.416 111.572 76.6696 115.289 75.4256 119.255H74.9279C72.1911 115.537 70.2006 111.572 67.7126 107.606C66.4685 105.375 65.4733 103.392 64.2293 101.162C63.7317 100.418 63.4829 99.179 62.4876 98.6832C61.99 98.6832 61.2436 98.9311 61.2436 99.4268C61.2436 99.9225 61.7412 100.666 61.99 101.162L64.9757 106.367C67.9614 111.076 70.2006 116.033 73.9327 120.494C74.9279 121.486 76.9184 120.99 77.416 119.255C78.4112 115.042 79.1576 111.324 80.4017 107.358C84.8802 107.854 89.1099 110.332 93.5884 110.58C95.0812 110.828 96.3253 108.845 95.33 107.358C94.8324 106.615 94.5836 105.871 94.086 105.127C93.3396 104.136 92.842 103.145 92.0956 102.153C91.8467 101.905 91.8467 101.162 91.5979 100.914C90.8515 99.9225 90.3539 98.9311 89.6075 97.9397C89.3587 97.6918 89.3587 96.9483 89.1099 96.7004C88.3635 95.709 87.8659 94.7176 87.1194 93.7262C86.8706 93.4783 86.8706 92.9826 86.6218 92.4869C85.129 90.5041 84.1338 88.2734 82.8897 86.2905C83.3766 85.8184 83.9759 85.4773 84.6314 85.2991C89.3587 83.3163 95.8276 83.0684 97.8181 77.8635C99.8085 73.65 98.5645 69.1886 99.3109 64.7272C99.5597 63.9836 99.8085 63.4879 100.057 62.7444C102.048 59.0266 105.033 56.3002 106.775 52.3345C107.273 51.0952 107.273 49.8559 107.273 48.6167C106.526 43.6596 102.545 40.4375 100.306 36.224C100.057 35.9761 100.057 35.4804 100.057 35.2325ZM36.6118 118.759C36.1142 119.255 35.6166 119.007 35.3678 118.512C34.1238 114.298 33.6262 110.085 32.1333 105.871C31.6357 104.88 30.6405 104.632 29.6453 104.88C27.6548 105.375 25.9132 106.119 23.9227 106.615C21.6835 107.358 19.693 108.35 17.4538 108.35V107.606C18.6978 106.367 18.9466 104.88 19.693 103.392C20.6882 101.905 21.4347 100.418 22.4299 98.9311C24.6691 94.7176 26.9084 90.5041 29.6453 86.2905C30.8893 88.0255 32.1333 89.5126 33.1285 91.2476C34.3726 92.9826 35.6166 94.4697 37.1094 95.709C40.8415 98.6832 45.5688 97.1961 49.5497 95.709C45.32 103.392 40.5927 110.828 36.6118 118.759Z" fill="#987253"/>
<path d="M56.2675 13.1733C53.7794 13.4212 51.2914 13.4212 48.8033 13.9169C46.324 14.3971 43.9045 15.1451 41.5879 16.1476C36.6118 18.6261 31.8845 21.6004 28.4012 26.5575C28.1524 26.8053 27.9036 26.8053 27.6548 27.0532C27.1572 28.2925 26.162 29.2839 25.4155 30.2753C23.9227 32.7538 23.1763 35.2324 21.9323 37.7109C21.1858 39.6937 20.937 41.9244 20.6882 44.1551C19.9418 48.1208 20.1906 52.0865 20.937 56.0521C22.9275 65.2227 27.6548 72.6584 35.3678 78.1112C35.6166 78.359 35.8654 78.1112 36.1142 78.359C44.076 84.0597 53.2818 85.5468 62.4876 84.0597C63.4829 83.8118 64.4781 83.3161 65.7221 83.3161C68.9566 82.5725 71.6935 81.0854 74.6791 79.3504C77.1672 77.8633 79.1576 76.1283 81.1481 74.3934C83.8747 71.7222 86.144 68.6243 87.8658 65.2227C88.8611 62.9921 89.8563 61.0092 90.6027 58.5307C90.8144 56.8566 91.147 55.2 91.5979 53.5736C91.8467 52.3343 91.5979 51.3429 91.8467 50.1036C92.0955 47.1294 91.5979 44.6508 91.1003 41.6766C90.1051 37.4631 88.8611 33.9931 86.6218 30.2753C84.6314 27.301 82.6409 24.5746 79.9041 22.3439C78.4112 21.1047 76.9184 20.1133 75.1767 18.874C73.6839 17.6347 71.9423 17.139 70.2006 16.1476C67.9614 15.1562 65.7221 14.6605 63.2341 13.9169C60.9948 13.4212 58.5067 13.4212 56.2675 13.1733ZM55.5211 82.8204C50.959 82.8111 46.4556 81.7953 42.3344 79.8461C32.6309 75.8805 25.6644 67.4534 22.9275 57.0436C20.4394 46.8815 22.4299 36.7195 28.8988 28.2925C29.8941 27.0532 31.1381 25.8139 32.1333 24.5746C36.6118 20.3611 41.5879 17.3869 47.8081 15.8997H48.8033C60.746 12.9255 73.1863 17.139 81.3969 26.3096C88.8611 34.4888 91.5979 45.1465 89.3587 56.0521C87.617 64.4792 82.8897 71.1712 76.172 76.3762C75.1767 77.1198 74.1815 77.3676 73.4351 77.8633C67.9614 81.5811 61.7412 82.8204 55.5211 82.8204Z" fill="#987253"/>
<path d="M56.5163 8.46414C41.8367 8.21629 27.6548 16.1476 20.4394 29.2839C15.4633 38.4545 13.7217 49.1122 16.9561 59.2743V60.2657C17.9514 62.9921 18.9466 65.7185 20.4394 68.4449C21.9323 71.4191 23.9227 73.8977 26.162 76.3762L28.4012 78.6069C36.8606 86.0425 47.8081 90.0082 59.0044 89.2646C68.459 88.5211 77.1672 84.8033 84.1338 78.1112C84.5832 77.4156 85.1771 76.824 85.8754 76.3762C90.3539 71.667 93.0908 66.2142 95.0812 60.2657V59.2743C98.3157 48.6165 96.3252 37.2152 90.6027 27.5489L89.8563 26.8054C89.4033 25.6251 88.6276 24.5948 87.617 23.8311C87.3682 23.8311 86.6218 24.079 86.8706 24.5747C87.8658 27.5489 90.3539 30.2753 91.5979 33.2496C93.2853 37.3708 94.3744 41.7106 94.8324 46.138C95.33 53.5736 93.8372 60.5135 90.3539 67.2056C84.8802 77.3676 75.6744 84.0597 64.2293 86.7861H63.2341C59.0044 88.0254 54.5258 87.5297 50.2961 87.2818C49.5497 87.2818 48.8033 86.7861 47.8081 86.7861C40.8415 85.5468 34.8702 82.0769 29.6453 77.3676L27.406 75.1369C24.9179 72.1627 22.6787 69.1884 20.937 65.7185C19.683 62.9218 18.6838 60.0185 17.9514 57.0436L17.205 51.8386C16.9572 48.1043 17.2082 44.3537 17.9514 40.6852C21.4347 25.0704 33.875 13.1734 49.5497 10.6948C52.5354 10.1991 55.5211 9.95127 58.5067 10.1991C68.2102 10.9427 76.9184 15.1562 84.1338 21.8483C84.3826 21.8483 84.6314 21.6004 84.8802 21.6004C84.9696 21.5236 85.0414 21.4285 85.0906 21.3216C85.1398 21.2147 85.1653 21.0984 85.1653 20.9808C85.1653 20.8632 85.1398 20.7469 85.0906 20.64C85.0414 20.533 84.9696 20.4379 84.8802 20.3611C80.8993 16.1476 76.172 13.4212 70.947 11.1905C69.703 10.6948 68.459 10.447 67.215 9.95127C63.7371 8.95475 60.1351 8.45407 56.5163 8.46414Z" fill="#987253"/>
<path d="M39.5975 44.1552C39.7862 44.1812 39.961 44.2683 40.0951 44.4031C40.8415 47.873 40.3439 51.0951 40.0951 54.5651C39.8463 58.2829 40.5927 62.0007 39.8463 65.7185C38.6023 66.2142 37.1094 65.9664 35.8654 65.9664C35.7363 65.9577 35.6147 65.9027 35.5232 65.8115C35.4317 65.7204 35.3765 65.5993 35.3678 65.4707C34.3726 58.2829 33.1285 51.343 32.3821 44.1552H39.5975ZM39.5975 42.1724H32.6309C31.6357 42.1724 30.3917 42.9159 30.3917 44.1552C31.3869 51.343 32.3821 58.2829 33.6261 65.7185C34.3726 68.9406 38.1046 67.7014 40.3439 67.4535C41.3391 67.4535 42.0855 66.2142 42.0855 65.2228C42.3343 58.035 42.0855 51.0951 42.0855 43.9073C41.3391 43.1638 40.8415 42.4202 39.5975 42.1724Z" fill="#987253"/>
<path d="M58.5067 70.18C55.0234 69.6843 51.2913 68.9408 48.5545 66.2144C47.8248 65.711 46.9538 65.4507 46.0664 65.4708C45.6869 65.1687 45.2685 64.9186 44.8224 64.7272C44.3248 64.4794 44.076 63.7358 44.076 63.2401C44.076 58.0352 43.8272 52.5824 44.076 47.3774C44.3248 44.1553 48.0569 44.651 50.5449 44.651C52.0378 41.1811 54.5258 38.2068 58.5067 37.4633C62.2388 35.4804 62.4876 31.2669 63.4828 27.5491C63.7316 26.5577 65.2245 25.8141 66.4685 26.5577C72.191 29.5319 71.4446 36.224 69.703 41.4289C69.703 41.6768 69.9518 42.1725 70.2006 42.1725C73.4351 42.4204 76.9184 41.6768 80.1528 42.6682C81.1161 43.0364 81.9121 43.7412 82.3921 44.651C83.1385 46.6339 82.3921 48.8646 80.4016 50.1038C81.1648 50.9121 81.607 51.9692 81.6457 53.0781C81.3969 54.5652 80.6504 56.0523 78.9088 56.7959C80.6504 58.7787 80.1528 62.2487 77.6648 63.2401C78.66 63.9837 79.1576 65.4708 78.9088 66.7101C78.66 68.1972 77.6648 69.4365 76.4207 69.6843C70.2006 70.9236 64.4781 69.9322 58.5067 70.18ZM46.8128 63.488C47.5593 63.7358 48.3057 63.7358 49.0521 64.2315C51.0425 65.7187 52.2866 67.2058 54.7746 67.4536C55.0234 67.4536 55.2722 67.9493 55.521 67.9493C62.4876 68.4451 69.2054 68.6929 76.1719 67.9493C76.9184 67.7015 77.1672 66.7101 77.1672 65.9665C77.1672 64.2315 75.4255 63.7358 73.9327 63.488C73.6839 63.2401 73.4351 62.4966 73.9327 62.0008C74.6791 61.5051 75.6743 62.0008 76.4207 61.753C77.6648 61.5051 78.1624 60.2659 78.1624 59.0266C77.9136 58.0352 77.1672 57.2916 75.9231 57.0438C75.4255 57.0438 74.1815 56.7959 75.1767 55.5566C75.9231 54.8131 77.1672 55.5566 77.9136 55.3088C78.9088 54.8131 79.904 54.0695 79.6552 52.5824C79.4064 51.0953 77.9136 50.8474 76.6696 50.3517C75.9231 49.856 76.9184 48.8646 77.416 48.8646C78.9088 48.8646 80.8993 48.121 80.8993 46.386C80.886 45.8777 80.7098 45.387 80.3964 44.9856C80.083 44.5842 79.6489 44.2933 79.1576 44.1553C76.6696 43.9075 73.9327 44.4032 71.4446 44.1553C70.2006 43.9075 68.2101 43.9075 67.9613 42.1725C67.7125 39.1982 69.4542 36.7197 69.2054 33.7455C68.9566 31.2669 67.9613 28.7884 65.2245 28.2927C64.7269 28.2927 64.7269 29.0362 64.7269 29.5319C64.7269 32.5062 63.9804 34.9847 61.99 37.2154C60.2484 38.9504 58.0091 39.4461 55.7699 40.4375C54.277 41.1811 53.5306 42.6682 53.033 44.4032C52.0378 47.6253 48.8033 45.8903 46.3152 46.6339C45.8176 52.0867 45.32 57.5395 46.0664 63.2401C46.3006 63.3614 46.5525 63.445 46.8128 63.488Z" fill="#987253"/>
</svg>
