<svg width="120" height="119" viewBox="0 0 120 119" fill="none" xmlns="http://www.w3.org/2000/svg">
<path d="M89.4767 1.97212C66.5134 4.33466 43.5501 6.69719 20.5868 9.05973C17.4947 10.2711 15.2438 12.9592 15.1301 16.3206C15.1756 16.7626 14.9937 17.2279 15.4939 17.6231C15.744 17.8207 16.2215 17.9949 16.6307 17.5061C16.9717 16.3545 16.8581 15.2496 17.1991 14.0979C17.7448 12.7019 18.7906 11.701 20.0866 10.8977C21.1779 10.3388 22.5648 10.4194 23.7016 10.3025C26.6799 39.2505 29.6809 68.4196 32.6591 97.3677C29.7035 97.6717 27.1343 99.4993 25.5428 101.896C22.4963 74.5184 20.382 47.2679 16.8808 19.9369C16.8581 19.7159 15.9486 19.8095 15.9714 20.0305C17.9038 49.9794 21.4504 79.9856 24.5196 109.818C25.5655 113.283 29.0668 116.049 33.0001 116.314C56.8501 113.637 80.5637 111.868 104.368 108.749C104.368 108.749 104.573 108.504 104.55 108.283C104.505 107.841 104.004 107.446 103.55 107.493C79.8816 109.705 56.5091 112.556 32.841 114.768C31.0221 114.955 29.2942 113.793 27.9982 112.363C25.6337 109.48 25.2472 105.723 27.2025 102.395C27.3844 101.93 27.7709 101.22 28.4075 100.708C29.4761 99.9283 30.5447 99.1484 31.9089 99.0081C54.1673 96.4947 76.2439 94.4467 98.5251 92.1544C98.7752 94.5851 99.0026 96.7949 99.2526 99.2257C79.2678 101.505 59.4193 102.877 39.4799 105.599C39.2753 105.843 39.1161 106.529 39.5708 106.482C59.6921 105.529 79.3814 102.61 99.4118 100.772C99.7983 102.296 99.48 103.669 100.094 105.169C100.344 105.366 101.049 105.517 101.003 105.075C101.685 100.539 100.344 96.4336 100.117 91.9906C101.663 91.3849 102.64 89.7211 102.504 88.3953C99.6166 60.3311 97.1613 31.9992 93.5919 4.00522C92.5688 2.9939 91.2728 1.56401 89.4767 1.97212ZM100.912 88.559C100.776 89.4663 100.185 90.4204 99.0481 90.5374C77.4489 92.7595 55.8498 94.9817 34.2507 97.2039C31.2724 68.2559 28.2714 39.0868 25.2931 10.1387C46.8923 7.91655 68.696 5.45 90.3179 3.44879C91.4774 3.55281 92.2732 4.58752 92.3868 5.69241C95.4561 33.2912 98.0706 60.9368 100.912 88.559Z" fill="#987253" stroke="#987253" stroke-width="0.25"/>
<path d="M54.5995 56.0299C55.8499 63.7173 57.5323 71.137 58.1007 78.8946C58.1916 79.7785 57.8278 80.7092 56.9639 81.2447C55.2359 82.3158 53.1215 81.8633 52.0529 80.4101C51.2117 78.9334 51.4845 77.1188 51.3027 75.351C51.3254 68.8724 50.4615 62.7085 50.7343 56.4275C52.0985 56.2872 53.2353 56.1702 54.5995 56.0299ZM48.6656 18.4532C48.4382 18.4766 47.9835 18.5234 47.7561 18.5468C45.8236 19.8622 44.6413 21.7704 43.4817 23.8995C42.5268 25.7843 42.0039 27.4013 41.9811 29.4135C42.0266 32.0886 42.2994 34.7404 43.709 37.2751C43.9819 37.6937 44.2547 38.1123 44.5503 38.7518C45.0732 39.368 45.6188 40.2051 46.3691 40.7978C48.188 42.8439 48.6882 45.4722 48.5063 48.1707C48.5517 48.6127 48.5972 49.0546 49.5066 48.9611C49.734 48.9377 49.9386 48.6933 49.9386 48.6933C50.5525 45.727 50.257 42.8543 48.1653 40.3897C46.6192 38.7623 45.3006 37.1114 44.6412 35.1694C43.459 32.6112 43.1634 29.7385 44.0274 26.9698C44.2093 26.5045 44.3912 26.0391 44.5503 25.3528C45.4825 23.247 46.5966 20.6759 48.8474 20.2211C50.4162 19.8363 51.2574 21.313 52.5079 22.3009C54.5541 24.3236 55.4863 26.6842 56.2138 29.2891C56.6458 31.2545 56.6003 33.0457 56.1001 34.8837C55.9182 35.3491 55.7363 35.8144 55.5772 36.5007C54.4631 39.0718 52.6442 41.4921 52.7124 44.3882C52.917 46.377 53.1217 48.3658 53.781 50.3079C51.9848 50.716 49.8477 50.0426 48.3698 51.3112C47.324 52.3121 48.1879 54.0097 47.8469 55.1614C47.8696 55.3824 47.233 55.8945 47.7559 56.5106C48.2334 56.6848 48.6881 56.6381 49.1428 56.5913C49.0746 62.6278 49.6657 68.3733 49.8248 74.3864C49.8248 76.6196 49.5974 78.8762 50.5069 81.0158C50.757 81.2133 51.0298 81.6319 51.3026 82.0505C53.076 83.6546 55.6452 84.0602 57.5777 82.7448C59.0783 81.6971 60.0787 80.2543 59.8968 78.4865C58.8965 70.9966 57.4187 63.3326 56.191 55.8661C56.6457 55.8194 57.1004 55.7726 57.305 55.5282C57.7143 55.0395 57.4187 54.3999 56.7139 54.2491C56.3501 52.9466 56.8503 51.1087 55.3952 50.3651C54.645 47.5392 53.872 44.4923 54.9406 41.4792C55.4635 39.8622 56.4639 38.4194 57.1914 36.558C58.0782 34.0103 58.2601 31.3117 57.7599 28.6834C56.8732 24.5316 54.2358 21.2299 50.5299 18.7081C50.0297 18.3129 49.3249 18.1621 48.6656 18.4532ZM49.6658 54.9743C49.5748 54.0903 49.5066 53.4274 49.4157 52.5435C51.1891 51.9144 52.8261 52.1926 54.6222 51.7845C55.3952 52.5983 54.8041 53.5523 55.1224 54.4129C53.3035 54.6 51.4846 54.7871 49.6658 54.9743Z" fill="#987253" stroke="#987253" stroke-width="0.25"/>
<path d="M70.5147 43.2268C70.6056 44.1107 70.6965 44.9946 70.5601 45.9019C70.6056 46.3439 70.6511 46.7858 71.5605 46.6922C71.7879 46.6689 71.9925 46.4245 71.9925 46.4245C72.7655 45.0051 72.1517 43.505 72.0152 42.1791C71.5151 39.5508 68.6731 38.7266 67.3089 36.6338C65.1945 33.9482 66.4223 30.2488 66.3313 27.1317C66.2177 23.7937 66.7861 20.3855 65.9676 16.8966C65.9221 16.4546 64.8308 17.0136 64.6489 17.4789C64.5807 23.5155 64.2624 29.3545 64.6488 35.3442C64.7625 36.4491 65.5583 37.4838 66.3313 38.2976C67.8773 39.9251 70.4919 40.7726 70.5147 43.2268Z" fill="#987253" stroke="#987253" stroke-width="0.25"/>
<path d="M76.6533 53.761C77.9038 61.4484 79.5862 68.8681 80.1545 76.6257C80.2455 77.5096 79.8817 78.4403 79.0177 78.9758C77.2898 80.0469 75.1754 79.5945 74.1068 78.1412C73.2656 76.6645 73.5384 74.8499 73.3565 73.0821C73.3793 66.6036 72.5154 60.4396 72.7882 54.1586C74.1524 54.0183 75.2892 53.9013 76.6533 53.761ZM76.1761 15.623C75.7213 15.6697 75.2666 15.7165 75.3576 16.6004C76.4261 22.52 78.6087 28.1017 78.7679 34.1149C78.9497 35.8827 77.0172 37.1981 76.0168 38.641C73.7887 41.55 75.2892 44.9687 75.8349 48.039C74.0387 48.4471 71.9015 47.7737 70.4237 49.0423C69.3778 50.0432 70.2418 51.7408 69.9008 52.8925C69.9235 53.1135 69.2869 53.6256 69.8098 54.2418C70.2873 54.416 70.742 54.3692 71.1967 54.3224C71.1285 60.359 71.7196 66.1044 71.8787 72.1176C71.8787 74.3507 71.6513 76.6073 72.5607 78.7469C72.8108 78.9445 73.0837 79.363 73.3565 79.7816C75.1299 81.3857 77.699 81.7913 79.6316 80.4759C81.1322 79.4282 82.1326 77.9854 81.9507 76.2176C80.9503 68.7278 79.4725 61.0637 78.2448 53.5973C78.6996 53.5505 79.1543 53.5037 79.3589 53.2593C79.7682 52.7706 79.4726 52.131 78.7678 51.9802C78.404 50.6778 78.9042 48.8398 77.4491 48.0962C76.8125 46.3752 76.8353 44.363 76.426 42.6186C76.3351 41.7346 76.4715 40.8273 76.858 40.1176C77.6538 38.9192 78.7224 38.1393 79.7455 36.9174C80.3366 35.9633 80.6777 34.8117 80.564 33.7068C79.9956 28.1824 78.2905 22.7749 77.2674 17.2972C76.9718 16.6577 77.3583 15.948 76.1761 15.623ZM71.7196 52.7054C71.6287 51.8215 71.5605 51.1585 71.4696 50.2746C73.243 49.6455 74.8799 49.9237 76.6761 49.5156C77.4491 50.3294 76.858 51.2835 77.1763 52.144C75.3574 52.3311 73.5385 52.5182 71.7196 52.7054Z" fill="#987253" stroke="#987253" stroke-width="0.25"/>
<path d="M71.7879 33.2699C73.1521 33.1295 74.539 33.2102 75.2893 31.5698C75.0392 26.9058 74.1071 22.3121 73.6296 17.6716C73.5842 17.2296 73.516 16.5667 73.0158 16.1715C72.7657 15.9739 72.0836 16.0441 72.1063 16.2651C71.9472 21.4177 73.3568 26.1857 73.6523 31.2915C73.0157 31.8037 72.1063 31.8972 71.1514 31.5489C70.1737 26.5132 71.0377 21.5113 69.6054 16.5224C69.3553 16.3248 68.6505 16.174 68.6959 16.6159C68.0593 21.5944 69.0142 26.4091 69.287 31.294C69.4007 32.3989 70.4238 33.4102 71.7879 33.2699Z" fill="#987253" stroke="#987253" stroke-width="0.25"/>
<path d="M107.006 47.2885C108.734 46.2175 110.234 45.1698 111.94 43.8778C112.144 43.6334 112.099 43.1915 112.076 42.9705C111.803 42.5519 111.553 42.3543 110.894 42.6455C109.166 43.7165 107.688 44.9852 105.96 46.0562C105.755 46.3006 105.596 46.9869 105.846 47.1845C106.096 47.3821 106.551 47.3353 107.006 47.2885Z" fill="#987253" stroke="#987253" stroke-width="0.25"/>
<path d="M114.577 65.0448C112.485 64.8133 110.507 63.4536 108.438 63.4432C108.211 63.4666 107.802 63.9553 108.074 64.3739C109.825 65.757 112.144 65.965 114.054 66.6618C114.531 66.836 114.941 66.3473 115.145 66.1029C115.327 65.6375 115.077 65.44 114.577 65.0448Z" fill="#987253" stroke="#987253" stroke-width="0.25"/>
<path d="M12.1969 72.6749C10.4917 73.9669 8.24083 74.4218 6.80846 76.1324C6.42194 76.8421 7.39959 77.4114 8.05893 77.1203C9.76413 75.8283 11.7649 75.1758 13.4474 73.6628C13.4246 73.4418 13.4019 73.2208 13.3792 72.9999C13.1063 72.5813 12.8562 72.3837 12.1969 72.6749Z" fill="#987253" stroke="#987253" stroke-width="0.25"/>
<path d="M11.765 55.0773C9.85516 54.3806 7.89988 53.2418 5.80818 53.0104C5.58082 53.0338 5.1943 53.7435 5.21704 53.9645C7.19506 55.3242 9.55959 55.9742 11.6968 56.6476C11.9241 56.6242 12.1287 56.3798 12.3334 56.1354C12.5153 55.6701 12.2652 55.4725 11.765 55.0773Z" fill="#987253" stroke="#987253" stroke-width="0.25"/>
</svg>
