<svg width="23" height="23" viewBox="0 0 23 23" fill="none" xmlns="http://www.w3.org/2000/svg">
<path d="M1.38931 20.4693H5.92366C5.9019 20.7127 5.8944 20.7482 5.91205 20.8881C5.95654 21.2376 6.14274 21.552 6.45128 21.7815C6.82898 22.0614 7.18226 22.1678 7.49081 22.1678C7.77855 22.1678 8.02592 22.0806 8.21792 21.9648C8.37461 22.1512 8.59949 22.3238 8.91867 22.4544C9.1288 22.5406 9.32757 22.5778 9.51351 22.5778C9.9507 22.5778 10.3127 22.3741 10.5777 22.1334C10.7286 22.316 10.9373 22.4705 11.2253 22.5554C11.3759 22.6 11.5207 22.6199 11.6588 22.6199C12.0827 22.6199 12.4408 22.4313 12.7187 22.1936C12.8792 22.3788 13.1 22.5345 13.4001 22.6124C13.5193 22.6431 13.6337 22.6572 13.7432 22.6572C14.4821 22.6572 14.9921 22.0035 15.1812 21.6046L15.6629 20.4693H22.1249C22.4052 20.4693 22.6325 20.2583 22.6327 19.976L22.6414 11.2085C22.6417 10.9262 22.4146 10.7347 22.1339 10.7347H22.1334C21.8531 10.7347 21.5535 10.9045 21.5535 11.1866V11.5631C21.5535 11.575 21.5601 11.5857 21.547 11.5993L18.4105 14.8974L14.6439 11.0975C14.6413 11.0948 14.6434 11.0924 14.6408 11.09L14.1475 10.5913L22.485 2.07909C22.5989 1.96276 22.6446 1.80579 22.6257 1.65563C22.6346 1.61766 22.6409 1.5651 22.6409 1.52421C22.6409 1.24191 22.4141 1 22.1334 1H14.1485H8.19374H1.38931C1.10881 1 1 1.25529 1 1.5376V19.9928C1 20.2751 1.10881 20.4693 1.38931 20.4693ZM18.0761 15.9568C18.1716 16.0527 18.3008 16.0887 18.4352 16.0887C18.4369 16.0887 18.4386 16.0887 18.44 16.0887C18.5764 16.0887 18.7067 16.0556 18.801 15.9568L21.6239 13.0247L21.6176 19.4958H16.1027L17.1145 17.1391C17.2259 16.8801 17.1079 16.5759 16.8504 16.4637C16.5926 16.3511 16.294 16.4688 16.1825 16.7275L14.2575 21.1989C14.2549 21.204 13.9971 21.711 13.653 21.6224C13.4673 21.5744 13.3981 21.4133 13.3715 21.3011L14.355 19.433C14.4863 19.1838 14.3917 18.8743 14.1441 18.7421C13.8958 18.6097 13.5887 18.7051 13.4576 18.9543L12.319 21.1181C12.3042 21.1425 11.9604 21.7068 11.5111 21.5747C11.3113 21.5155 11.2596 21.3187 11.247 21.1919L12.648 18.8667C12.7936 18.6256 12.717 18.3111 12.4771 18.1646C12.2382 18.0186 11.9253 18.0955 11.7795 18.3367L10.0963 21.1308C10.0832 21.1544 9.77297 21.7034 9.30145 21.5085C8.9622 21.3695 8.90779 21.1977 8.91335 21.0962L10.7003 18.1877C10.8478 17.9478 10.774 17.6329 10.5354 17.4842C10.2972 17.3357 9.98407 17.4097 9.83633 17.6501L7.73914 21.0636C7.67216 21.1235 7.45018 21.2615 7.05434 20.9672C6.94698 20.8876 6.92595 20.8241 6.91966 20.7779C6.89814 20.6185 7.02509 20.3948 7.08747 20.3145C7.09593 20.3038 7.10367 20.2926 7.11165 20.2814C7.11262 20.28 7.11383 20.2785 7.11504 20.2768C7.11552 20.2761 7.11601 20.2753 7.11649 20.2746L10.9639 14.4229C11.1 14.216 11.0688 13.9412 10.8901 13.7704C10.7121 13.5993 10.4375 13.5825 10.2392 13.7293C9.54398 14.245 8.20655 15.0953 7.57665 15.1819C7.23667 15.2301 6.93997 15.0055 6.73855 14.794L10.7465 11.9515H14.0791L18.0761 15.9568ZM8.7378 1.97347H13.5739V6.71594L11.3193 5.73323C11.2555 5.70597 11.2042 5.69235 11.1365 5.69235C11.0681 5.69235 11.026 5.70622 10.9617 5.7342L8.7378 6.71229V1.97347ZM1.96722 1.97347H7.77057V7.48961C7.77057 7.66167 7.81434 7.82204 7.95701 7.91671C8.09967 8.01138 8.25927 8.0272 8.41596 7.95882L11.1648 6.75951L13.954 7.95979C14.0181 7.98705 14.0832 8.00067 14.1506 8.00067C14.2486 8.00067 14.2873 7.9722 14.3716 7.91598C14.5146 7.82131 14.5411 7.66118 14.5411 7.48961V1.97347H21.0905L13.0729 10.2146C12.8804 10.4112 12.8792 10.7347 13.0656 10.978H10.5859C10.4812 10.978 10.3794 10.9934 10.2938 11.0539L5.72538 14.2778C5.51235 14.4285 5.4473 14.7127 5.57449 14.9415C5.60713 15.0004 6.3901 16.3786 7.71423 16.1975C8.04454 16.152 8.44231 16.0038 8.8425 15.8064L6.42057 19.4958H1.96722V1.97347Z" fill="#A68264" stroke="white" stroke-width="0.15"/>
</svg>
