<svg width="133" height="161" viewBox="0 0 133 161" fill="none" xmlns="http://www.w3.org/2000/svg">
<path d="M63.9043 53.8403C64.2752 53.3015 65.017 53.4811 65.5733 53.4811C66.1296 60.3054 66.1296 66.9501 66.5005 73.7745C66.1296 74.1336 65.3878 74.1336 65.017 73.954C64.6461 73.7745 64.6461 73.0561 64.6461 72.6969C64.4606 66.4114 64.0897 60.1258 63.9043 53.8403Z" fill="#987253"/>
<path d="M65.3872 82.1612C65.1461 82.1612 64.7567 82.1791 64.5341 82.1791H64.497C64.256 82.1791 63.9036 82.0894 63.6996 81.9636L59.8981 79.3776C59.7126 79.2339 59.4344 79.2698 59.2861 79.4315L58.7298 80.078C58.5814 80.2576 58.6 80.509 58.7854 80.6527L63.6255 83.6338C63.8295 83.7416 64.2003 83.8313 64.4414 83.8313H64.9977C65.2388 83.8313 65.6283 83.8134 65.8508 83.8134L70.8392 81.7302C71.0432 81.6224 71.0432 81.4428 70.8392 81.3351L70.0789 80.922C69.8749 80.8143 69.5226 80.7963 69.3186 80.8861L65.3872 82.1612Z" fill="#987253"/>
<path d="M56.3003 59.7666C56.4857 59.7666 56.6711 59.7666 56.8566 59.9462C57.4129 61.2033 57.7838 62.4605 57.5984 63.8972C57.4129 64.7951 57.2275 65.8726 56.3003 66.4114C54.4458 65.3338 54.8167 62.64 55.1876 60.8442C55.373 60.3054 55.5585 59.5871 56.3003 59.7666Z" fill="#987253"/>
<path d="M74.8449 59.9462C75.5867 59.9462 75.9576 61.0238 76.143 61.7421C76.3285 63.3584 76.5139 65.3338 75.2158 66.4114C74.4741 67.1297 74.1032 65.8726 73.9177 65.3338C73.1759 63.538 73.3614 61.5625 74.4741 59.9462C74.4741 59.9462 74.6595 59.9462 74.8449 59.9462Z" fill="#987253"/>
<path d="M67.2229 23.1308C68.0574 23.2027 68.929 23.2566 69.782 23.3104C75.2897 23.6516 80.9828 24.0108 84.395 28.3209C84.7473 28.9136 85.2666 29.2368 85.7116 29.4703C88.1224 31.9845 90.3662 34.373 90.8299 37.3721C91.9611 44.2144 90.3292 50.7334 88.6045 57.6116C88.4191 58.312 88.2522 59.0124 88.0853 59.7307L88.0297 59.9822C86.8428 54.2174 85.4891 48.1294 83.7274 41.7361C83.3936 40.4431 82.2253 39.581 80.8159 39.581C80.5934 39.581 80.3523 39.599 80.1298 39.6529C77.0514 40.1018 74.2327 40.8741 71.4881 41.6283C69.7079 42.1132 67.872 42.6161 65.9804 43.0291H64.7194C61.0662 42.0953 57.0977 41.0357 52.8325 39.5272L52.7583 39.4912L52.6656 39.4733C51.7198 39.2398 50.8297 39.2398 50.0323 39.2398H49.8654L49.6985 39.2757C48.1222 39.581 47.0281 40.6406 46.7129 42.1671V42.203V42.2389C46.6016 43.0291 46.3976 43.6397 46.1565 44.4299C46.0638 44.7531 45.9526 45.0764 45.8413 45.4356L45.8228 45.4895L45.8042 45.5433C45.1552 48.5245 44.2465 51.4158 43.3564 54.2354C42.8927 55.708 42.4291 57.1985 42.0026 58.7071C41.8357 56.1749 41.6503 53.5529 41.3165 50.8232V49.1171V49.0453V48.9735C41.2979 48.722 41.2608 48.4526 41.2423 48.2012C40.7231 43.1009 40.1853 37.839 42.1881 33.3134C42.8 32.631 43.412 31.8947 44.0054 31.1943C46.0267 28.7878 47.9368 26.4891 50.5516 25.2859C54.6499 23.5798 59.0078 23.4182 63.6253 23.2566C64.7751 23.2386 65.999 23.2027 67.2229 23.1308ZM81.1683 96.6V96.6539C81.1683 96.7796 81.1497 96.9053 81.1497 97.031L80.8716 97.049C80.9272 96.9771 80.9828 96.8873 81.0385 96.8155L81.1497 96.6539L81.1683 96.6ZM68.6879 121.365C69.2072 121.688 69.7264 122.03 70.2827 122.371C69.337 123.197 68.4654 124.059 67.6309 124.885C67.5011 125.011 67.3713 125.136 67.2415 125.262C67.7051 123.951 68.1687 122.658 68.6879 121.365ZM60.4171 121.365C60.6582 122.03 60.8993 122.676 61.1404 123.341C61.3444 123.879 61.5298 124.436 61.7338 124.993C61.3073 124.58 60.8993 124.167 60.4913 123.736C60.0092 123.233 59.5085 122.73 58.9892 122.227C59.4714 121.94 59.9535 121.634 60.4171 121.365ZM67.2415 21.5146C61.3073 21.8737 55.3731 21.5146 49.8098 23.8492C45.9155 25.6451 43.5047 29.4164 40.7231 32.4694C38.3123 37.6774 39.0541 43.6038 39.6104 49.171C39.6104 49.7098 39.6104 50.4281 39.6104 50.9669C39.9813 54.0199 40.1667 56.8932 40.3522 59.7666C39.9998 59.623 39.6475 59.5511 39.2951 59.5511C38.3123 59.5511 37.3851 60.054 36.8287 60.8442C36.2724 62.1013 36.2724 63.538 36.4579 64.9747C37.1996 69.6439 38.3123 74.1336 40.5376 78.4437C40.7231 78.8029 41.8357 78.4437 42.0212 78.8029C42.7629 80.06 42.392 81.4967 42.7629 82.7538C43.6902 86.5252 45.5446 89.7577 47.0281 93.3495C45.5446 94.6066 44.6174 96.0433 43.1338 97.3004C42.392 98.0187 42.0212 98.9167 41.8357 99.8146V99.635C36.6433 101.61 31.08 102.868 25.8876 104.843C22.735 106.1 19.768 107.357 16.6154 108.794C14.3901 110.051 12.1648 110.769 9.93945 111.847C10.1249 112.386 10.4958 112.745 10.6812 113.284C15.6882 110.949 20.6952 108.614 25.8876 106.459C31.2654 104.484 36.6433 103.227 42.0212 101.251C41.8357 109.692 42.392 117.953 42.7629 126.394C42.9484 127.112 42.7629 127.83 43.1338 128.369C43.4305 128.818 44.1167 129.141 44.6545 129.141C44.7657 129.141 44.877 129.123 44.9883 129.087C47.9553 128.189 50.737 126.932 53.5187 125.496C54.8168 124.598 56.1149 123.7 57.413 122.981C59.6383 125.136 61.6782 127.471 64.2744 129.447C64.4598 129.447 64.8307 129.447 65.0161 129.447C67.6124 127.471 69.4668 125.136 71.8775 123.161C75.401 125.316 79.1098 126.573 82.8187 128.728C83.3009 128.89 83.783 129.303 84.3764 129.303C84.4692 129.303 84.5804 129.285 84.6731 129.267C85.2295 129.087 85.7858 129.087 86.1567 128.549C86.713 126.753 86.713 124.777 86.8985 122.981C87.2693 119.749 87.6402 116.516 87.6402 113.284C87.8257 108.974 87.4548 104.484 87.2693 100.174C96.1706 103.586 105.257 105.561 113.788 110.051C116.569 111.308 119.537 112.386 122.318 113.643C122.689 113.284 122.874 112.745 122.874 112.206C116.755 109.512 110.821 106.819 104.701 104.484C98.7668 101.97 92.4618 100.353 86.5276 98.1983V98.3779C86.1567 97.8391 85.7858 97.48 85.2295 97.1208C84.4877 96.2229 83.7459 95.3249 83.0042 94.427C82.8187 94.2474 82.2624 94.0678 82.4478 93.8882C83.9314 88.8598 86.8985 84.3701 87.2693 79.1621C87.6402 79.1621 87.974 79.198 88.2893 79.198C88.6045 79.198 88.9383 79.1621 89.3092 78.9825C90.7928 75.2112 92.0909 71.6194 93.0181 67.6685C93.389 65.8726 93.5744 64.0767 93.389 62.2809C93.2406 60.9878 92.0167 59.9103 90.6815 59.9103C90.3477 59.9103 90.0139 59.9821 89.6801 60.1258C91.5345 52.5832 93.7599 45.0405 92.4618 37.1386C91.9054 33.5469 89.3092 30.8531 86.713 28.1593C86.3421 27.9797 85.9712 27.8001 85.7858 27.4409C81.3352 21.6941 73.732 22.0533 67.2415 21.5146ZM66.611 102.85C64.8863 102.85 63.1432 102.688 61.4927 102.688C60.1946 102.508 59.082 102.149 57.9693 101.431C53.7041 98.7371 49.9952 95.8637 47.9553 91.374C46.8427 88.6802 45.73 85.9864 44.4319 83.2926C44.061 76.4683 43.1338 69.8235 42.5775 62.9992C43.8756 57.2524 46.1009 51.8648 47.399 45.9384C47.7699 44.6813 48.1408 43.7834 48.3262 42.5263C48.5117 41.6283 49.068 41.0896 49.9952 40.91C50.737 40.91 51.4788 40.91 52.2206 41.0896C56.3003 42.5263 60.1946 43.6038 64.4598 44.6813C65.0161 44.6813 65.5725 44.6813 66.1288 44.6813C71.1358 43.6038 75.401 41.9875 80.4079 41.2692C80.5378 41.2332 80.6676 41.2153 80.7788 41.2153C81.3723 41.2153 81.91 41.5565 82.0769 42.1671C84.1168 49.5302 85.6004 56.5341 87.0839 63.8972L87.2693 63.7176C86.713 69.8235 85.9712 75.9295 85.044 82.2151C84.8586 82.7538 84.6731 83.4722 84.4877 84.0109C82.8187 87.9618 81.3352 91.9128 79.6662 95.8637C77.8117 98.3779 75.0301 100.533 72.2484 101.79C70.4867 102.634 68.5581 102.85 66.611 102.85ZM41.6503 77.007C39.9813 72.1582 37.5705 67.1297 38.3123 61.7421C38.4977 61.5625 38.6832 61.3829 39.0541 61.2033C39.1282 61.1854 39.1839 61.1854 39.2581 61.1854C40.0555 61.1854 40.5376 62.1372 40.5376 62.64C41.6503 67.4889 41.6503 72.1582 42.2066 77.007C42.0212 77.007 41.8357 77.007 41.6503 77.007ZM87.4548 77.5458C87.2693 76.6479 87.6402 75.9295 87.6402 75.0316C88.0111 71.4398 88.382 67.8481 89.1238 64.0767C89.1238 63.1788 89.4947 62.1013 90.6073 61.7421C90.6815 61.7241 90.7557 61.7062 90.8299 61.7062C91.2749 61.7062 91.5716 62.1552 91.72 62.4605C91.9054 63.3584 91.9054 64.4359 91.72 65.3339C90.7928 69.6439 89.8656 73.5949 88.0111 77.5458H87.4548ZM64.6453 127.651C63.3472 124.957 62.6054 122.263 61.4927 119.569C59.2674 117.235 57.413 114.72 55.1876 112.206C54.6313 111.488 54.2604 110.769 53.7041 110.051C53.1478 109.692 52.7769 109.153 52.406 108.614C51.1079 106.819 49.9952 105.023 49.068 103.047C48.1408 100.713 48.5117 98.3779 48.1408 96.0433C50.9224 98.9167 54.4459 100.892 57.5984 103.586C58.1547 103.945 58.8965 104.304 59.6383 104.484C61.2146 104.663 62.7537 104.699 64.2744 104.699C65.795 104.699 67.3342 104.663 68.9105 104.663C70.2086 104.663 71.5067 104.125 72.8048 103.586C74.4738 102.868 75.9573 101.79 77.4408 100.533C78.3681 99.4554 79.6662 98.7371 80.7788 97.6596C80.9643 97.48 80.9643 97.3004 80.9643 97.1208C81.1497 98.7371 80.7788 100.353 80.7788 101.97C78.3681 108.974 72.6193 114.182 67.6124 119.569C66.4997 122.263 65.5725 124.957 64.6453 127.651ZM44.8028 127.471C44.8028 127.471 44.6174 127.291 44.6174 127.112C44.061 119.03 43.6902 110.949 43.6902 102.868C43.8756 101.97 43.8756 100.892 44.2465 99.9942C44.4319 99.635 44.6174 99.2758 44.8028 98.7371C45.1737 97.8391 45.9155 97.1208 46.4718 96.4025C46.4718 98.5575 46.4718 100.713 47.2136 102.868C47.399 103.406 47.5845 103.945 47.7699 104.484C47.9553 105.382 48.5117 106.1 49.068 106.819C52.5914 111.488 56.1149 115.439 59.6383 119.928C57.2275 121.365 54.8168 122.981 52.406 124.238C49.9952 125.675 47.5845 127.112 44.8028 127.471ZM84.6731 128.01C79.2953 125.855 74.2883 122.981 69.4668 119.928C69.8377 119.569 70.2086 119.21 70.394 118.671C71.1358 117.414 72.2484 116.696 73.1757 115.439C73.9174 114.541 74.8446 113.643 75.5864 112.745C76.1427 112.206 76.6991 111.847 77.07 111.308C77.2554 110.949 77.6263 110.59 77.8117 110.231C77.9972 110.051 78.3681 109.871 78.5535 109.692C79.4807 107.896 80.4079 106.28 81.3352 104.484C82.4478 101.97 82.6333 99.4554 82.8187 96.7616C84.4877 98.7371 85.6004 100.892 85.7858 103.406C85.9712 106.639 86.3421 110.051 86.1567 113.284C85.9712 117.953 85.4149 122.802 85.044 127.471C84.8586 127.651 84.6731 128.01 84.6731 128.01Z" fill="#987253"/>
<path d="M65.0156 132.14C65.7573 132.32 66.4991 132.859 66.4991 133.577C66.4991 134.295 65.7573 135.014 65.0156 135.014C64.4592 134.834 63.9029 135.014 63.532 134.116C63.1611 133.038 63.9029 132.14 65.0156 132.14Z" fill="#987253"/>
<path d="M56.3002 89.5781C55.9293 89.3985 55.5584 89.219 55.1875 89.5781C55.1875 89.7577 55.1875 89.9373 55.1875 90.1169C56.4856 91.9128 57.9692 93.3495 59.6381 94.7862C59.8236 94.9658 60.009 94.7862 60.009 94.6066C59.8236 92.4515 57.4128 91.1944 56.3002 89.5781Z" fill="#987253"/>
</svg>
