<svg width="104" height="119" viewBox="0 0 104 119" fill="none" xmlns="http://www.w3.org/2000/svg">
<path d="M47.1574 80.7261L46.8269 80.1293H47.5092C48.282 80.1293 48.9483 79.077 48.9802 78.1845C48.4766 76.7645 47.0614 75.547 45.649 74.4174L45.2572 74.1031L45.649 73.7914C46.7896 72.8802 47.0774 71.2231 46.3552 69.7552C45.8968 69.0812 45.1853 68.8467 44.4337 68.5936L44.1672 68.5031V68.2127C44.1672 67.901 44.1672 67.5919 44.1672 67.2909C44.1992 65.5512 44.2285 64.0513 43.1598 62.5567C42.7281 61.9093 42.2457 61.3046 41.6061 61.0222C40.2736 60.9849 38.9411 60.9289 37.6273 60.8437L33.1714 60.817C25.672 60.7691 17.9168 60.7185 10.2949 61.1181C9.85822 61.1269 9.42815 61.2261 9.03182 61.4096C8.63549 61.593 8.28153 61.8566 7.9923 62.1837C7.0329 63.3 6.68378 65.2501 6.9263 68.1487C6.9263 68.2633 6.94495 68.3752 6.95561 68.4871L6.62515 68.5697C5.75155 68.7456 4.97884 69.2501 4.46649 69.979C3.83754 71.2578 4.1147 72.6698 5.21269 73.7621L5.49518 74.0471L5.21269 74.3295C5.00215 74.54 4.77829 74.7504 4.55177 74.9662C3.643 75.8268 2.70225 76.7192 2.09196 77.9314C2.00064 78.1568 1.96743 78.4016 1.99537 78.6432C2.0233 78.8848 2.1115 79.1155 2.25186 79.3141C2.40107 79.5357 2.60214 79.7175 2.83761 79.8438C3.07307 79.9701 3.33582 80.037 3.60302 80.0388H4.29059L3.9548 80.6329C1.28979 85.3777 0.418327 90.0266 1.37773 94.465C2.50503 101.019 4.81294 107.133 7.0782 112.848C7.7871 114.934 9.69525 117.153 12.3763 117.446C18.2553 118.069 24.2436 118 30.0346 117.92C32.3559 117.888 34.7571 117.853 37.1236 117.861C39.0371 117.861 40.828 117.185 42.4536 115.837C43.4472 114.807 44.2254 113.59 44.7429 112.256C45.5424 109.592 46.3419 107.002 47.1414 104.506C47.9409 102.01 48.7404 99.423 49.5399 96.7482C49.8821 95.483 50.0841 94.1839 50.1422 92.8745C50.0573 91.9936 50.0377 91.1076 50.0836 90.2237C50.0223 89.5284 49.9263 88.8224 49.7957 88.0924C49.3141 85.5123 48.4235 83.0255 47.1574 80.7261ZM9.14359 62.9084C9.39919 62.6615 9.70284 62.4698 10.0357 62.3451C10.3685 62.2204 10.7234 62.1655 11.0784 62.1837C15.1452 62.2903 19.236 62.2264 23.1909 62.1624C29.1152 62.0692 35.2421 61.9733 41.3636 62.4555H41.4915L41.5901 62.5381C43.0319 63.7396 42.9227 65.5139 42.848 67.0804C42.8267 67.4694 42.8081 67.8397 42.8081 68.1993V68.6016C31.2934 68.6016 19.777 68.5919 8.2588 68.5723V68.1727C8.2588 67.9063 8.2588 67.6132 8.24015 67.3095C8.2055 65.8123 8.14954 63.9287 9.14359 62.9084ZM5.98021 70.2987C6.12277 70.1597 6.29386 70.0534 6.48162 69.9872C6.66938 69.9209 6.86931 69.8963 7.06754 69.915C11.5554 70.0189 16.1286 69.9497 20.5365 69.8804C28.4996 69.7579 36.7345 69.614 44.8468 70.4878C45.3132 70.5118 45.529 71.1272 45.529 71.5535C45.5348 71.7316 45.4885 71.9075 45.3958 72.0597C45.3357 72.1529 45.2533 72.2298 45.156 72.2832C45.0588 72.3367 44.9498 72.3652 44.8388 72.3661C38.4428 72.8989 31.9881 73.1653 25.5388 73.152C19.0894 73.1386 12.6428 72.8642 6.23606 72.3208C6.10116 72.3056 5.97353 72.2518 5.86855 72.1657C5.76358 72.0797 5.68574 71.9651 5.64442 71.8359C5.54258 71.5751 5.52012 71.29 5.57986 71.0165C5.63961 70.743 5.7789 70.4933 5.98021 70.2987ZM3.69097 78.6641L3.24591 78.4429L3.55505 78.0566C4.62106 76.7246 5.71904 75.3632 7.09153 74.2709L7.20079 74.183C19.4492 74.2132 31.6985 74.2301 43.9487 74.2336L44.0686 74.3855C44.6049 75.0306 45.177 75.6452 45.7822 76.2264C46.4059 76.83 46.9966 77.4668 47.5518 78.1339L47.8609 78.5229L47.4185 78.744L46.7096 79.1063C44.7455 80.1134 42.7121 81.155 40.199 80.6488C39.2027 80.3943 38.2355 80.0371 37.3128 79.5832C36.0762 79.0264 34.9143 78.5042 33.5818 78.5016C32.2493 78.4989 30.9701 79.0344 29.6296 79.5965C28.6903 80.0269 27.7134 80.3702 26.7114 80.6222H26.6261H24.4328L24.3795 80.6062C23.5183 80.3582 22.6706 80.0656 21.8397 79.7297C19.825 78.9438 17.9221 78.2058 15.7688 78.7307C15.1817 78.9411 14.6093 79.1903 14.0552 79.4766C13.1011 79.9455 12.1151 80.4277 10.8998 80.5956C10.4743 80.6808 10.0413 80.7228 9.6073 80.7208C7.68316 80.7208 6.02285 79.8603 4.40786 79.029L3.69097 78.6641ZM47.8929 97.5102C47.4932 98.7809 47.0934 100.073 46.7256 101.323C45.593 105.082 44.4204 108.971 42.8161 112.802C41.9766 115.059 39.7406 116.532 37.1209 116.513C29.4812 116.49 21.8415 116.447 14.2018 116.383C12.3363 116.367 10.6093 115.584 9.10628 114.086C8.74415 113.654 8.44452 113.174 8.21616 112.658L8.19484 112.613C8.00829 112.08 7.82085 111.547 7.63252 111.015C5.62044 105.34 3.71762 99.9878 2.46506 94.1107C1.90488 91.092 2.17475 87.978 3.24591 85.1006L3.2619 85.058C3.56936 84.4772 3.82873 83.8722 4.03742 83.249C4.24642 82.4856 4.64627 81.788 5.19936 81.2216L5.38858 81.0325L5.63643 81.1364C8.52264 82.3432 12.0938 82.0635 15.1932 80.3851C15.8956 79.9598 16.7012 79.7349 17.5224 79.7349C18.3436 79.7349 19.1492 79.9598 19.8516 80.3851C22.2661 81.4507 24.5474 82.4738 27.3616 81.9676C28.1563 81.7362 28.9238 81.42 29.6509 81.0245C30.8288 80.4357 32.0494 79.8283 33.5871 79.831C35.2208 79.831 36.6279 80.5796 37.9897 81.3042C38.2722 81.4534 38.552 81.6026 38.8345 81.7438C41.1131 82.591 43.9833 81.7704 45.4971 81.211L45.8195 81.0911L45.9901 81.3921C48.807 86.486 49.4813 92.2085 47.8929 97.5128V97.5102Z" fill="#A68264" stroke="#A68264" stroke-width="0.5"/>
<path d="M53.9365 92.8559C53.9921 93.4545 54.0811 94.0495 54.203 94.6382C55.2956 101.216 57.5636 107.338 59.7835 113.045C60.4738 115.133 62.3633 117.339 65.0416 117.6C70.918 118.155 76.9062 118.016 82.6973 117.867C85.0212 117.808 87.4224 117.744 89.7863 117.723C91.7024 117.707 93.4986 117.009 95.1296 115.645C96.1288 114.61 96.9155 113.39 97.4455 112.054C98.2637 109.39 99.0925 106.803 99.8947 104.312C100.697 101.821 101.528 99.2365 102.341 96.5697C103.093 93.8709 103.191 91.0549 102.64 87.9619C102.17 85.3957 101.29 82.9218 100.033 80.6355C99.924 80.4357 99.8147 80.2386 99.7028 80.0414H100.385C101.161 80.0414 101.829 78.9891 101.861 78.1019C101.363 76.6899 99.9506 75.4804 98.5408 74.3721L98.1518 74.0604L98.5435 73.7461C99.6841 72.8376 99.9773 71.1858 99.2551 69.7259C98.7967 69.0572 98.0878 68.8228 97.3363 68.575L97.0698 68.4844V68.1967C97.0698 67.8823 97.0698 67.5759 97.0698 67.2749C97.1044 65.5432 97.1337 64.0486 96.065 62.562C95.4707 61.6722 94.7805 60.8623 93.7145 60.8623C91.1694 60.8623 88.5817 60.8437 86.0792 60.8277C78.5799 60.7797 70.8247 60.7291 63.2027 61.1287C62.7659 61.1386 62.3358 61.2383 61.9392 61.4217C61.5425 61.605 61.188 61.8681 60.8975 62.1944C59.9381 63.316 59.589 65.2741 59.8315 68.1834L59.8608 68.5244L59.5277 68.607C58.6532 68.7859 57.8807 69.2932 57.369 70.0243C56.7374 71.3111 57.0119 72.7284 58.1072 73.8233L58.3924 74.1057L58.1072 74.3908C57.894 74.6039 57.6728 74.8144 57.4463 75.0328C56.5349 75.9014 55.5808 76.7992 54.9785 78.0193C54.8862 78.2456 54.852 78.4914 54.879 78.7343C54.906 78.9772 54.9933 79.2095 55.1331 79.41C55.2817 79.6319 55.4828 79.8139 55.7184 79.9398C55.954 80.0657 56.2171 80.1317 56.4842 80.132H57.1691L56.8334 80.7288C55.0238 83.9497 54.0351 87.1227 53.8672 90.2184C53.947 91.0952 53.9702 91.9762 53.9365 92.8559ZM62.0594 62.9164C62.3149 62.6683 62.6188 62.4756 62.9522 62.3504C63.2856 62.2253 63.6413 62.1703 63.9969 62.1891C68.0637 62.2956 72.1545 62.2317 76.1094 62.1677C82.0337 62.0718 88.1633 61.9733 94.2848 62.4528H94.4127L94.5087 62.5327C95.9531 63.7316 95.8412 65.5006 95.7639 67.0618C95.7426 67.4481 95.7239 67.8157 95.7213 68.1754V68.575C84.2066 68.591 72.6911 68.6007 61.1747 68.6043V68.202C61.1747 67.9356 61.1747 67.6399 61.156 67.3362C61.1214 65.8309 61.0654 63.9421 62.0594 62.9164ZM58.8907 70.3386C59.0333 70.1997 59.2044 70.0934 59.3921 70.0271C59.5799 69.9609 59.7798 69.9363 59.9781 69.955C64.466 70.0483 69.0391 69.955 73.4471 69.8937C81.4128 69.7525 89.645 69.6087 97.7573 70.4505C98.221 70.4745 98.4369 71.0873 98.4369 71.5162C98.4422 71.6942 98.3959 71.87 98.3037 72.0224C98.2423 72.115 98.1592 72.1913 98.0617 72.2447C97.9642 72.2981 97.8552 72.3269 97.744 72.3288C91.348 72.8616 84.8933 73.1493 78.444 73.16C71.9946 73.1706 65.548 72.9069 59.1439 72.374C59.0089 72.3592 58.8811 72.3055 58.7761 72.2194C58.6711 72.1333 58.5933 72.0186 58.5523 71.8892C58.4493 71.6262 58.4265 71.3386 58.4867 71.0627C58.547 70.7868 58.6875 70.5348 58.8907 70.3386ZM56.5828 78.7466L56.1378 78.5255L56.4496 78.1366C57.5156 76.8045 58.6189 75.4245 59.9941 74.3269L60.1033 74.2363C72.3517 74.2363 84.601 74.2194 96.8512 74.1857L96.9738 74.3375C97.5082 74.9777 98.0776 75.5878 98.6794 76.1651C99.3028 76.7636 99.8926 77.3959 100.446 78.0593L100.755 78.4456L100.31 78.6667C100.073 78.7866 99.836 78.9065 99.6015 79.029C97.6347 80.0388 95.604 81.0884 93.0856 80.5929C92.0912 80.3441 91.125 79.9942 90.202 79.5486C88.9681 78.9997 87.8035 78.4829 86.471 78.4829C85.1385 78.4829 83.8566 79.0157 82.5134 79.5938C81.5689 80.0247 80.5879 80.3706 79.5819 80.6275H79.4966H77.3007L77.2474 80.6142C76.3842 80.3639 75.5347 80.0686 74.7023 79.7297C72.6902 78.9545 70.7874 78.2192 68.634 78.752C68.0454 78.965 67.472 79.2178 66.9178 79.5086C65.9637 79.9801 64.975 80.4677 63.7597 80.6435C63.3342 80.7291 62.9013 80.7728 62.4672 80.7741C60.5431 80.7741 58.8854 79.9242 57.2731 79.0956L56.5828 78.7466ZM56.1165 85.2178L56.1351 85.1752C56.4432 84.5894 56.7043 83.9801 56.916 83.3529C57.1283 82.589 57.5298 81.8908 58.0832 81.3229L58.2751 81.1311L58.523 81.2349C61.4039 82.4365 64.9776 82.1381 68.0797 80.4357C68.7809 80.007 69.5865 79.779 70.4084 79.7767C71.2304 79.7743 72.0372 79.9977 72.7408 80.4224C75.1393 81.488 77.4286 82.4924 80.2428 81.9756C81.0393 81.7421 81.8078 81.4223 82.5348 81.0218C83.7154 80.4304 84.9333 79.8203 86.4763 79.815C88.11 79.815 89.5144 80.5529 90.8736 81.2669C91.1561 81.4161 91.4359 81.5626 91.7184 81.7038C93.9943 82.5377 96.8645 81.7038 98.3809 81.139L98.7061 81.0165L98.874 81.3175C101.68 86.3661 102.338 92.0487 100.713 97.345C100.305 98.6104 99.9133 99.8999 99.5242 101.147C98.3676 104.9 97.1684 108.785 95.5267 112.618C94.6606 114.886 92.422 116.37 89.8049 116.388C82.1652 116.452 74.5255 116.496 66.8858 116.519C65.007 116.519 63.2987 115.77 61.8089 114.273C61.4515 113.836 61.1573 113.351 60.9348 112.832L60.9162 112.784L60.3645 111.185C58.3951 105.513 56.5295 100.15 55.301 94.2546C54.7592 91.2236 55.0408 88.1029 56.1165 85.2178Z" fill="#A68264" stroke="#A68264" stroke-width="0.5"/>
<path d="M53.9362 92.8559C53.9735 91.9755 53.9539 91.0936 53.8775 90.2158C53.8289 91.096 53.8485 91.9787 53.9362 92.8559Z" fill="#A68264"/>
<path d="M53.1316 92.8745C53.1716 91.9906 53.152 91.105 53.073 90.2237C53.0271 91.1076 53.0467 91.9936 53.1316 92.8745Z" fill="#A68264"/>
<path d="M77.3389 28.3502C76.8517 25.7675 75.9576 23.2784 74.6899 20.9759L74.3594 20.3791H75.039C75.8119 20.3791 76.4755 19.3321 76.5048 18.4423C75.9984 17.0223 74.5806 15.7995 73.1708 14.6672L72.7791 14.3528L73.1708 14.0411C74.3061 13.1353 74.5886 11.4809 73.8637 10.0103C73.4027 9.33627 72.6938 9.09916 71.9449 8.84607L71.6784 8.75283V8.46244C71.6784 8.15073 71.6784 7.84169 71.6784 7.54065C71.7077 5.80363 71.7291 4.30372 70.6631 2.80648C70.0688 1.914 69.3785 1.09611 68.3178 1.09344C65.7834 1.09344 63.209 1.05881 60.7199 1.04016C53.2578 0.976221 45.5426 0.933594 37.9553 1.36252C37.519 1.37524 37.09 1.47787 36.6951 1.66399C36.3003 1.85011 35.9481 2.11571 35.6607 2.44416C34.7013 3.56842 34.3469 5.52656 34.5947 8.43313L34.6214 8.77148L34.2909 8.85673C33.417 9.04036 32.646 9.55006 32.1349 10.282C31.5007 11.5688 31.7672 12.9835 32.8518 14.0758C32.9478 14.169 33.041 14.2623 33.1343 14.3582L32.8518 14.6406C32.6386 14.8537 32.4174 15.0668 32.1882 15.2853C31.2768 16.1565 30.3227 17.0569 29.7178 18.2798C29.6263 18.5052 29.5923 18.7498 29.6188 18.9916C29.6453 19.2334 29.7315 19.4649 29.8697 19.6651C30.0178 19.8865 30.2185 20.0678 30.4538 20.1929C30.6891 20.3179 30.9517 20.3828 31.2182 20.3818H31.9031L31.5646 20.9812C28.8703 25.7607 27.9748 30.4389 28.8996 34.8853C29.9843 41.4524 32.2522 47.5666 34.4961 53.2678C35.1944 55.3539 37.0945 57.5624 39.7862 57.8315C40.6656 57.9168 41.5451 57.9834 42.4272 58.042C43.7899 58.1308 45.1535 58.1912 46.518 58.2231C50.2144 58.319 53.9108 58.2498 57.5299 58.1832C59.8644 58.1405 62.2789 58.0953 64.6561 58.0953C66.5802 58.0953 68.3871 57.4106 70.0075 56.0599C71.0052 55.031 71.7879 53.8138 72.31 52.4793C73.1095 49.8151 73.925 47.2283 74.7085 44.7346C75.4921 42.241 76.3076 39.6568 77.1071 36.9873C77.8346 34.2859 77.9146 31.4592 77.3389 28.3502ZM36.8094 3.16347C37.0632 2.91516 37.3656 2.72192 37.6976 2.59585C38.0296 2.46978 38.3841 2.41361 38.7388 2.43084C42.787 2.52408 46.8591 2.44949 50.7954 2.38555C56.6904 2.28697 62.7879 2.19639 68.8828 2.69992H69.0107L69.1093 2.7825C70.5485 3.98936 70.4419 5.76367 70.3726 7.33018C70.3512 7.71914 70.3326 8.08679 70.3326 8.44645V8.84874C58.857 8.80789 47.3833 8.80789 35.9113 8.84874V8.45977C35.9113 8.19336 35.9113 7.89764 35.8953 7.59393C35.8659 6.07804 35.8153 4.19183 36.8094 3.16347ZM33.6327 10.5937C33.7747 10.4538 33.9456 10.3465 34.1334 10.2794C34.3212 10.2122 34.5214 10.1867 34.72 10.2048C39.1919 10.2847 43.7437 10.2048 48.1437 10.1169C56.0801 9.97567 64.2857 9.85045 72.3713 10.7403C72.835 10.7669 73.0536 11.3823 73.0562 11.8059C73.0612 11.9839 73.015 12.1596 72.923 12.3121C72.8639 12.4046 72.7829 12.481 72.6871 12.5344C72.5913 12.5879 72.4837 12.6168 72.374 12.6185C65.978 13.1273 59.5606 13.3831 53.1326 13.3831C46.7046 13.3831 40.2712 13.1247 33.8992 12.6185C33.7652 12.6035 33.6385 12.55 33.5344 12.4644C33.4303 12.3788 33.3533 12.2648 33.3129 12.1363C33.21 11.876 33.1855 11.5913 33.2423 11.3173C33.2991 11.0432 33.4348 10.7917 33.6327 10.5937ZM31.3088 19.0124L30.8664 18.7939L31.1755 18.405C32.2415 17.0729 33.3475 15.6876 34.7227 14.5846L34.8319 14.4967C47.0484 14.4541 59.2657 14.4541 71.4839 14.4967L71.6038 14.6459C72.1399 15.2921 72.7111 15.9085 73.3147 16.4921C73.9399 17.097 74.5315 17.7356 75.087 18.405L75.3961 18.7939L74.9537 19.0124L74.2475 19.3587C72.2914 20.3605 70.266 21.4101 67.7449 20.8773C66.7497 20.6219 65.7834 20.2648 64.8613 19.8116C63.6247 19.2548 62.4628 18.73 61.1303 18.73C59.7978 18.73 58.5239 19.2628 57.1861 19.8276C56.2532 20.2641 55.2827 20.6154 54.2865 20.8773H54.2013H52.0213L51.9706 20.864C51.1077 20.6106 50.2583 20.3137 49.4255 19.9742C47.4161 19.1962 45.5213 18.4583 43.3706 18.9964C42.7827 19.2089 42.2101 19.4617 41.657 19.753C40.7029 20.2246 39.7169 20.7148 38.5016 20.8906C38.0772 20.9774 37.645 21.0211 37.2118 21.0212C35.2903 21.0212 33.6353 20.1793 32.0283 19.3587L31.3088 19.0124ZM75.4734 37.7493C75.0737 39.0174 74.6739 40.3068 74.3061 41.5536C73.1735 45.3101 71.9982 49.197 70.3832 53.0281C69.5384 55.2846 67.2865 56.7579 64.6588 56.7579H41.6277C39.7382 56.7579 38.0219 55.9986 36.5215 54.5013C36.1623 54.064 35.867 53.5778 35.6448 53.0574L35.6234 53.0094L35.0718 51.4109C33.089 45.739 31.2235 40.3841 30.0082 34.4964C29.4658 31.4568 29.7549 28.3271 30.8451 25.4383L30.861 25.3957C31.1711 24.8101 31.434 24.2007 31.6472 23.5734C31.8612 22.8088 32.2635 22.1099 32.8172 21.5407L33.0091 21.3515L33.2542 21.4528C36.1298 22.6436 39.7009 22.3426 42.8003 20.6535C43.5013 20.2269 44.3062 20.0013 45.1269 20.0013C45.9475 20.0013 46.7524 20.2269 47.4534 20.6535C49.8519 21.7192 52.1359 22.7315 54.9475 22.22C55.7419 21.9879 56.5086 21.6699 57.234 21.2716C58.4093 20.6828 59.6326 20.0727 61.1649 20.0754C62.7959 20.0754 64.2004 20.824 65.5596 21.5487C65.842 21.6979 66.1245 21.8497 66.4044 21.9909C68.6829 22.8381 71.5452 22.0255 73.0669 21.4581L73.3894 21.3382L73.5573 21.6419C76.3582 26.7384 77.0484 32.4503 75.4734 37.7493Z" fill="#A68264" stroke="#A68264" stroke-width="0.5"/>
<path d="M64.7201 29.1361L64.6375 29.1015H64.5469C62.6015 29.1015 60.6427 29.0802 58.7505 29.0615C52.8875 29.0056 47.3496 28.9603 41.5265 29.3706C40.5644 29.3706 39.3252 30.0046 38.9841 31.0223C38.3845 33.0151 38.4964 35.1171 38.6083 37.1498C38.651 37.9491 38.6909 38.7004 38.6909 39.4437C38.6909 40.0964 39.0027 40.7384 39.6184 41.3565L39.685 41.4098C40.5271 41.9719 41.4013 42.5527 42.318 42.55C44.7299 42.6379 47.131 42.6673 49.5136 42.6673C51.8961 42.6673 54.252 42.6353 56.5705 42.606C58.8891 42.5767 61.3382 42.55 63.7527 42.55H63.814C66.0473 42.2303 67.6676 40.5892 67.665 38.6417C67.665 38.0823 67.697 37.4935 67.7316 36.8701C67.8968 33.9316 68.0807 30.5854 64.7201 29.1361ZM66.8681 36.8195C66.8335 37.4535 66.7989 38.0556 66.7989 38.6391C66.7989 40.4161 65.2132 41.4577 63.7234 41.6815C61.3249 41.6815 58.8971 41.7082 56.5625 41.7375C51.9361 41.7961 47.1524 41.8574 42.3393 41.6815C41.6784 41.6815 40.9322 41.1913 40.2073 40.7091C39.7783 40.2722 39.5624 39.8459 39.5624 39.4437C39.5624 38.6737 39.5198 37.8745 39.4771 37.0992C39.3732 35.1437 39.2639 33.119 39.8156 31.2834C40.0154 30.6866 40.8816 30.2391 41.5452 30.2391H41.5745C47.3682 29.8288 52.8928 29.8767 58.7452 29.93C60.6107 29.9487 62.5402 29.9673 64.459 29.97C67.1773 31.2008 67.02 34.0594 66.8681 36.8248V36.8195Z" fill="#A68264" stroke="#A68264" stroke-miterlimit="10"/>
<path d="M37.1644 88.9077L37.0818 88.873H36.9912C35.0457 88.873 33.0896 88.849 31.1947 88.8277C25.3317 88.7638 19.7911 88.6972 13.9708 89.0728C13.0087 89.0728 11.7721 89.6936 11.4363 90.7059C10.8474 92.6907 10.9699 94.7874 11.0899 96.8148C11.1378 97.614 11.1831 98.3627 11.1858 99.1033C11.1858 99.7533 11.503 100.398 12.1239 101.016L12.1905 101.072C13.0327 101.637 13.9068 102.223 14.8236 102.228C17.2221 102.332 19.6206 102.375 22.0004 102.386C24.3803 102.396 26.7308 102.386 29.0441 102.359C31.3573 102.332 33.7985 102.314 36.2103 102.319H36.2716C38.4996 102.005 40.1146 100.363 40.1119 98.4159C40.1119 97.8565 40.1439 97.2677 40.1785 96.6443C40.3384 93.6951 40.5223 90.3543 37.1644 88.9077ZM39.3097 96.591C39.2751 97.2277 39.2431 97.8272 39.2431 98.4133C39.2431 100.19 37.6627 101.232 36.1783 101.45C33.7798 101.45 31.36 101.469 29.0308 101.49C24.4123 101.53 19.6419 101.568 14.8369 101.362C14.176 101.362 13.4298 100.864 12.7049 100.379C12.2731 99.9398 12.0546 99.5109 12.0546 99.1086C12.0546 98.344 12.0013 97.5448 11.956 96.7722C11.8414 94.8194 11.7215 92.8 12.2651 90.9724C12.4624 90.3783 13.3312 89.9387 13.9894 89.9413H14.0187C19.8098 89.5657 25.337 89.6323 31.1894 89.6962C33.0549 89.7176 34.9817 89.7389 36.9032 89.7415C39.6189 90.967 39.4616 93.8256 39.3097 96.591Z" fill="#A68264" stroke="#A68264" stroke-miterlimit="10"/>
<path d="M64.0142 99.2152C64.0142 99.8679 64.3233 100.513 64.9389 101.128L65.0056 101.181C65.845 101.743 66.7165 102.322 67.6306 102.319C70.0291 102.404 72.4276 102.425 74.8075 102.417C77.1874 102.409 79.5352 102.37 81.8485 102.33C84.1617 102.29 86.6055 102.244 89.0174 102.231H89.0786C91.3066 101.898 92.9323 100.249 92.9403 98.3067C92.9403 97.7499 92.9802 97.1611 93.0175 96.5404C93.1934 93.6099 93.3933 90.269 90.0407 88.8464L89.9581 88.8117H89.8648C87.9167 88.8117 85.9606 88.8117 84.0658 88.8117C78.2027 88.7824 72.6648 88.7478 66.8418 89.1581C65.8797 89.1581 64.6405 89.7921 64.2993 90.8098C63.6997 92.8026 63.8143 94.9046 63.9236 96.9374C63.9662 97.7179 64.0142 98.4719 64.0142 99.2152ZM65.1362 91.0549C65.336 90.4582 66.2022 90.0106 66.8657 90.0106H66.8951C72.6861 89.6003 78.2134 89.635 84.0631 89.6643C85.9286 89.6643 87.8581 89.6829 89.7769 89.6643C92.4899 90.8711 92.3193 93.7217 92.1541 96.4818C92.1141 97.1159 92.0795 97.7153 92.0768 98.2961C92.0768 100.07 90.4778 101.12 88.9907 101.352C86.5922 101.368 84.175 101.41 81.8431 101.45C77.2273 101.53 72.4543 101.608 67.6493 101.45C66.991 101.45 66.2475 100.963 65.5172 100.483C65.0882 100.046 64.8723 99.6201 64.8723 99.2152C64.8723 98.4479 64.8323 97.646 64.7897 96.8734C64.6858 94.9153 64.5765 92.8905 65.1282 91.0549H65.1362Z" fill="#A68264" stroke="#A68264" stroke-miterlimit="10"/>
</svg>
