<svg width="195" height="44" viewBox="0 0 195 44" fill="#FCF8F2" xmlns="http://www.w3.org/2000/svg">
<path d="M57.8119 38.5123H58.2399C59.0264 38.5747 59.8092 38.3532 60.4457 37.888C60.6865 37.6876 60.8793 37.4361 61.0103 37.1519C61.1413 36.8676 61.2071 36.5578 61.203 36.245C61.2127 35.9562 61.1619 35.6686 61.0536 35.4006C60.9453 35.1327 60.782 34.8903 60.5743 34.6891C60.3665 34.4879 60.1188 34.3324 59.8472 34.2325C59.5756 34.1326 59.286 34.0905 58.9971 34.109C58.603 34.0708 58.2061 34.0708 57.8119 34.109V38.5123ZM65.0878 43.77H62.3552L58.8655 38.9724H57.8119V41.9627C57.7641 42.3784 57.8325 42.7992 58.0095 43.1785C58.1231 43.2873 58.2574 43.3724 58.4043 43.4288C58.5513 43.4852 58.7081 43.5118 58.8655 43.5071H59.2605V43.77H54.8818V43.5071H55.2769C55.4546 43.5225 55.6331 43.4911 55.7949 43.4162C55.9566 43.3412 56.0959 43.2253 56.1987 43.0799C56.3384 42.7249 56.3947 42.3427 56.3634 41.9627V35.3906C56.4192 34.9817 56.3382 34.5658 56.1329 34.2076C56.0228 34.0939 55.8892 34.0055 55.7413 33.9488C55.5935 33.892 55.435 33.8682 55.2769 33.879H54.8818V33.5176H58.635C59.4424 33.4997 60.2491 33.5769 61.0383 33.7476C61.5548 33.9084 62.0127 34.2169 62.3552 34.6348C62.7113 35.0696 62.8984 35.6179 62.882 36.1792C62.8932 36.7711 62.6818 37.3456 62.2894 37.7894C61.7813 38.322 61.109 38.6691 60.3799 38.7752L62.4869 41.7326C62.8187 42.2537 63.2426 42.7102 63.738 43.0799C64.1488 43.3245 64.6108 43.4707 65.0878 43.5071V43.77Z" fill="#FCF8F2"/>
<path d="M68.6106 37.1322C68.3232 37.151 68.0429 37.2293 67.7875 37.3622C67.4968 37.5769 67.2786 37.8749 67.162 38.2166C66.9749 38.7095 66.8855 39.2341 66.8986 39.761C66.8769 40.6621 67.0805 41.5543 67.4912 42.357C67.6289 42.6722 67.8538 42.9416 68.1395 43.1337C68.4253 43.3258 68.76 43.4325 69.1044 43.4414C69.3348 43.444 69.5626 43.3917 69.7687 43.2888C69.9749 43.186 70.1534 43.0355 70.2896 42.8499C70.6797 42.2336 70.8534 41.5053 70.7834 40.7797C70.841 39.7455 70.564 38.7202 69.9933 37.8551C69.8367 37.6339 69.6297 37.4529 69.3893 37.3272C69.1489 37.2015 68.8819 37.1347 68.6106 37.1322ZM68.841 36.6393C69.3306 36.6222 69.817 36.7239 70.2585 36.9357C70.7 37.1475 71.0835 37.463 71.376 37.8551C71.9271 38.5061 72.22 39.3362 72.1991 40.1882C72.1871 40.839 72.0297 41.4789 71.7382 42.0612C71.4827 42.6518 71.0591 43.1545 70.5201 43.5071C69.9961 43.8312 69.3916 44.002 68.7752 44C68.2878 44.0108 67.8052 43.9026 67.3691 43.685C66.9331 43.4674 66.5569 43.1469 66.273 42.7513C65.7602 42.0688 65.4829 41.2386 65.4829 40.3854C65.4903 39.7195 65.6598 39.0654 65.9768 38.4795C66.2429 37.9131 66.6655 37.4343 67.1949 37.0993C67.6934 36.804 68.2613 36.6453 68.841 36.6393Z" fill="#FCF8F2"/>
<path d="M75.2608 33.0247V39.9253L77.0386 38.3152L77.697 37.658C77.7097 37.6039 77.7097 37.5477 77.697 37.4937C77.7152 37.4522 77.7245 37.4075 77.7245 37.3622C77.7245 37.317 77.7152 37.2722 77.697 37.2308C77.56 37.1742 77.4061 37.1742 77.269 37.2308V36.9679H80.2979V37.2308C79.9366 37.2198 79.5772 37.287 79.2444 37.4279C78.9146 37.5697 78.6134 37.7701 78.3555 38.0194L76.5777 39.6624L78.3555 41.9298L79.3432 43.1128C79.5326 43.3051 79.7557 43.461 80.0016 43.5728H80.6601V43.8357H77.3678V43.5728C77.4951 43.6208 77.6356 43.6208 77.7629 43.5728C77.7802 43.5428 77.7893 43.5088 77.7893 43.4742C77.7893 43.4396 77.7802 43.4056 77.7629 43.3757C77.726 43.1628 77.6222 42.9672 77.4666 42.817L75.3266 40.0896V42.3898C75.2728 42.6832 75.2728 42.9838 75.3266 43.2771C75.3878 43.3964 75.4784 43.4982 75.59 43.5728C75.8397 43.6251 76.0975 43.6251 76.3472 43.5728V43.8357H72.8574V43.5728C73.1167 43.6382 73.3883 43.6382 73.6476 43.5728C73.756 43.5188 73.8388 43.4244 73.878 43.3099C73.9452 43.0291 73.9452 42.7364 73.878 42.4556V35.9492C73.9105 35.4568 73.9105 34.9629 73.878 34.4705C73.8564 34.3375 73.7996 34.2127 73.7134 34.109C73.6069 34.0715 73.4907 34.0715 73.3842 34.109C73.2323 34.0761 73.0751 34.0761 72.9233 34.109V33.8462L74.9974 32.9918L75.2608 33.0247Z" fill="#FCF8F2"/>
<path d="M90.8991 41.6669V43.77H84.6768V43.5071L89.2859 37.3951H87.0143C86.6968 37.3639 86.377 37.3639 86.0595 37.3951C85.978 37.4281 85.904 37.4771 85.8418 37.5392C85.7796 37.6013 85.7305 37.6752 85.6974 37.7565C85.5372 38.0497 85.4471 38.3758 85.434 38.7095H85.1377V36.7707H90.932V37.0665L86.29 43.2114H88.8908C89.2495 43.2822 89.6186 43.2822 89.9773 43.2114C90.169 43.1014 90.328 42.9426 90.4382 42.7513C90.5363 42.4188 90.6025 42.0777 90.6357 41.7326L90.8991 41.6669Z" fill="#FCF8F2"/>
<path d="M95.6729 42.2913V39.6624C95.1683 39.8442 94.6738 40.0526 94.1914 40.2868C93.8693 40.4673 93.5799 40.7005 93.3354 40.9769C93.1794 41.2221 93.0992 41.5079 93.1049 41.7984C93.0914 42.1204 93.1968 42.4361 93.4012 42.6856C93.4971 42.793 93.6134 42.8802 93.7434 42.9423C93.8734 43.0043 94.0145 43.0399 94.1584 43.0471C94.7293 42.9573 95.2584 42.6932 95.6729 42.2913ZM95.6729 42.7842C95.2529 43.1421 94.8011 43.4611 94.323 43.7371C94.0569 43.8684 93.7639 43.9359 93.4671 43.9343C93.2454 43.9438 93.0243 43.9046 92.8195 43.8194C92.6147 43.7342 92.4312 43.6052 92.2818 43.4414C91.9647 43.0787 91.7996 42.6079 91.8209 42.127C91.8064 41.8251 91.887 41.5264 92.0514 41.2726C92.3153 40.8501 92.6914 40.5089 93.1378 40.2868C93.9504 39.854 94.7985 39.4913 95.6729 39.2024V38.9067C95.7289 38.4119 95.6126 37.913 95.3436 37.4937C95.2279 37.3562 95.0808 37.2486 94.9146 37.18C94.7484 37.1113 94.5681 37.0837 94.3889 37.0993C94.1126 37.0906 93.8429 37.1843 93.6317 37.3622C93.5406 37.4319 93.4666 37.5214 93.4153 37.6239C93.3639 37.7264 93.3366 37.8391 93.3354 37.9537V38.3809C93.3448 38.5856 93.2739 38.786 93.1378 38.9395C93.0817 39.0059 93.0107 39.0583 92.9307 39.0925C92.8507 39.1267 92.7638 39.1419 92.6769 39.1367C92.5032 39.1342 92.3376 39.0633 92.216 38.9395C92.1041 38.775 92.0465 38.5797 92.0514 38.3809C92.0663 38.1473 92.1332 37.9199 92.247 37.7153C92.3609 37.5107 92.519 37.334 92.7098 37.1979C93.1981 36.8942 93.7534 36.7144 94.3273 36.6743C94.9012 36.6342 95.4762 36.735 96.0021 36.9679C96.3065 37.1155 96.5423 37.3744 96.6605 37.6908C96.7361 38.1367 96.7361 38.5922 96.6605 39.0381V41.3712C96.6605 42.0284 96.6605 42.4556 96.6605 42.587C96.6605 42.7185 96.6605 42.8499 96.6605 42.8828H96.8581H97.0885L97.6811 42.3241V42.7185C97.1215 43.4742 96.5947 43.8686 96.0679 43.8686C95.9565 43.8671 95.8465 43.843 95.7446 43.7978C95.6427 43.7526 95.5511 43.6873 95.4753 43.6057C95.4484 43.2967 95.5174 42.987 95.6729 42.7185V42.7842Z" fill="#FCF8F2"/>
<path d="M101.039 33.0246V37.6251L102.323 36.5407V37.1979L101.039 38.2823V42.2255C101.005 42.5203 101.005 42.818 101.039 43.1128C101.092 43.2295 101.186 43.323 101.303 43.3756C101.552 43.431 101.81 43.431 102.06 43.3756V43.6385H98.7675V43.3756C98.9722 43.4316 99.1883 43.4316 99.393 43.3756C99.5046 43.301 99.5952 43.1992 99.6564 43.0799C99.6894 42.7631 99.6894 42.4437 99.6564 42.127V39.4324L98.2407 40.5825V39.9582L99.6564 38.8081V36.1135C99.6885 35.6431 99.6885 35.171 99.6564 34.7005C99.6229 34.5746 99.5545 34.4606 99.4589 34.3719C99.3628 34.3394 99.2586 34.3394 99.1626 34.3719H98.6358V34.0762L100.776 33.1561L101.039 33.0246Z" fill="#FCF8F2"/>
<path d="M104.397 42.3241C104.507 42.3123 104.619 42.3271 104.722 42.3671C104.825 42.4071 104.917 42.4713 104.99 42.5542C105.068 42.6318 105.129 42.724 105.172 42.8255C105.214 42.927 105.235 43.0358 105.235 43.1456C105.235 43.2555 105.214 43.3643 105.172 43.4657C105.129 43.5672 105.068 43.6595 104.99 43.7371C104.912 43.8148 104.82 43.8764 104.718 43.9185C104.616 43.9605 104.507 43.9821 104.397 43.9821C104.287 43.9821 104.178 43.9605 104.077 43.9185C103.975 43.8764 103.882 43.8148 103.805 43.7371C103.685 43.6222 103.603 43.4739 103.57 43.3117C103.536 43.1495 103.552 42.9809 103.616 42.8281C103.68 42.6753 103.789 42.5454 103.929 42.4555C104.068 42.3655 104.231 42.3198 104.397 42.3241Z" fill="#FCF8F2"/>
<path d="M111.937 34.5362L114.439 33.3204H114.702V41.9626C114.668 42.3233 114.668 42.6864 114.702 43.047C114.764 43.1848 114.868 43.2997 114.998 43.3756C115.303 43.4311 115.615 43.4311 115.92 43.3756V43.6385H112.233V43.3756C112.537 43.4376 112.851 43.4376 113.155 43.3756C113.225 43.3558 113.29 43.3182 113.342 43.2664C113.393 43.2146 113.431 43.1504 113.451 43.0799C113.511 42.7099 113.511 42.3326 113.451 41.9626V36.4421C113.482 35.9606 113.482 35.4777 113.451 34.9962C113.426 34.8578 113.356 34.731 113.253 34.6348C113.146 34.6018 113.031 34.6018 112.924 34.6348C112.647 34.6511 112.377 34.7297 112.134 34.8648L111.937 34.5362Z" fill="#FCF8F2"/>
<path d="M123.525 38.7095C123.525 38.0523 123.525 37.5265 123.525 37.1322C123.51 36.5969 123.422 36.0661 123.262 35.5549C123.142 35.0769 122.904 34.6364 122.57 34.2733C122.437 34.1274 122.274 34.011 122.093 33.9317C121.911 33.8525 121.715 33.8121 121.517 33.8133C121.287 33.8133 121.06 33.8667 120.854 33.9694C120.649 34.0721 120.47 34.2211 120.332 34.4048C119.966 34.9337 119.792 35.5711 119.838 36.2121C119.778 37.094 120.009 37.9713 120.496 38.7095C120.631 38.9363 120.825 39.1229 121.056 39.25C121.288 39.3771 121.549 39.4401 121.813 39.4324C122.094 39.416 122.371 39.3607 122.636 39.2681C122.943 39.1436 123.231 38.9778 123.492 38.7752M118.784 44.0657V43.7043C119.417 43.7043 120.04 43.5461 120.595 43.2442C121.266 42.8771 121.833 42.3456 122.241 41.6998C122.777 40.9744 123.158 40.1467 123.361 39.2681C122.729 39.7379 121.974 40.0121 121.188 40.0568C120.838 40.051 120.493 39.972 120.175 39.8249C119.857 39.6777 119.574 39.4656 119.344 39.2024C118.811 38.5969 118.538 37.8056 118.587 37.0007C118.56 36.1387 118.827 35.293 119.344 34.6019C119.612 34.2033 119.975 33.8775 120.4 33.6538C120.825 33.43 121.3 33.3155 121.78 33.3204C122.196 33.3139 122.608 33.4023 122.985 33.5788C123.361 33.7553 123.693 34.0154 123.953 34.3391C124.704 35.2659 125.09 36.4343 125.04 37.6251C125.058 38.7734 124.774 39.9064 124.217 40.9111C123.652 41.9029 122.848 42.7386 121.879 43.3428C121.096 43.8832 120.165 44.17 119.212 44.1643L118.784 44.0657Z" fill="#FCF8F2"/>
<path d="M131.262 38.7095C131.353 38.188 131.408 37.6611 131.427 37.1322C131.412 36.5969 131.323 36.0661 131.163 35.5549C131.046 35.0689 130.795 34.6252 130.439 34.2733C130.315 34.1247 130.158 34.0061 129.982 33.9264C129.805 33.8467 129.612 33.808 129.418 33.8133C129.188 33.8133 128.962 33.8667 128.756 33.9694C128.55 34.0721 128.371 34.2211 128.233 34.4048C127.84 34.9217 127.653 35.5654 127.706 36.2121C127.656 37.0977 127.899 37.9753 128.398 38.7095C128.532 38.9098 128.713 39.0743 128.925 39.1889C129.138 39.3034 129.375 39.3644 129.616 39.3667C129.897 39.3503 130.174 39.295 130.439 39.2024C130.736 39.0791 131.013 38.913 131.262 38.7095ZM126.587 44V43.7042C127.219 43.7002 127.841 43.5423 128.398 43.2442C129.062 42.8683 129.627 42.3386 130.044 41.6998C130.568 40.967 130.947 40.1419 131.163 39.2681C130.532 39.7379 129.777 40.0121 128.99 40.0567C128.639 40.0574 128.292 39.9813 127.974 39.8337C127.655 39.6861 127.373 39.4706 127.147 39.2024C126.601 38.6021 126.317 37.8102 126.357 37.0007C126.339 36.1348 126.618 35.2887 127.147 34.6019C127.396 34.2315 127.728 33.9238 128.117 33.7028C128.505 33.4818 128.94 33.3536 129.386 33.3281C129.832 33.3027 130.279 33.3807 130.69 33.5561C131.101 33.7314 131.466 33.9994 131.756 34.339C132.507 35.2659 132.893 36.4343 132.842 37.6251C132.86 38.7734 132.577 39.9064 132.019 40.9111C131.455 41.9029 130.651 42.7386 129.682 43.3428C128.898 43.8832 127.967 44.17 127.015 44.1643L126.587 44Z" fill="#FCF8F2"/>
<path d="M136.859 38.9067C136.469 39.2247 136.145 39.6153 135.904 40.0568C135.711 40.4799 135.61 40.9391 135.608 41.404C135.59 41.9757 135.776 42.5351 136.135 42.9813C136.315 43.1639 136.53 43.3076 136.768 43.4037C137.006 43.4998 137.261 43.5461 137.517 43.54C137.757 43.5559 137.997 43.5233 138.223 43.4443C138.449 43.3652 138.657 43.2413 138.834 43.0799C138.995 42.9424 139.123 42.7707 139.208 42.5773C139.294 42.3839 139.335 42.1739 139.328 41.9627C139.335 41.6214 139.231 41.287 139.032 41.0097C138.416 40.2048 137.684 39.496 136.859 38.9067ZM137.682 37.7894C138.145 37.4396 138.536 37.0046 138.834 36.5079C138.998 36.1822 139.078 35.8206 139.065 35.4563C139.084 35.23 139.056 35.0021 138.982 34.7872C138.908 34.5723 138.791 34.3749 138.637 34.2076C138.475 34.0538 138.283 33.9339 138.074 33.8549C137.865 33.7759 137.642 33.7394 137.419 33.7476C137.19 33.7369 136.961 33.772 136.746 33.8511C136.532 33.9301 136.335 34.0513 136.168 34.2076C136.015 34.33 135.891 34.485 135.805 34.6612C135.72 34.8374 135.675 35.0305 135.674 35.2263C135.676 35.5011 135.744 35.7713 135.871 36.0149C136.017 36.2947 136.206 36.5498 136.431 36.7707L137.682 37.7894ZM136.497 38.6109C135.877 38.1738 135.342 37.6283 134.917 37.0008C134.688 36.6237 134.563 36.1929 134.554 35.7521C134.551 35.4267 134.621 35.1046 134.757 34.8092C134.894 34.5137 135.095 34.2522 135.345 34.0433C135.902 33.5419 136.636 33.2818 137.386 33.3204C138.113 33.2856 138.828 33.5196 139.394 33.9776C139.631 34.1596 139.822 34.3936 139.954 34.6615C140.085 34.9293 140.153 35.2238 140.151 35.522C140.14 35.9468 140.003 36.3587 139.756 36.705C139.271 37.2614 138.691 37.7286 138.044 38.0852C138.7 38.5604 139.297 39.112 139.822 39.7282C140.176 40.1914 140.372 40.7557 140.382 41.3383C140.387 41.6911 140.316 42.0409 140.174 42.3641C140.032 42.6872 139.822 42.9762 139.559 43.2114C138.949 43.716 138.178 43.9843 137.386 43.9672C136.941 44.017 136.49 43.9594 136.072 43.7993C135.654 43.6392 135.28 43.3812 134.982 43.0471C134.569 42.6114 134.334 42.0369 134.324 41.4369C134.398 40.9305 134.628 40.4596 134.982 40.0896C135.409 39.523 135.92 39.0244 136.497 38.6109Z" fill="#FCF8F2"/>
<path d="M55.4416 17.186H56.3963H57.0877C57.4234 17.1896 57.7559 17.1211 58.0627 16.985C58.3695 16.8489 58.6433 16.6485 58.8655 16.3973C59.3757 15.8304 59.647 15.0888 59.6227 14.3271C59.6239 13.7596 59.5003 13.1987 59.2606 12.6841C59.048 12.2129 58.6905 11.8216 58.24 11.5668C57.7933 11.2987 57.2797 11.162 56.7585 11.1725C56.3134 11.1875 55.8715 11.2537 55.4416 11.3697V17.186ZM55.4416 17.7774V21.6878C55.3749 22.2421 55.4782 22.8035 55.7379 23.298C55.8789 23.4504 56.0533 23.5683 56.2475 23.6424C56.4416 23.7165 56.6503 23.7448 56.8572 23.7252H57.384V24.0866H51.6226V23.7252H52.1164C52.3506 23.746 52.5862 23.7054 52.7999 23.6075C53.0135 23.5095 53.1978 23.3575 53.3345 23.1665C53.5131 22.6953 53.5807 22.1893 53.5321 21.6878V12.947C53.6002 12.4068 53.5086 11.8586 53.2687 11.3697C53.1184 11.2203 52.9378 11.1049 52.739 11.0312C52.5402 10.9575 52.3279 10.9272 52.1164 10.9425H51.6226V10.581H56.5609C57.5185 10.538 58.4764 10.6603 59.3923 10.9425C60.0894 11.1862 60.7049 11.6185 61.1701 12.1912C61.6491 12.7869 61.9052 13.5305 61.8944 14.2943C61.9139 14.7945 61.8272 15.2931 61.64 15.7575C61.4527 16.2219 61.1692 16.6415 60.8079 16.9888C59.9528 17.728 58.8426 18.1052 57.7132 18.0403H56.6597L55.4416 17.7774Z" fill="#FCF8F2"/>
<path d="M70.4213 23.7252V24.0866H64.627V23.7252H65.1208C65.3484 23.7447 65.5774 23.7102 65.7891 23.6246C66.0008 23.5389 66.1892 23.4045 66.3389 23.2323C66.539 22.7434 66.618 22.2136 66.5694 21.6878V12.947C66.6425 12.5008 66.6425 12.0458 66.5694 11.5997C66.4855 11.4197 66.3474 11.2704 66.1743 11.1725C65.893 11.0153 65.5748 10.9359 65.2525 10.9425H64.7586V10.581H70.553V10.9425H70.0592C69.8361 10.92 69.611 10.9532 69.4041 11.0393C69.1972 11.1253 69.015 11.2615 68.874 11.4354C68.6315 11.8999 68.5395 12.4281 68.6106 12.947V21.6878C68.5356 22.1448 68.5356 22.611 68.6106 23.068C68.6988 23.2559 68.8502 23.4071 69.0386 23.4951C69.307 23.6544 69.6153 23.7342 69.9275 23.7252H70.4213Z" fill="#FCF8F2"/>
<path d="M84.7096 10.2524L85.0059 14.8529H84.7096C84.4392 13.7143 83.8311 12.6836 82.9647 11.8954C82.1805 11.2727 81.2009 10.9468 80.1992 10.9754C79.3375 10.9666 78.4916 11.2062 77.7629 11.6654C76.9864 12.1917 76.3982 12.9514 76.0839 13.8342C75.63 15.0181 75.4174 16.2805 75.4584 17.5474C75.4156 18.6726 75.6177 19.7938 76.051 20.8335C76.3946 21.6928 77.0064 22.4187 77.7959 22.9037C78.6072 23.3991 79.5447 23.6501 80.4955 23.6266C81.2985 23.6368 82.0912 23.4447 82.8001 23.068C83.6864 22.4884 84.4384 21.7266 85.0059 20.8335L85.3351 21.0306C84.7675 22.0839 83.9546 22.9855 82.9647 23.6594C81.9716 24.2522 80.8291 24.5487 79.6724 24.5138C78.6669 24.5536 77.667 24.3467 76.7602 23.9113C75.8533 23.4759 75.0672 22.8253 74.4707 22.0164C73.5651 20.7407 73.0922 19.2092 73.1209 17.646C73.1067 16.3541 73.412 15.0787 74.0098 13.9328C74.8049 12.3821 76.1844 11.2099 77.845 10.6738C79.5056 10.1377 81.3116 10.2816 82.8659 11.0739C83.0403 11.2003 83.2444 11.2795 83.4585 11.304C83.6322 11.3015 83.7979 11.2306 83.9194 11.1068C84.1106 10.895 84.2364 10.6325 84.2816 10.351L84.7096 10.2524Z" fill="#FCF8F2"/>
<path d="M91.755 16.8574H98.0103V13.1441C98.0852 12.6871 98.0852 12.221 98.0103 11.764C97.9264 11.584 97.7883 11.4347 97.6152 11.3368C97.3339 11.1796 97.0157 11.1002 96.6934 11.1068H96.2325V10.581H101.994V10.9425H101.5C101.188 10.9369 100.881 11.0165 100.611 11.1725C100.506 11.2155 100.413 11.2824 100.338 11.3681C100.264 11.4537 100.211 11.5555 100.183 11.6654C100.107 12.1003 100.107 12.545 100.183 12.9798V21.6878C100.108 22.1448 100.108 22.611 100.183 23.068C100.271 23.2559 100.423 23.4071 100.611 23.4951C100.881 23.6512 101.188 23.7307 101.5 23.7252H101.994V24.0866H96.1008V23.7252H96.5617C96.7893 23.7447 97.0183 23.7102 97.23 23.6246C97.4417 23.5389 97.6301 23.4045 97.7798 23.2323C97.9923 22.7469 98.0719 22.2139 98.0103 21.6878V17.5803H91.755V21.6878C91.6801 22.1448 91.6801 22.611 91.755 23.068C91.8389 23.248 91.977 23.3973 92.1501 23.4951C92.4314 23.6524 92.7496 23.7318 93.0719 23.7252H93.5657V24.0866H87.9031V23.7252H88.3969C88.6245 23.7447 88.8535 23.7102 89.0652 23.6246C89.2769 23.5389 89.4653 23.4045 89.615 23.2323C89.8151 22.7434 89.8941 22.2136 89.8455 21.6878V13.1441C89.903 12.6859 89.903 12.2223 89.8455 11.764C89.7573 11.576 89.6058 11.4249 89.4175 11.3368C89.1477 11.1808 88.8404 11.1012 88.5286 11.1068H87.9031V10.581H93.6974V10.9425H93.2036C92.8481 10.9173 92.4931 10.9973 92.183 11.1725C91.9848 11.2791 91.8326 11.4545 91.755 11.6654C91.7016 12.1019 91.7016 12.5433 91.755 12.9798V16.8574Z" fill="#FCF8F2"/>
<path d="M115.492 20.3406H115.821L114.669 23.9881H104.2V23.7252H104.726C104.96 23.7398 105.193 23.6964 105.406 23.5989C105.619 23.5014 105.804 23.3529 105.945 23.1665C106.116 22.6934 106.183 22.1892 106.142 21.6878V12.947C106.186 12.4076 106.095 11.8658 105.879 11.3697C105.729 11.2203 105.548 11.1049 105.349 11.0312C105.15 10.9575 104.938 10.9272 104.726 10.9425H104.2V10.581H110.323V10.9425C109.811 10.9117 109.297 10.9787 108.809 11.1397C108.557 11.2418 108.347 11.4275 108.216 11.6654C108.13 12.1767 108.13 12.6986 108.216 13.2099V21.6878C108.143 22.0677 108.143 22.4581 108.216 22.8379C108.335 22.9421 108.486 23.0004 108.644 23.0022C109.158 23.0629 109.678 23.0629 110.192 23.0022H111.179C111.888 23.1131 112.61 23.1131 113.319 23.0022C113.754 22.8231 114.138 22.5411 114.439 22.1807C114.896 21.634 115.252 21.0111 115.492 20.3406Z" fill="#FCF8F2"/>
<path d="M122.044 11.304V16.6602H125.106C125.601 16.7317 126.106 16.6515 126.554 16.4302C126.94 15.9848 127.141 15.4085 127.114 14.82H127.476V19.3876H127.114C127.063 18.9644 126.975 18.5465 126.851 18.1389C126.714 17.8975 126.507 17.7028 126.258 17.5803C125.891 17.4397 125.499 17.3727 125.106 17.3831H122.143V21.8521C122.109 22.2128 122.109 22.5758 122.143 22.9365C122.206 23.0647 122.31 23.1685 122.439 23.2323C122.686 23.3044 122.949 23.3044 123.196 23.2323H125.468C126.021 23.2501 126.575 23.1948 127.114 23.068C127.498 22.9419 127.848 22.7281 128.134 22.4436C128.631 21.8757 129.051 21.2461 129.386 20.5706H129.781L128.628 23.8566H118.192V23.7252H118.686C118.997 23.7275 119.304 23.6482 119.575 23.4951C119.68 23.4522 119.773 23.3852 119.847 23.2996C119.922 23.214 119.975 23.1121 120.003 23.0022C120.063 22.5771 120.063 22.1458 120.003 21.7207V12.9141C120.062 12.3742 119.97 11.8285 119.739 11.3368C119.581 11.1907 119.394 11.08 119.189 11.012C118.985 10.944 118.768 10.9203 118.554 10.9425H118.192V10.581H128.595V13.5385H128.398C128.313 13.0267 128.158 12.5291 127.937 12.0597C127.746 11.7944 127.484 11.5892 127.18 11.4683C126.719 11.3395 126.242 11.2841 125.764 11.304H122.044Z" fill="#FCF8F2"/>
<path d="M135.937 17.1531H136.497C137.518 17.2613 138.544 17.0052 139.394 16.4302C139.711 16.1802 139.965 15.8601 140.137 15.495C140.308 15.13 140.392 14.7301 140.382 14.3271C140.406 13.9425 140.348 13.557 140.211 13.1968C140.073 12.8366 139.86 12.51 139.586 12.239C139.311 11.968 138.981 11.759 138.619 11.626C138.256 11.4931 137.87 11.4393 137.484 11.4683C136.964 11.4866 136.446 11.5526 135.937 11.6654V17.1531ZM145.518 24.0866H141.929L137.353 17.7774H135.937V21.6878C135.888 22.2381 135.979 22.7919 136.201 23.298C136.351 23.4473 136.531 23.5628 136.73 23.6365C136.929 23.7102 137.141 23.7404 137.353 23.7252H137.88V24.0866H132.085V23.7252H132.612C132.845 23.7398 133.079 23.6964 133.291 23.5989C133.504 23.5014 133.689 23.3529 133.83 23.1665C134.009 22.6953 134.076 22.1893 134.028 21.6878V12.947C134.071 12.4076 133.981 11.8658 133.764 11.3697C133.614 11.2203 133.433 11.1049 133.235 11.0312C133.036 10.9575 132.823 10.9272 132.612 10.9425H132.085V10.581H137.024C138.129 10.5327 139.237 10.6321 140.316 10.8768C140.986 11.0863 141.581 11.4859 142.028 12.0269C142.513 12.5937 142.771 13.3192 142.752 14.0642C142.772 14.857 142.476 15.6253 141.929 16.2001C141.262 16.9004 140.383 17.3623 139.427 17.5146L142.225 21.3921C142.663 22.077 143.221 22.6779 143.871 23.1665C144.41 23.4928 145.02 23.6844 145.649 23.7252L145.518 24.0866Z" fill="#FCF8F2"/>
<path d="M158.588 10.581L149.732 23.2651H155.263C155.957 23.3207 156.647 23.1221 157.205 22.7065C157.813 22.0775 158.235 21.2927 158.423 20.4391H158.753L158.028 24.0866H147.131V23.7252L155.789 11.3697H151.444C150.907 11.3505 150.372 11.4284 149.863 11.5997C149.556 11.7491 149.303 11.9903 149.139 12.2898C148.9 12.8213 148.744 13.3866 148.678 13.9656H148.283L148.579 10.6796L158.588 10.581Z" fill="#FCF8F2"/>
<path d="M48.034 3.87753V10.6468H47.5401C47.4599 9.50428 47.158 8.38825 46.6512 7.36073C46.2323 6.59857 45.6041 5.97158 44.8405 5.55341C44.1068 5.10561 43.2642 4.86695 42.4042 4.86334C41.5338 4.84953 40.6934 5.18035 40.0667 5.78343C39.7799 6.0476 39.5501 6.36751 39.3916 6.72351C39.2331 7.0795 39.1491 7.46408 39.1449 7.85363C39.1464 8.45318 39.3558 9.03371 39.7375 9.49665C40.9065 10.6674 42.2642 11.6338 43.754 12.3555C44.9981 13.0152 46.1871 13.7734 47.3097 14.6229C47.9187 15.1259 48.4127 15.7534 48.7583 16.463C49.0946 17.1608 49.2743 17.9233 49.285 18.6975C49.2901 19.4121 49.1463 20.1198 48.863 20.776C48.5796 21.4321 48.1628 22.0224 47.6389 22.5093C47.0873 23.046 46.4323 23.4654 45.7137 23.7421C44.995 24.0189 44.2275 24.1473 43.4577 24.1195C42.9433 24.1711 42.4249 24.1711 41.9104 24.1195C41.3182 23.9814 40.7353 23.8058 40.1655 23.5937C39.6237 23.3816 39.0608 23.2274 38.4864 23.1337C38.278 23.1398 38.079 23.2216 37.9268 23.3637C37.7604 23.6303 37.6694 23.9369 37.6634 24.2509H37.1366V17.6789H37.6634C37.8056 18.7652 38.1283 19.8202 38.6181 20.8006C39.0497 21.5364 39.6763 22.139 40.4289 22.5422C41.2647 23.0039 42.2062 23.2417 43.1614 23.2323C44.1511 23.2761 45.1191 22.9344 45.8611 22.2793C46.174 21.9972 46.4237 21.6524 46.5939 21.2673C46.7641 20.8823 46.8509 20.4657 46.8488 20.0448C46.8355 19.5278 46.7001 19.0211 46.4537 18.5661C46.1681 18.0416 45.7756 17.5826 45.3014 17.2188C44.9393 16.9231 43.9845 16.3316 42.4042 15.3787C41.2462 14.7269 40.1449 13.9794 39.112 13.1441C38.4805 12.6465 37.964 12.0189 37.5975 11.304C37.2383 10.6145 37.0572 9.84646 37.0708 9.06947C37.0622 8.39564 37.1922 7.72722 37.4527 7.10551C37.7132 6.4838 38.0986 5.922 38.5852 5.45483C39.105 4.95593 39.7192 4.56533 40.3918 4.30581C41.0644 4.04628 41.7821 3.92304 42.503 3.94325C43.5866 3.97744 44.6514 4.23475 45.6306 4.69904C45.9511 4.89502 46.3107 5.01841 46.6842 5.06051C46.8987 5.06562 47.1082 4.9959 47.2768 4.86334C47.4638 4.58697 47.5875 4.2728 47.6389 3.94325L48.034 3.87753Z" fill="#FCF8F2"/>
<path d="M25.2845 19.4205C23.0063 19.519 20.7668 18.8089 18.9634 17.416C17.8844 16.5808 17.0601 15.4617 16.5832 14.1847C16.1063 12.9076 15.9957 11.5231 16.2637 10.1867C16.4413 9.33292 16.867 8.55029 17.4877 7.93663C18.1084 7.32297 18.8965 6.90549 19.7535 6.73638C23.0458 6.24347 24.2639 8.11651 24.5602 8.97088C24.8594 9.82668 24.8736 10.756 24.6007 11.6205C24.3278 12.485 23.7824 13.2384 23.0458 13.7685L22.5519 12.947C23.0726 12.5143 23.4468 11.9319 23.6235 11.2791C23.8003 10.6263 23.771 9.93502 23.5396 9.29948C23.0458 7.98507 21.7947 7.39358 19.7535 7.68933C19.0802 7.81095 18.4615 8.13897 17.9836 8.62777C17.5056 9.11658 17.1922 9.74188 17.0868 10.4167C16.8471 11.5764 16.9392 12.78 17.3525 13.8899C17.7659 14.9999 18.4838 15.9712 19.4243 16.6931C21.3667 18.2375 26.0088 20.1763 34.9308 15.773L35.3259 16.6273C32.2364 18.3116 28.8014 19.2671 25.2845 19.4205Z" fill="#FCF8F2"/>
<path d="M24.4615 21.5564C19.131 21.4187 13.9987 19.5107 9.87681 16.1344C8.44005 14.8212 6.67863 13.9137 4.77383 13.5056C4.05531 13.4638 3.34007 13.6309 2.71481 13.9867C2.08954 14.3425 1.5811 14.8716 1.25112 15.5101C0.962163 16.0096 0.810041 16.5763 0.810041 17.1531C0.810041 17.7299 0.962163 18.2966 1.25112 18.7961C2.17295 20.0119 4.11538 20.4063 6.68333 19.8148L6.88087 20.7677C3.29231 21.7864 1.44865 20.4063 0.757281 19.519C0.300592 18.8778 0.036371 18.1201 -0.00444326 17.3344C-0.0452575 16.5488 0.139024 15.7678 0.526824 15.0829C0.942046 14.2836 1.57857 13.6202 2.36067 13.1717C3.14277 12.7231 4.03751 12.5082 4.93844 12.5526C7.03062 12.967 8.97409 13.9312 10.5682 15.3458C13.3633 17.7593 16.7258 19.4261 20.3416 20.1904C23.9573 20.9548 27.7081 20.7916 31.2435 19.7162L31.5069 20.6363C29.2108 21.2592 26.8408 21.5687 24.4615 21.5564Z" fill="#FCF8F2"/>
<path d="M169.683 19.4205C166.121 19.2872 162.639 18.3311 159.51 16.6273L159.938 15.773C168.925 20.1763 173.502 18.2375 175.444 16.6931C176.379 15.9662 177.092 14.9943 177.505 13.8859C177.918 12.7775 178.013 11.5763 177.782 10.4167C177.672 9.73267 177.349 9.10058 176.858 8.61076C176.368 8.12094 175.734 7.79843 175.049 7.68932C173.172 7.39358 171.757 7.98506 171.362 9.29948C171.13 9.93501 171.101 10.6263 171.278 11.2791C171.454 11.9319 171.829 12.5143 172.349 12.947L171.823 13.7685C171.113 13.2177 170.597 12.4565 170.349 11.5944C170.1 10.7323 170.132 9.81371 170.44 8.97088C170.808 8.06741 171.504 7.33567 172.389 6.92153C173.273 6.50739 174.282 6.44128 175.214 6.73637C176.074 6.89729 176.867 7.31206 177.489 7.92711C178.111 8.54216 178.534 9.32925 178.703 10.1867C178.987 11.5201 178.887 12.9063 178.415 14.1854C177.943 15.4645 177.119 16.5845 176.037 17.416C174.215 18.7987 171.969 19.5072 169.683 19.4205Z" fill="#FCF8F2"/>
<path d="M170.506 21.5564C168.122 21.5366 165.752 21.1939 163.46 20.5377L163.724 19.7162C167.254 20.7919 171 20.9552 174.61 20.1907C178.221 19.4263 181.577 17.7592 184.366 15.3458C185.96 13.9312 187.904 12.967 189.996 12.5526C190.902 12.5018 191.804 12.7136 192.592 13.1625C193.381 13.6114 194.023 14.2783 194.44 15.0829C194.825 15.7671 195.011 16.5452 194.976 17.3291C194.941 18.113 194.687 18.8716 194.243 19.519C193.551 20.4063 191.806 21.7864 187.658 20.8992L187.889 19.9462C188.799 20.3031 189.791 20.3968 190.752 20.2166C191.712 20.0364 192.603 19.5897 193.321 18.9275C193.635 18.4426 193.816 17.8835 193.845 17.3066C193.874 16.7297 193.75 16.1554 193.486 15.6415C193.15 15.0005 192.636 14.4701 192.005 14.1144C191.374 13.7587 190.653 13.5929 189.93 13.637C188.027 14.0511 186.267 14.9578 184.827 16.2659C180.765 19.5514 175.732 21.4106 170.506 21.5564Z" fill="#FCF8F2"/>
<path d="M65.845 6.57207L65.417 5.68484C75.5479 1.7884 86.3311 -0.141109 97.1872 -2.80514e-06C108.037 -0.270098 118.83 1.64084 128.925 5.61912L128.398 6.57207C118.476 2.63211 107.863 0.721281 97.1872 0.952947C86.4744 0.790107 75.8313 2.69823 65.845 6.57207Z" fill="#FCF8F2"/>
<path d="M71.9687 6.57207L71.7053 5.65198C80.0736 3.44298 88.696 2.33822 97.352 2.36595C106.036 2.40263 114.683 3.50627 123.097 5.65198L122.834 6.57207C114.515 4.45603 105.97 3.35267 97.3849 3.28604C88.8059 3.27721 80.2623 4.38182 71.9687 6.57207Z" fill="#FCF8F2"/>
</svg>
